<svg width="60" height="60" viewBox="0 0 60 60" fill="none" xmlns="http://www.w3.org/2000/svg">
<path d="M19.8775 27.1421H14.9993C13.9561 27.1421 13.1074 27.9908 13.1074 29.034V33.9122C13.1074 34.9554 13.9561 35.8041 14.9993 35.8041H19.8775C20.9207 35.8041 21.7693 34.9554 21.7693 33.9122V29.034C21.7692 27.9908 20.9207 27.1421 19.8775 27.1421ZM20.3521 33.9122C20.3519 34.0381 20.3019 34.1587 20.2129 34.2477C20.1239 34.3367 20.0032 34.3868 19.8773 34.3869H14.9992C14.8733 34.3868 14.7526 34.3367 14.6636 34.2477C14.5746 34.1587 14.5246 34.0381 14.5245 33.9122V29.034C14.5246 28.9082 14.5746 28.7875 14.6636 28.6985C14.7526 28.6095 14.8733 28.5594 14.9992 28.5593H19.8773C20.0032 28.5594 20.1239 28.6095 20.2129 28.6985C20.3019 28.7875 20.3519 28.9082 20.3521 29.034V33.9122ZM34.2475 27.1421H29.3696C28.3264 27.1421 27.4778 27.9908 27.4778 29.034V33.9122C27.4778 34.9554 28.3264 35.8041 29.3696 35.8041H34.2475C35.2907 35.8041 36.1393 34.9554 36.1393 33.9122V29.034C36.1393 27.9908 35.2907 27.1421 34.2475 27.1421ZM34.7222 33.9122C34.7221 34.0381 34.672 34.1587 34.583 34.2477C34.494 34.3367 34.3733 34.3868 34.2475 34.3869H29.3696C29.2438 34.3868 29.1231 34.3367 29.0341 34.2477C28.9451 34.1587 28.895 34.0381 28.8949 33.9122V29.034C28.895 28.9082 28.9451 28.7875 29.0341 28.6985C29.1231 28.6095 29.2438 28.5594 29.3696 28.5593H34.2475C34.3733 28.5594 34.494 28.6095 34.583 28.6985C34.672 28.7875 34.7221 28.9082 34.7222 29.034V33.9122ZM48.6176 27.1421H43.7398C42.6966 27.1421 41.8479 27.9908 41.8479 29.034V33.9122C41.8479 34.9554 42.6966 35.8041 43.7398 35.8041H48.6176C49.6608 35.8041 50.5095 34.9554 50.5095 33.9122V29.034C50.5093 27.9908 49.6608 27.1421 48.6176 27.1421ZM49.0922 33.9122C49.0921 34.0381 49.042 34.1587 48.953 34.2477C48.864 34.3367 48.7433 34.3868 48.6175 34.3869H43.7396C43.6138 34.3868 43.4931 34.3367 43.4041 34.2477C43.3151 34.1587 43.265 34.0381 43.2649 33.9122V29.034C43.265 28.9082 43.3151 28.7875 43.4041 28.6985C43.4931 28.6095 43.6138 28.5594 43.7396 28.5593H48.6175C48.7433 28.5594 48.864 28.6095 48.953 28.6985C49.042 28.7875 49.0921 28.9082 49.0922 29.034V33.9122ZM48.6176 39.7068H43.7398C42.6966 39.7068 41.8479 40.5554 41.8479 41.5986V46.4764C41.8479 47.5196 42.6966 48.3683 43.7398 48.3683H48.6176C49.6608 48.3683 50.5095 47.5196 50.5095 46.4764V41.5986C50.5093 40.5553 49.6608 39.7068 48.6176 39.7068ZM49.0922 46.4764C49.0921 46.6023 49.042 46.723 48.953 46.812C48.864 46.901 48.7433 46.951 48.6175 46.9512H43.7396C43.6138 46.951 43.4931 46.901 43.4041 46.812C43.3151 46.723 43.265 46.6023 43.2649 46.4764V41.5986C43.265 41.4728 43.3151 41.3521 43.4041 41.2631C43.4931 41.1741 43.6138 41.124 43.7396 41.1239H48.6175C48.7433 41.124 48.864 41.1741 48.953 41.2631C49.042 41.3521 49.0921 41.4728 49.0922 41.5986V46.4764ZM19.8775 39.7068H14.9993C13.9561 39.7068 13.1074 40.5554 13.1074 41.5986V46.4764C13.1074 47.5196 13.9561 48.3683 14.9993 48.3683H19.8775C20.9207 48.3683 21.7693 47.5196 21.7693 46.4764V41.5986C21.7692 40.5553 20.9207 39.7068 19.8775 39.7068ZM20.3521 46.4764C20.3519 46.6023 20.3019 46.723 20.2129 46.812C20.1239 46.901 20.0032 46.951 19.8773 46.9512H14.9992C14.8733 46.951 14.7526 46.901 14.6636 46.812C14.5746 46.723 14.5246 46.6023 14.5245 46.4764V41.5986C14.5246 41.4728 14.5746 41.3521 14.6636 41.2631C14.7526 41.1741 14.8733 41.124 14.9992 41.1239H19.8773C20.0032 41.124 20.1239 41.1741 20.2129 41.2631C20.3019 41.3521 20.3519 41.4728 20.3521 41.5986V46.4764ZM33.7869 44.6128C33.6939 44.6128 33.6017 44.6311 33.5157 44.6668C33.4298 44.7024 33.3516 44.7546 33.2858 44.8204C33.22 44.8862 33.1678 44.9643 33.1322 45.0503C33.0966 45.1362 33.0783 45.2284 33.0783 45.3214V46.5012C33.0783 46.6891 33.1529 46.8694 33.2858 47.0023C33.4187 47.1351 33.599 47.2098 33.7869 47.2098C33.9749 47.2098 34.1551 47.1351 34.288 47.0023C34.4209 46.8694 34.4955 46.6891 34.4955 46.5012V45.3214C34.4955 45.2284 34.4772 45.1362 34.4416 45.0503C34.406 44.9643 34.3538 44.8862 34.288 44.8204C34.2222 44.7546 34.1441 44.7024 34.0581 44.6668C33.9721 44.6311 33.88 44.6128 33.7869 44.6128Z" fill="#F44E22"/>
<path d="M58.3407 52.6048H54.6652V25.0775C54.6652 23.2823 53.2048 21.822 51.4096 21.822H49.925V18.0377C49.925 17.275 49.3044 16.6543 48.5416 16.6543H43.7902V12.7366H48.7555C49.6711 12.7366 50.416 11.9918 50.416 11.0764V7.63852C50.416 6.72293 49.6711 5.97809 48.7555 5.97809H43.0827C42.685 5.97809 42.373 6.30305 42.373 6.68836V16.6545H15.0757C14.313 16.6545 13.6923 17.275 13.6923 18.0379V21.8221H8.58531C6.79 21.8221 5.32972 23.2825 5.32972 25.0777V52.6049H1.65425C0.717573 52.6049 0.71605 54.022 1.65425 54.022H58.3407C58.5286 54.022 58.7088 53.9474 58.8417 53.8145C58.9746 53.6816 59.0493 53.5013 59.0493 53.3134C59.0493 53.1255 58.9746 52.9452 58.8417 52.8123C58.7088 52.6794 58.5286 52.6048 58.3407 52.6048ZM43.7912 7.39523H48.7554C48.8897 7.39523 48.9987 7.50434 48.9987 7.63852V11.0766C48.9986 11.141 48.9729 11.2028 48.9273 11.2484C48.8817 11.2939 48.8199 11.3195 48.7554 11.3196H43.7912V7.39523ZM48.5077 18.0715V21.822H15.1042L15.0757 18.0715H48.5077ZM8.95175 25.0775V52.6048H6.74687V25.0775C6.74687 24.064 7.57175 23.2391 8.58531 23.2391H9.52316C9.15059 23.7798 8.9513 24.4209 8.95175 25.0775ZM35.7026 52.6025H27.9146V39.6868C27.9146 39.6246 27.9652 39.5739 28.0272 39.5739H35.5896C35.6519 39.5739 35.7026 39.6245 35.7026 39.6868V52.6025ZM53.2479 52.6048H37.1198V39.6868C37.1198 38.8432 36.4333 38.1567 35.5896 38.1567H28.0272C27.1835 38.1567 26.4974 38.8432 26.4974 39.6868V52.6049H10.3689V25.0775C10.3689 24.064 11.1938 23.2391 12.2076 23.2391H51.4095C52.423 23.2391 53.2479 24.064 53.2479 25.0775V52.6048Z" fill="#F44E22"/>
</svg>
