<svg width="60" height="60" viewBox="0 0 60 60" fill="none" xmlns="http://www.w3.org/2000/svg">
<path d="M55.4047 21.0818L57.3969 19.0923C57.9435 18.5456 58.2441 17.8164 58.2434 17.0389C58.2427 16.2632 57.9417 15.5365 57.3969 14.9938C56.8509 14.4479 56.1226 14.1472 55.346 14.1472C54.5694 14.1472 53.8409 14.4478 53.2951 14.9938L51.3054 16.9834C48.5955 14.9442 45.3674 13.5593 41.8576 13.0625V11.2465H42.2396C43.0455 11.2465 43.7012 10.5908 43.7012 9.78492V7.45957C43.7012 6.65367 43.0455 5.99801 42.2396 5.99801H35.679C34.8731 5.99801 34.2174 6.65367 34.2174 7.45957V9.78492C34.2174 10.5908 34.8731 11.2465 35.679 11.2465H36.061V13.063C32.5515 13.5603 29.324 14.9455 26.6145 16.9849L24.6235 14.9939C24.0776 14.4479 23.3492 14.1473 22.5726 14.1473C21.796 14.1473 21.0676 14.4479 20.5217 14.9939C19.3918 16.1238 19.3918 17.9625 20.522 19.0928L22.5158 21.0838C19.9259 24.5249 18.3888 28.8011 18.3888 33.4298C18.3888 44.7735 27.6174 54.0022 38.961 54.0022C50.3047 54.0022 59.5332 44.7735 59.5332 33.4298C59.5332 28.8004 57.9954 24.5232 55.4047 21.0818ZM54.2909 15.9898C54.5708 15.7098 54.9454 15.5557 55.3458 15.5557C55.7463 15.5557 56.1209 15.7098 56.4018 15.9907C56.6807 16.2684 56.8345 16.6412 56.8349 17.0403C56.8353 17.4411 56.6812 17.8161 56.4012 18.0961L54.5151 19.9796C53.864 19.2278 53.1598 18.5238 52.4078 17.8728L54.2909 15.9898ZM35.6258 9.7848V7.45945C35.6258 7.43308 35.6526 7.40625 35.679 7.40625H42.2396C42.266 7.40625 42.2928 7.43308 42.2928 7.45945V9.7848C42.2928 9.81117 42.266 9.83801 42.2396 9.83801H35.679C35.6526 9.83801 35.6258 9.81117 35.6258 9.7848ZM37.4694 11.2464H40.4491V12.9117C39.9575 12.8764 39.4614 12.8575 38.9609 12.8575C38.4604 12.8575 37.9621 12.8764 37.4694 12.912V11.2464ZM21.5176 18.0964C20.9368 17.5155 20.9368 16.5705 21.5176 15.9898C21.7974 15.7098 22.1721 15.5557 22.5725 15.5557C22.9729 15.5557 23.3476 15.7098 23.6275 15.9898L25.5121 17.8744C24.7602 18.5253 24.0561 19.2295 23.4052 19.9814L21.5176 18.0964ZM38.9609 52.5935C28.394 52.5935 19.7971 43.9968 19.7971 33.4297C19.7971 22.8627 28.3939 14.2661 38.9609 14.2661C49.5279 14.2661 58.1247 22.8628 58.1247 33.4297C58.1247 43.9966 49.5278 52.5935 38.9609 52.5935ZM38.9609 17.1028C29.9582 17.1028 22.634 24.427 22.634 33.4296C22.634 42.4322 29.9582 49.7532 38.9609 49.7532C47.9636 49.7532 55.2844 42.4305 55.2844 33.4296C55.2844 24.4287 47.9617 17.1028 38.9609 17.1028ZM38.9609 48.3448C30.7348 48.3448 24.0425 41.6538 24.0425 33.4297C24.0425 25.2056 30.7348 18.5113 38.9609 18.5113C47.187 18.5113 53.876 25.2036 53.876 33.4297C53.876 41.6558 47.185 48.3448 38.9609 48.3448ZM27.1883 33.4297C27.1883 33.6165 27.1141 33.7956 26.982 33.9277C26.85 34.0598 26.6709 34.134 26.4841 34.134H26.411C26.022 34.134 25.7068 33.8188 25.7068 33.4297C25.7068 33.0407 26.022 32.7254 26.411 32.7254H26.4841C26.5766 32.7254 26.6681 32.7436 26.7536 32.779C26.839 32.8144 26.9167 32.8663 26.9821 32.9317C27.0474 32.9971 27.0993 33.0748 27.1347 33.1602C27.1701 33.2457 27.1883 33.3372 27.1883 33.4297ZM38.2567 20.9529V20.8798C38.2567 20.693 38.3309 20.5139 38.463 20.3818C38.595 20.2498 38.7742 20.1756 38.9609 20.1756C39.1477 20.1756 39.3268 20.2498 39.4588 20.3818C39.5909 20.5139 39.6651 20.693 39.6651 20.8798V20.9529C39.6651 21.1396 39.5909 21.3188 39.4588 21.4508C39.3268 21.5829 39.1477 21.6571 38.9609 21.6571C38.7742 21.6571 38.595 21.5829 38.463 21.4508C38.3309 21.3188 38.2567 21.1396 38.2567 20.9529ZM32.0766 22.9137C31.983 22.7521 31.9574 22.5599 32.0055 22.3794C32.0535 22.1989 32.1713 22.045 32.3329 21.9513C32.4945 21.8577 32.6867 21.8321 32.8672 21.8802C33.0476 21.9282 33.2016 22.046 33.2953 22.2076L33.3318 22.2708C33.3782 22.3508 33.4083 22.4392 33.4206 22.5308C33.4328 22.6225 33.4268 22.7157 33.403 22.8051C33.3792 22.8944 33.338 22.9782 33.2818 23.0517C33.2256 23.1251 33.1554 23.1868 33.0754 23.2331C32.9954 23.2795 32.907 23.3097 32.8154 23.3219C32.7237 23.3341 32.6305 23.3282 32.5411 23.3044C32.4518 23.2806 32.368 23.2394 32.2945 23.1832C32.2211 23.127 32.1594 23.0569 32.1131 22.9768L32.0766 22.9137ZM52.2152 33.4296C52.2152 33.6164 52.141 33.7955 52.0089 33.9276C51.8769 34.0597 51.6978 34.1339 51.511 34.1339H51.4346C51.0456 34.1339 50.7304 33.8187 50.7304 33.4296C50.7304 33.0405 51.0456 32.7253 51.4346 32.7253H51.511C51.6035 32.7253 51.6951 32.7435 51.7805 32.7789C51.8659 32.8143 51.9436 32.8662 52.009 32.9316C52.0744 32.997 52.1262 33.0746 52.1616 33.1601C52.197 33.2455 52.2152 33.3371 52.2152 33.4296ZM44.5901 22.2707L44.6267 22.2075C44.673 22.1275 44.7347 22.0574 44.8082 22.0012C44.8816 21.945 44.9654 21.9038 45.0548 21.88C45.1441 21.8562 45.2373 21.8502 45.329 21.8625C45.4207 21.8747 45.509 21.9048 45.589 21.9512C45.6691 21.9976 45.7392 22.0592 45.7954 22.1327C45.8516 22.2061 45.8928 22.2899 45.9166 22.3793C45.9404 22.4686 45.9464 22.5618 45.9341 22.6535C45.9219 22.7452 45.8918 22.8335 45.8454 22.9136L45.8089 22.9766C45.7626 23.0567 45.7009 23.1268 45.6274 23.183C45.554 23.2393 45.4702 23.2805 45.3808 23.3043C45.2914 23.3281 45.1982 23.334 45.1065 23.3218C45.0148 23.3095 44.9264 23.2793 44.8464 23.2329C44.7664 23.1865 44.6963 23.1249 44.6401 23.0514C44.5839 22.978 44.5428 22.8942 44.519 22.8048C44.4952 22.7154 44.4892 22.6223 44.5014 22.5306C44.5136 22.4389 44.5438 22.3507 44.5901 22.2707ZM50.4473 40.0438C50.4028 40.1249 50.3427 40.1963 50.2705 40.2542C50.1984 40.312 50.1155 40.3551 50.0267 40.3809C49.9379 40.4067 49.8448 40.4148 49.7529 40.4046C49.661 40.3945 49.572 40.3663 49.4909 40.3218L49.4245 40.2852C49.2639 40.1936 49.1457 40.0426 49.0955 39.8647C49.0452 39.6867 49.067 39.4962 49.156 39.3342C49.2451 39.1721 49.3942 39.0516 49.5714 38.9986C49.7485 38.9456 49.9393 38.9644 50.1027 39.0509L50.1692 39.0874C50.3329 39.1774 50.4541 39.3287 50.5063 39.508C50.5584 39.6874 50.5372 39.8801 50.4473 40.0438ZM45.8531 43.9594C45.9121 44.0666 45.9422 44.1873 45.9403 44.3096C45.9385 44.4319 45.9048 44.5517 45.8425 44.657C45.7803 44.7624 45.6917 44.8497 45.5855 44.9104C45.4792 44.9711 45.359 45.003 45.2367 45.003C45.1104 45.0032 44.9865 44.9693 44.8778 44.9051C44.7691 44.8409 44.6797 44.7487 44.619 44.638L44.5824 44.5716C44.5378 44.4905 44.5096 44.4015 44.4995 44.3096C44.4893 44.2177 44.4974 44.1247 44.5231 44.0358C44.5489 43.947 44.592 43.8642 44.6498 43.792C44.7076 43.7198 44.7791 43.6597 44.8601 43.6152C44.9412 43.5706 45.0302 43.5424 45.1221 43.5323C45.214 43.5221 45.307 43.5302 45.3959 43.5559C45.4847 43.5817 45.5675 43.6248 45.6397 43.6826C45.7119 43.7404 45.772 43.8119 45.8165 43.8929L45.8531 43.9594ZM50.4473 26.8154C50.5372 26.9791 50.5584 27.1718 50.5063 27.3512C50.4541 27.5306 50.3329 27.6818 50.1692 27.7718L50.1027 27.8084C50.0217 27.8529 49.9327 27.8811 49.8407 27.8912C49.7488 27.9014 49.6558 27.8933 49.567 27.8675C49.4782 27.8417 49.3953 27.7986 49.3231 27.7408C49.251 27.683 49.1909 27.6115 49.1464 27.5304C49.0564 27.3667 49.0352 27.174 49.0874 26.9946C49.1395 26.8153 49.2608 26.664 49.4245 26.574L49.4909 26.5375C49.572 26.4929 49.661 26.4648 49.7529 26.4546C49.8448 26.4445 49.9379 26.4525 50.0267 26.4784C50.1155 26.5042 50.1983 26.5472 50.2705 26.6051C50.3427 26.6629 50.4027 26.7344 50.4473 26.8154ZM28.7647 39.3155C28.8582 39.4772 28.8836 39.6694 28.8354 39.8498C28.7872 40.0303 28.6693 40.1842 28.5077 40.2777L28.4445 40.3143C28.3645 40.3606 28.2761 40.3907 28.1844 40.4029C28.0927 40.415 27.9995 40.409 27.9102 40.3851C27.8208 40.3613 27.737 40.32 27.6636 40.2638C27.5902 40.2075 27.5286 40.1373 27.4823 40.0573C27.3888 39.8956 27.3633 39.7034 27.4115 39.5229C27.4597 39.3425 27.5776 39.1886 27.7393 39.095L27.8024 39.0585C27.9641 38.965 28.1563 38.9395 28.3368 38.9877C28.5172 39.0359 28.6711 39.1538 28.7647 39.3155ZM33.3397 44.5716L33.3031 44.638C33.2586 44.7191 33.1985 44.7906 33.1263 44.8484C33.0541 44.9062 32.9713 44.9493 32.8825 44.975C32.7937 45.0008 32.7006 45.0089 32.6087 44.9987C32.5168 44.9885 32.4278 44.9603 32.3467 44.9157C32.2657 44.8712 32.1942 44.8111 32.1364 44.7389C32.0786 44.6668 32.0355 44.5839 32.0097 44.4951C31.984 44.4063 31.9759 44.3133 31.9861 44.2213C31.9962 44.1294 32.0244 44.0404 32.069 43.9594L32.1056 43.8929C32.1973 43.7326 32.3484 43.6148 32.5262 43.5648C32.704 43.5149 32.8943 43.5367 33.0561 43.6257C33.218 43.7147 33.3384 43.8637 33.3914 44.0406C33.4445 44.2176 33.4259 44.4082 33.3397 44.5716ZM28.7647 27.5437C28.7184 27.6238 28.6568 27.694 28.5833 27.7502C28.5099 27.8065 28.4262 27.8477 28.3368 27.8716C28.2474 27.8955 28.1543 27.9015 28.0626 27.8893C27.9709 27.8772 27.8825 27.8471 27.8024 27.8007L27.7393 27.7642C27.658 27.7185 27.5867 27.6571 27.5293 27.5836C27.472 27.5102 27.4298 27.4261 27.4052 27.3362C27.3806 27.2463 27.3741 27.1524 27.3861 27.0599C27.3981 26.9675 27.4282 26.8784 27.4749 26.7977C27.5216 26.717 27.5838 26.6464 27.658 26.5899C27.7321 26.5335 27.8167 26.4923 27.9069 26.4688C27.9971 26.4453 28.0911 26.4399 28.1833 26.453C28.2756 26.4661 28.3644 26.4973 28.4445 26.545L28.5077 26.5815C28.6693 26.6751 28.7872 26.829 28.8354 27.0094C28.8836 27.1899 28.8582 27.3821 28.7647 27.5437ZM39.6653 45.9064V45.9796C39.667 46.0731 39.6501 46.1661 39.6155 46.253C39.5808 46.3399 39.5292 46.4191 39.4637 46.4859C39.3981 46.5526 39.3199 46.6057 39.2336 46.6419C39.1474 46.6781 39.0547 46.6967 38.9612 46.6967C38.8676 46.6967 38.7749 46.6781 38.6887 46.6419C38.6024 46.6057 38.5242 46.5526 38.4586 46.4859C38.3931 46.4191 38.3415 46.3399 38.3068 46.253C38.2722 46.1661 38.2553 46.0731 38.257 45.9796V45.9064C38.2553 45.8129 38.2722 45.7199 38.3068 45.633C38.3415 45.5461 38.3931 45.4669 38.4586 45.4001C38.5242 45.3334 38.6024 45.2804 38.6887 45.2441C38.7749 45.2079 38.8676 45.1893 38.9612 45.1893C39.0547 45.1893 39.1474 45.2079 39.2336 45.2441C39.3199 45.2804 39.3981 45.3334 39.4637 45.4001C39.5292 45.4669 39.5808 45.5461 39.6155 45.633C39.6501 45.7199 39.667 45.8129 39.6653 45.9064ZM16.6947 41.0931H5.47002C5.08107 41.0931 4.76584 40.7779 4.76584 40.3888C4.76584 39.9997 5.08107 39.6845 5.47002 39.6845H16.6946C17.0835 39.6845 17.3988 39.9997 17.3988 40.3888C17.3988 40.7779 17.0837 41.0931 16.6947 41.0931ZM15.9938 34.1338H1.17146C0.78252 34.1338 0.467285 33.8186 0.467285 33.4295C0.467285 33.0404 0.78252 32.7252 1.17146 32.7252H15.9936C16.3825 32.7252 16.6978 33.0404 16.6978 33.4295C16.6978 33.8186 16.3828 34.1338 15.9938 34.1338ZM4.76584 26.4704C4.76584 26.2837 4.84003 26.1045 4.97208 25.9725C5.10414 25.8404 5.28325 25.7662 5.47002 25.7661H16.6946C17.0835 25.7661 17.3988 26.0814 17.3988 26.4704C17.3988 26.8595 17.0835 27.1747 16.6946 27.1747H5.47002C5.37753 27.1747 5.28596 27.1565 5.20051 27.1211C5.11507 27.0857 5.03744 27.0338 4.97205 26.9684C4.90666 26.903 4.85479 26.8254 4.81941 26.7399C4.78403 26.6545 4.76582 26.5629 4.76584 26.4704ZM17.7708 19.5112C17.7708 19.698 17.6966 19.8771 17.5646 20.0092C17.4325 20.1412 17.2534 20.2154 17.0667 20.2154H9.20701C9.02025 20.2154 8.84114 20.1412 8.70908 20.0092C8.57702 19.8771 8.50283 19.698 8.50283 19.5112C8.50283 19.3245 8.57702 19.1454 8.70908 19.0133C8.84114 18.8813 9.02025 18.8071 9.20701 18.8071H17.0665C17.159 18.8071 17.2506 18.8253 17.336 18.8607C17.4215 18.8961 17.4991 18.9479 17.5645 19.0133C17.6299 19.0787 17.6817 19.1563 17.7171 19.2418C17.7525 19.3272 17.7708 19.4188 17.7708 19.5112ZM17.7708 47.3483C17.7708 47.5351 17.6967 47.7142 17.5646 47.8463C17.4325 47.9784 17.2534 48.0526 17.0667 48.0526H9.20701C8.81807 48.0526 8.50283 47.7374 8.50283 47.3483C8.50283 46.9593 8.81807 46.644 9.20701 46.644H17.0665C17.159 46.644 17.2506 46.6622 17.336 46.6976C17.4215 46.733 17.4991 46.7849 17.5645 46.8503C17.6299 46.9157 17.6818 46.9934 17.7172 47.0788C17.7525 47.1643 17.7709 47.2558 17.7708 47.3483ZM43.7863 40.3789C43.8776 40.5406 43.9014 40.7317 43.8525 40.9108C43.8036 41.0899 43.686 41.2424 43.5253 41.3352C43.3645 41.4281 43.1736 41.4537 42.9941 41.4065C42.8145 41.3593 42.6609 41.2431 42.5665 41.0832L38.3511 33.7818C38.2893 33.6747 38.2568 33.5532 38.2567 33.4296V23.5604C38.2567 23.3737 38.3309 23.1946 38.463 23.0625C38.595 22.9304 38.7742 22.8562 38.9609 22.8562C39.1477 22.8562 39.3268 22.9304 39.4588 23.0625C39.5909 23.1946 39.6651 23.3737 39.6651 23.5604V33.2408L43.7863 40.3789Z" fill="#F44E22"/>
</svg>
