<svg width="68" height="60" viewBox="0 0 68 60" fill="none" xmlns="http://www.w3.org/2000/svg">
<path d="M47.363 19.1715C47.7775 18.7741 48.0716 18.268 48.2114 17.711C48.3512 17.1541 48.3311 16.5691 48.1534 16.0231C47.979 15.4729 47.653 14.9831 47.2128 14.6099C46.7726 14.2366 46.236 13.9952 45.6648 13.9131L39.3638 12.9992C39.1985 12.9763 39.0412 12.9133 38.9058 12.8157C38.7703 12.7181 38.6608 12.5889 38.5867 12.4393L35.7666 6.71573C35.2448 5.65665 34.1847 5.00001 33.0011 5.00001C31.8175 5.00001 30.7574 5.65768 30.2356 6.71676L27.4155 12.4403C27.3423 12.5886 27.2342 12.7168 27.1004 12.814C26.9666 12.9112 26.8113 12.9744 26.6477 12.9982L20.3354 13.9142C19.7645 13.9961 19.2283 14.2375 18.7884 14.6105C18.3485 14.9836 18.0228 15.4732 17.8488 16.0231C17.6712 16.5683 17.6508 17.1525 17.7899 17.7087C17.9289 18.265 18.2219 18.7709 18.6351 19.1684L23.1936 23.6136C23.4385 23.8534 23.5517 24.1951 23.4962 24.5255L22.9815 27.5206C22.9353 27.7896 22.9978 28.066 23.1553 28.2889C23.3128 28.5118 23.5524 28.6631 23.8214 28.7094C24.0904 28.7556 24.3668 28.6931 24.5897 28.5356C24.8127 28.3781 24.9639 28.1385 25.0102 27.8695L25.5248 24.8714C25.6074 24.3781 25.5693 23.8721 25.4137 23.3967C25.2582 22.9214 24.9897 22.4908 24.6314 22.1418L20.0688 17.6914C19.9302 17.5617 19.832 17.3947 19.7858 17.2105C19.7396 17.0263 19.7475 16.8328 19.8084 16.6529C19.8645 16.4694 19.9719 16.3058 20.118 16.1814C20.2641 16.057 20.4427 15.9771 20.6328 15.951L26.9513 15.034C27.4435 14.9596 27.9105 14.7676 28.3128 14.4743C28.715 14.181 29.0406 13.795 29.2619 13.3491L32.082 7.6266C32.433 6.9154 33.5692 6.9154 33.9202 7.6266L36.7393 13.3481C36.9615 13.7953 37.2885 14.1823 37.6924 14.476C38.0963 14.7697 38.5652 14.9615 39.0592 15.035L45.3663 15.95C45.5569 15.976 45.7361 16.0561 45.8827 16.1806C46.0293 16.3052 46.1372 16.4691 46.1938 16.6529C46.2549 16.8335 46.2625 17.0278 46.2158 17.2126C46.169 17.3974 46.0699 17.5648 45.9303 17.6945L41.3698 22.1418C41.0115 22.4912 40.7433 22.9222 40.588 23.398C40.4328 23.8737 40.3952 24.38 40.4785 24.8734L40.9931 27.8685C41.0121 28.0051 41.0583 28.1366 41.1291 28.255C41.1999 28.3734 41.2938 28.4763 41.4052 28.5577C41.5166 28.6392 41.6432 28.6973 41.7775 28.7288C41.9118 28.7603 42.0511 28.7645 42.1871 28.7411C42.323 28.7177 42.4529 28.6672 42.5689 28.5926C42.685 28.5181 42.7849 28.4209 42.8627 28.3069C42.9404 28.193 42.9945 28.0646 43.0216 27.9293C43.0488 27.794 43.0484 27.6547 43.0207 27.5196L42.506 24.5276C42.4788 24.3623 42.4919 24.1929 42.5442 24.0338C42.5965 23.8746 42.6866 23.7305 42.8066 23.6136L47.3619 19.1704L47.363 19.1715Z" fill="#F44E22"/>
<path d="M63.7649 24.0068C63.6356 23.6034 63.3952 23.2446 63.0714 22.9716C62.7476 22.6985 62.3533 22.5222 61.9339 22.463L58.1247 21.9092C58.0913 21.9045 58.0595 21.8916 58.0322 21.8717C58.0049 21.8517 57.983 21.8254 57.9683 21.795L56.2649 18.344C56.079 17.9636 55.7898 17.6433 55.4302 17.4198C55.0707 17.1962 54.6555 17.0785 54.2322 17.0801C53.3625 17.0801 52.5833 17.5648 52.1994 18.344L50.496 21.795C50.4813 21.8254 50.4594 21.8517 50.4321 21.8717C50.4048 21.8916 50.3731 21.9045 50.3396 21.9092L46.5304 22.463C46.1111 22.5222 45.717 22.6985 45.3933 22.9715C45.0696 23.2446 44.8295 23.6034 44.7005 24.0068C44.5682 24.4088 44.5519 24.8398 44.6532 25.2507C44.7546 25.6615 44.9697 26.0355 45.2737 26.3298L48.03 29.0161C48.0545 29.0396 48.0727 29.0689 48.0831 29.1012C48.0936 29.1335 48.0958 29.1679 48.0897 29.2013L47.4392 32.9951C47.366 33.412 47.4117 33.8411 47.5712 34.2332C47.7306 34.6254 47.9974 34.9646 48.3408 35.212C48.6823 35.4624 49.0875 35.6115 49.5099 35.6421C49.9322 35.6727 50.3546 35.5835 50.7287 35.3849L54.1344 33.5941C54.1644 33.5784 54.1978 33.5702 54.2316 33.5702C54.2655 33.5702 54.2989 33.5784 54.3289 33.5941L57.7357 35.3849C58.11 35.5822 58.5322 35.6706 58.9543 35.64C59.3764 35.6095 59.7814 35.4612 60.1235 35.212C60.4667 34.9644 60.7334 34.6252 60.8928 34.2331C61.0523 33.841 61.0981 33.412 61.0251 32.9951L60.3746 29.2013C60.3689 29.1678 60.3714 29.1335 60.382 29.1012C60.3926 29.0689 60.4109 29.0397 60.4353 29.0161L63.1906 26.3298C63.495 26.0355 63.7104 25.6614 63.8119 25.2504C63.9135 24.8393 63.8972 24.409 63.7649 24.0068ZM61.7538 24.8569L58.9985 27.5432C58.735 27.7996 58.5378 28.1164 58.4241 28.4661C58.3104 28.8157 58.2836 29.1879 58.346 29.5502L58.9965 33.344C59.0049 33.3824 59.0015 33.4225 58.9866 33.4589C58.9717 33.4953 58.9461 33.5263 58.9131 33.5478C58.8823 33.5724 58.8448 33.5871 58.8055 33.5901C58.7662 33.593 58.7269 33.584 58.6928 33.5642L55.2861 31.7734C54.9608 31.6029 54.5989 31.5138 54.2316 31.5138C53.8643 31.5138 53.5025 31.6029 53.1772 31.7734L49.7704 33.5642C49.7366 33.5839 49.6975 33.593 49.6585 33.5902C49.6194 33.5875 49.582 33.573 49.5512 33.5488C49.5183 33.5271 49.4927 33.4959 49.4778 33.4593C49.4629 33.4227 49.4594 33.3825 49.4678 33.344L50.1183 29.5502C50.1804 29.1881 50.1535 28.8163 50.04 28.4669C49.9265 28.1174 49.7298 27.8008 49.4668 27.5443L46.7105 24.8569C46.6488 24.7972 46.6313 24.7252 46.6581 24.6429C46.6848 24.5605 46.7414 24.5132 46.8268 24.5008L50.635 23.9471C50.999 23.8944 51.3447 23.7538 51.6422 23.5375C51.9397 23.3213 52.18 23.0358 52.3425 22.7059L54.0459 19.2548C54.0631 19.2199 54.0898 19.1905 54.1229 19.1699C54.156 19.1494 54.1942 19.1385 54.2332 19.1385C54.2722 19.1385 54.3103 19.1494 54.3435 19.1699C54.3766 19.1905 54.4032 19.2199 54.4205 19.2548L56.1228 22.7048C56.2855 23.0347 56.5259 23.32 56.8233 23.5363C57.1208 23.7525 57.4664 23.8932 57.8303 23.9461L61.6385 24.4998C61.7239 24.5121 61.7805 24.5605 61.8073 24.6418C61.834 24.7231 61.8166 24.7962 61.7538 24.8569ZM15.5033 21.796L13.7999 18.345C13.6139 17.9647 13.3246 17.6445 12.9651 17.4209C12.6056 17.1974 12.1905 17.0796 11.7671 17.0811C10.8985 17.0811 10.1183 17.5648 9.73442 18.345L8.03104 21.796C8.01634 21.8264 7.99438 21.8528 7.9671 21.8727C7.93982 21.8926 7.90805 21.9055 7.8746 21.9103L4.06542 22.464C3.64609 22.5232 3.25196 22.6995 2.92827 22.9726C2.60458 23.2456 2.36445 23.6045 2.23545 24.0078C2.10309 24.4099 2.08677 24.8411 2.18835 25.252C2.28993 25.6628 2.50531 26.0368 2.80976 26.3308L5.56604 29.0181C5.59019 29.0417 5.60824 29.0708 5.61864 29.1029C5.62904 29.135 5.63148 29.1691 5.62573 29.2024L4.97526 32.9961C4.90198 33.413 4.94771 33.8421 5.10718 34.2343C5.26665 34.6264 5.53341 34.9656 5.87686 35.2131C6.21835 35.4635 6.62353 35.6125 7.04589 35.6431C7.46825 35.6737 7.89067 35.5846 8.26468 35.386L11.6704 33.5951C11.7004 33.5794 11.7338 33.5712 11.7677 33.5712C11.8015 33.5712 11.8349 33.5794 11.8649 33.5951L15.2717 35.386C15.6461 35.5833 16.0682 35.6716 16.4903 35.6411C16.9124 35.6105 17.3174 35.4622 17.6595 35.2131C18.0029 34.9656 18.2697 34.6264 18.4292 34.2343C18.5886 33.8421 18.6344 33.413 18.5611 32.9961L17.9106 29.2024C17.9046 29.1689 17.9069 29.1346 17.9173 29.1023C17.9277 29.07 17.9459 29.0407 17.9703 29.0171L20.7256 26.3308C21.3482 25.7236 21.5675 24.8333 21.2999 24.0068C21.1706 23.6034 20.9302 23.2446 20.6064 22.9716C20.2825 22.6985 19.8883 22.5222 19.4689 22.463L15.6597 21.9092C15.6262 21.9045 15.5945 21.8916 15.5672 21.8717C15.5399 21.8517 15.518 21.8264 15.5033 21.796ZM19.3413 24.6429C19.355 24.6797 19.3574 24.7198 19.348 24.758C19.3387 24.7962 19.318 24.8307 19.2888 24.8569L16.5325 27.5432C16.2695 27.7998 16.0728 28.1164 15.9593 28.4659C15.8458 28.8153 15.8189 29.1871 15.881 29.5492L16.5315 33.3429C16.5398 33.3815 16.5364 33.4217 16.5215 33.4583C16.5066 33.4948 16.481 33.526 16.4481 33.5478C16.4173 33.572 16.3799 33.5864 16.3408 33.5892C16.3018 33.5919 16.2627 33.5829 16.2289 33.5632L12.8221 31.7723C12.4967 31.6015 12.1347 31.5122 11.7671 31.5122C11.3996 31.5122 11.0376 31.6015 10.7122 31.7723L7.30543 33.5632C7.27138 33.5831 7.23208 33.5922 7.19274 33.5893C7.15341 33.5863 7.11589 33.5715 7.08518 33.5467C7.05243 33.5251 7.02696 33.494 7.01209 33.4577C6.99722 33.4213 6.99364 33.3814 7.00181 33.3429L7.65229 29.5492C7.71448 29.187 7.68757 28.8151 7.57388 28.4656C7.46019 28.1161 7.26315 27.7995 6.99975 27.5432L4.24347 24.8559C4.18172 24.7952 4.16422 24.7242 4.19098 24.6418C4.21774 24.5595 4.27435 24.5121 4.35978 24.4998L8.16793 23.9461C8.53192 23.8933 8.8776 23.7528 9.1751 23.5365C9.47259 23.3202 9.71295 23.0348 9.87542 22.7048L11.5788 19.2548C11.5947 19.2189 11.6211 19.1885 11.6545 19.1678C11.6879 19.147 11.7268 19.1368 11.7661 19.1385C11.8054 19.1368 11.8443 19.147 11.8777 19.1678C11.9111 19.1885 11.9375 19.2189 11.9534 19.2548L13.6558 22.7059C13.8183 23.0358 14.0586 23.3213 14.3561 23.5375C14.6536 23.7538 14.9993 23.8944 15.3633 23.9471L19.1714 24.5008C19.2106 24.5048 19.2477 24.5204 19.2778 24.5458C19.3079 24.5711 19.3307 24.6049 19.3413 24.6429ZM43.2091 31.3946C40.5722 28.5858 36.8505 26.9741 33.0002 26.9741C29.1498 26.9741 25.4281 28.5858 22.7943 31.3915C20.3377 33.9834 18.9726 37.4211 18.982 40.9922C18.982 48.7155 25.2706 55 33.0002 55C40.7297 55 47.0183 48.7166 47.0183 40.9922C47.0183 37.3981 45.6648 33.9893 43.2091 31.3946ZM33.0002 52.9415C26.4059 52.9415 21.0405 47.5813 21.0405 40.9922C21.0405 37.9271 22.1943 35.0206 24.2918 32.8036C26.5417 30.4065 29.7159 29.0315 33.0002 29.0315C36.2844 29.0315 39.4586 30.4055 41.7116 32.8057C43.805 35.016 44.9681 37.9468 44.9598 40.9912C44.9598 47.5803 39.5944 52.9415 33.0002 52.9415Z" fill="#F44E22"/>
<path d="M38.3523 36.9792L31.4637 43.8679L27.2284 39.6326C27.0354 39.4396 26.7737 39.3312 26.5008 39.3312C26.2278 39.3312 25.9661 39.4396 25.7731 39.6326C25.5801 39.8256 25.4717 40.0873 25.4717 40.3602C25.4717 40.6332 25.5801 40.8949 25.7731 41.0879L30.736 46.0509C30.8314 46.1468 30.9448 46.2229 31.0697 46.2748C31.1945 46.3267 31.3285 46.3535 31.4637 46.3535C31.599 46.3535 31.7329 46.3267 31.8577 46.2748C31.9826 46.2229 32.096 46.1468 32.1914 46.0509L39.8077 38.4346C39.9032 38.339 39.979 38.2255 40.0307 38.1007C40.0825 37.9758 40.1091 37.842 40.1091 37.7069C40.1091 37.5717 40.0825 37.4379 40.0307 37.3131C39.979 37.1882 39.9032 37.0748 39.8077 36.9792C39.7121 36.8837 39.5987 36.8079 39.4738 36.7561C39.349 36.7044 39.2151 36.6778 39.08 36.6778C38.9449 36.6778 38.8111 36.7044 38.6862 36.7561C38.5613 36.8079 38.4479 36.8837 38.3523 36.9792Z" fill="#F44E22"/>
</svg>
