<svg width="60" height="60" viewBox="0 0 60 60" fill="none" xmlns="http://www.w3.org/2000/svg">
<path d="M17.7099 2.6895C16.9085 2.69242 16.1406 3.01185 15.5735 3.57823C15.0064 4.14461 14.6861 4.91208 14.6822 5.71355V16.446C14.6822 16.7069 14.7858 16.9572 14.9704 17.1417C15.1549 17.3262 15.4051 17.4299 15.6661 17.4299C15.9271 17.4299 16.1773 17.3262 16.3618 17.1417C16.5464 16.9572 16.65 16.7069 16.65 16.446V5.70985C16.647 5.56983 16.6723 5.43064 16.7245 5.30068C16.7767 5.17071 16.8547 5.05266 16.9537 4.95363C17.0527 4.85459 17.1708 4.77663 17.3008 4.72444C17.4307 4.67225 17.5699 4.64691 17.7099 4.64994H54.8769C55.0169 4.64691 55.1561 4.67225 55.286 4.72444C55.416 4.77663 55.5341 4.85459 55.6331 4.95363C55.7321 5.05266 55.8101 5.17071 55.8623 5.30068C55.9145 5.43064 55.9398 5.56983 55.9368 5.70985V45.9045H49.1364C48.3369 45.9065 47.5705 46.2242 47.0041 46.7885C46.4377 47.3528 46.1172 48.118 46.1123 48.9175V55.7179H35.3095C35.049 55.7179 34.7992 55.8214 34.615 56.0055C34.4309 56.1897 34.3274 56.4395 34.3274 56.7C34.3274 56.9604 34.4309 57.2102 34.615 57.3944C34.7992 57.5786 35.049 57.682 35.3095 57.682H48.0765C48.3359 57.682 48.5879 57.582 48.7732 57.4004L57.6082 48.5543C57.7921 48.3731 57.8972 48.1268 57.9009 47.8687V5.70985C57.897 4.90902 57.5772 4.1421 57.0109 3.57582C56.4446 3.00954 55.6777 2.68969 54.8769 2.68579L17.7099 2.6895ZM41.2056 7.60729C38.7955 7.60827 36.4842 8.56509 34.7786 10.2679C33.073 11.9707 32.1124 14.2805 32.1075 16.6906C32.1115 19.101 33.071 21.4115 34.7758 23.1156C36.4806 24.8197 38.7915 25.7783 41.2019 25.7813C43.6117 25.7773 45.9217 24.8183 47.6257 23.1143C49.3297 21.4103 50.2887 19.1004 50.2926 16.6906C50.2877 14.2818 49.3281 11.9731 47.6242 10.2705C45.9202 8.56792 43.6145 7.61023 41.2056 7.60729ZM41.2056 9.56403C42.1416 9.56305 43.0686 9.74675 43.9334 10.1046C44.7983 10.4624 45.5841 10.9874 46.2457 11.6494C46.9074 12.3114 47.4319 13.0974 47.7893 13.9625C48.1467 14.8275 48.3299 15.7546 48.3285 16.6906C48.3285 20.6374 45.1525 23.8171 41.2056 23.8171C37.2588 23.8171 34.0791 20.6374 34.0791 16.6906C34.0776 15.7543 34.261 14.8269 34.6186 13.9616C34.9762 13.0963 35.5011 12.3101 36.1632 11.6481C36.8252 10.986 37.6114 10.4611 38.4767 10.1035C39.342 9.7459 40.2694 9.56257 41.2056 9.56403ZM44.5039 13.7962L40.898 18.1322L38.7301 15.916C38.546 15.7405 38.3009 15.6432 38.0466 15.6447C37.7922 15.6462 37.5483 15.7463 37.3663 15.924C37.1843 16.1017 37.0783 16.3431 37.0707 16.5974C37.0631 16.8517 37.1544 17.099 37.3255 17.2872L40.2532 20.289C40.6609 20.7041 41.3391 20.6745 41.7134 20.2297L46.0197 15.0599C46.1022 14.9603 46.1643 14.8454 46.2023 14.7217C46.2403 14.598 46.2535 14.468 46.2411 14.3392C46.2287 14.2104 46.1909 14.0853 46.13 13.9712C46.0692 13.857 45.9863 13.756 45.8863 13.6739C45.6855 13.5098 45.4285 13.4308 45.1702 13.4536C44.9119 13.4765 44.6728 13.5994 44.5039 13.7962ZM17.5172 19.5627C13.8557 19.5627 10.7983 22.3718 10.7983 25.8998C10.7983 28.4532 11.6062 30.636 12.3548 33.1969C13.0479 35.5538 13.7186 38.2629 13.8224 41.9799H12.718C11.0466 41.9799 9.77921 43.4549 9.77921 45.1374V46.101H6.31414C4.29811 46.101 2.74902 47.8946 2.74902 49.9589V52.8273C2.74902 53.372 3.19374 53.8093 3.73481 53.8093H4.63164V55.8476C4.63164 56.8853 5.52848 57.6858 6.5328 57.6858H28.4979C28.9923 57.6888 29.4681 57.4981 29.8235 57.1545C30.1789 56.8109 30.3855 56.3418 30.3991 55.8476V53.8093H31.2959C31.5558 53.8084 31.8046 53.7044 31.988 53.5204C32.1713 53.3363 32.2743 53.0871 32.2743 52.8273V49.9589C32.2743 47.8946 30.7252 46.1047 28.7092 46.1047H25.485V45.1374C25.485 43.4549 24.2139 41.9799 22.5425 41.9799H21.2195C21.3035 38.9997 21.7935 36.0447 22.6759 33.1969C23.4245 30.6398 24.2287 28.4532 24.2287 25.8961C24.2287 22.3755 21.1787 19.559 17.5135 19.559L17.5172 19.5627ZM17.5172 21.5268C20.1929 21.5268 22.2757 23.5095 22.2757 25.8998C22.2757 28.0271 21.5641 30.0209 20.797 32.6447C19.939 35.6854 19.4646 38.8215 19.385 41.9799H15.6531C15.5729 38.8225 15.0974 35.6875 14.2375 32.6484C13.4703 30.0209 12.7588 28.0271 12.7588 25.8998C12.7588 23.5095 14.8452 21.5268 17.5172 21.5268ZM33.3453 29.1833C33.078 29.1833 32.8216 29.2895 32.6326 29.4786C32.4435 29.6676 32.3373 29.924 32.3373 30.1913C32.3373 30.4587 32.4435 30.7151 32.6326 30.9041C32.8216 31.0931 33.078 31.1993 33.3453 31.1993C33.6127 31.1993 33.8691 31.0931 34.0581 30.9041C34.2471 30.7151 34.3533 30.4587 34.3533 30.1913C34.3533 29.924 34.2471 29.6676 34.0581 29.4786C33.8691 29.2895 33.6127 29.1833 33.3453 29.1833ZM37.2736 29.213C37.0132 29.213 36.7634 29.3164 36.5792 29.5006C36.395 29.6848 36.2916 29.9346 36.2916 30.195C36.2916 30.4555 36.395 30.7053 36.5792 30.8895C36.7634 31.0736 37.0132 31.1771 37.2736 31.1771H51.019C51.2795 31.1771 51.5292 31.0736 51.7134 30.8895C51.8976 30.7053 52.0011 30.4555 52.0011 30.195C52.0011 29.9346 51.8976 29.6848 51.7134 29.5006C51.5292 29.3164 51.2795 29.213 51.019 29.213H37.2736ZM27.4529 34.0937C27.3205 34.0937 27.1894 34.1198 27.0671 34.1704C26.9448 34.2211 26.8337 34.2953 26.7401 34.3889C26.6465 34.4825 26.5722 34.5937 26.5216 34.716C26.4709 34.8383 26.4449 34.9693 26.4449 35.1017C26.4449 35.2341 26.4709 35.3652 26.5216 35.4875C26.5722 35.6098 26.6465 35.7209 26.7401 35.8145C26.8337 35.9081 26.9448 35.9823 27.0671 36.033C27.1894 36.0837 27.3205 36.1097 27.4529 36.1097C27.7202 36.1097 27.9766 36.0035 28.1656 35.8145C28.3547 35.6254 28.4609 35.3691 28.4609 35.1017C28.4609 34.8344 28.3547 34.578 28.1656 34.3889C27.9766 34.1999 27.7202 34.0937 27.4529 34.0937ZM31.3812 34.1159C31.1202 34.1159 30.87 34.2196 30.6854 34.4041C30.5009 34.5886 30.3972 34.8389 30.3972 35.0999C30.3972 35.3608 30.5009 35.6111 30.6854 35.7956C30.87 35.9801 31.1202 36.0838 31.3812 36.0838H51.019C51.2795 36.0838 51.5292 35.9803 51.7134 35.7961C51.8976 35.612 52.0011 35.3622 52.0011 35.1017C52.0011 34.8412 51.8976 34.5915 51.7134 34.4073C51.5292 34.2231 51.2795 34.1196 51.019 34.1196L31.3812 34.1159ZM33.3453 39.0078C33.2081 38.9994 33.0705 39.0193 32.9412 39.0661C32.8119 39.1129 32.6935 39.1856 32.5934 39.2799C32.4932 39.3741 32.4135 39.4879 32.3589 39.6141C32.3044 39.7404 32.2762 39.8764 32.2762 40.0139C32.2762 40.1515 32.3044 40.2875 32.3589 40.4138C32.4135 40.54 32.4932 40.6538 32.5934 40.748C32.6935 40.8423 32.8119 40.915 32.9412 40.9618C33.0705 41.0086 33.2081 41.0284 33.3453 41.0201C33.6127 41.0201 33.8691 40.9139 34.0581 40.7249C34.2471 40.5358 34.3533 40.2794 34.3533 40.0121C34.3533 39.7447 34.2471 39.4884 34.0581 39.2993C33.8691 39.1103 33.6127 39.0041 33.3453 39.0041V39.0078ZM37.2736 39.0263C37.0132 39.0263 36.7634 39.1298 36.5792 39.314C36.395 39.4981 36.2916 39.7479 36.2916 40.0084C36.2916 40.2688 36.395 40.5186 36.5792 40.7028C36.7634 40.887 37.0132 40.9905 37.2736 40.9905H51.019C51.2795 40.9905 51.5292 40.887 51.7134 40.7028C51.8976 40.5186 52.0011 40.2688 52.0011 40.0084C52.0011 39.7479 51.8976 39.4981 51.7134 39.314C51.5292 39.1298 51.2795 39.0263 51.019 39.0263H37.2736ZM12.718 43.9441H22.5462C23.0465 43.9441 23.5209 44.4036 23.5209 45.1374V46.101H17.6358C17.3754 46.101 17.1256 46.2044 16.9414 46.3886C16.7572 46.5728 16.6537 46.8226 16.6537 47.083C16.6537 47.3435 16.7572 47.5933 16.9414 47.7775C17.1256 47.9616 17.3754 48.0651 17.6358 48.0651H28.7129C29.5578 48.0651 30.3139 48.8434 30.3139 49.9589V51.8415H4.72059V49.9589C4.72059 48.8434 5.4766 48.0688 6.32156 48.0688H13.7112C13.9717 48.0688 14.2215 47.9653 14.4056 47.7812C14.5898 47.597 14.6933 47.3472 14.6933 47.0867C14.6933 46.8263 14.5898 46.5765 14.4056 46.3923C14.2215 46.2081 13.9717 46.1047 13.7112 46.1047H11.7471V45.1374C11.7471 44.4036 12.2214 43.9441 12.7217 43.9441H12.718ZM49.1364 47.8724H55.5291L48.0802 55.3139V48.9212C48.0802 48.3171 48.536 47.8724 49.1401 47.8724H49.1364ZM6.5995 53.8093H28.4387V55.7216H6.5995V53.8093Z" fill="#F44E22"/>
</svg>
