<svg preserveAspectRatio="none" width="100%" height="100%" overflow="visible" style="display: block;" viewBox="0 0 24 24" fill="none" xmlns="http://www.w3.org/2000/svg">
<g id="max 1" clip-path="url(#clip0_0_36)">
<path id="Vector" d="M24 12C24 5.37258 18.6274 0 12 0C5.37258 0 0 5.37258 0 12C0 18.6274 5.37258 24 12 24C18.6274 24 24 18.6274 24 12Z" fill="var(--fill-0, #FFBA00)"/>
<path id="Vector_2" fill-rule="evenodd" clip-rule="evenodd" d="M9.19456 17.6042C8.89654 18.0446 8.00246 18.6278 7.17318 18.6278C6.297 18.6278 6.28175 18.026 6.26671 17.433C6.26396 17.3244 6.26122 17.216 6.25319 17.1118C6.23684 16.8994 6.13936 16.5311 6.01352 16.0556C5.74023 15.0231 5.3332 13.4854 5.3332 11.9417C5.3332 9.59639 7.06952 5.3721 12.0452 5.37222C16.8913 5.37234 18.6665 9.4409 18.6665 12.0842C18.6665 14.0538 17.6429 16.1788 15.6863 17.4875C13.5353 18.9263 10.4903 18.848 9.19456 17.6042ZM15.4141 11.9417C15.4141 10.7237 14.3516 8.59866 12.0452 8.59866C10.3478 8.59866 8.89219 9.94623 8.68922 12.0842C8.49486 14.1315 9.15568 15.3236 9.31118 15.3755C9.43558 15.417 10.0109 14.9695 10.2571 14.7276C10.2571 14.7276 10.2846 14.75 10.3277 14.7767C10.7938 15.0667 11.5375 15.5292 13.0559 15.1163C14.5331 14.7147 15.4141 13.1597 15.4141 11.9417Z" fill="var(--fill-0, #1B1A1A)"/>
</g>
<defs>
<clipPath id="clip0_0_36">
<rect width="24" height="24" fill="white"/>
</clipPath>
</defs>
</svg>
