<svg preserveAspectRatio="none" width="100%" height="100%" overflow="visible" style="display: block;" viewBox="0 0 30 30" fill="none" xmlns="http://www.w3.org/2000/svg">
<g id="max 1" clip-path="url(#clip0_0_63)">
<path id="Vector" d="M30 15C30 6.71573 23.2843 0 15 0C6.71573 0 0 6.71573 0 15C0 23.2843 6.71573 30 15 30C23.2843 30 30 23.2843 30 15Z" fill="var(--fill-0, #FFBA00)"/>
<path id="Vector_2" fill-rule="evenodd" clip-rule="evenodd" d="M11.4927 22.0053C11.1202 22.5558 10.0026 23.2847 8.96598 23.2847C7.87077 23.2847 7.8517 22.5326 7.8329 21.7912C7.82947 21.6556 7.82603 21.5201 7.816 21.3897C7.79557 21.1242 7.67372 20.6639 7.51642 20.0696C7.1748 18.7789 6.66602 16.8567 6.66602 14.9272C6.66602 11.9955 8.83642 6.71518 15.056 6.71533C21.1137 6.71548 23.3327 11.8012 23.3327 15.1053C23.3327 17.5672 22.0532 20.2236 19.6073 21.8594C16.9187 23.6579 13.1124 23.5601 11.4927 22.0053ZM19.2672 14.9272C19.2672 13.4047 17.939 10.7484 15.056 10.7484C12.9342 10.7484 11.1147 12.4328 10.861 15.1053C10.6181 17.6644 11.4441 19.1546 11.6385 19.2194C11.794 19.2713 12.5131 18.7119 12.8209 18.4096C12.8209 18.4096 12.8553 18.4376 12.9091 18.4709C13.4918 18.8334 14.4214 19.4116 16.3194 18.8954C18.1658 18.3934 19.2672 16.4497 19.2672 14.9272Z" fill="var(--fill-0, #1B1A1A)"/>
</g>
<defs>
<clipPath id="clip0_0_63">
<rect width="30" height="30" fill="white"/>
</clipPath>
</defs>
</svg>
