<svg preserveAspectRatio="none" width="100%" height="100%" overflow="visible" style="display: block;" viewBox="0 0 42.9888 42.9925" fill="none" xmlns="http://www.w3.org/2000/svg">
<g id="Group">
<path id="Vector" d="M36.6963 6.3C45.0863 14.69 45.0863 28.31 36.6963 36.7C28.2963 45.09 14.6863 45.09 6.29625 36.7C-2.09375 28.3 -2.10375 14.69 6.29625 6.3C14.6963 -2.1 28.3063 -2.1 36.6963 6.3Z" fill="url(#paint0_radial_0_77)"/>
<path id="Vector_2" d="M39.2562 33.25C39.2062 33.27 39.2463 33.26 39.3363 33.25C39.2563 33.22 39.2162 33.21 39.2562 33.25ZM39.4762 33.28C39.4862 33.26 39.5063 33.24 39.5163 33.22C39.4563 33.23 39.3863 33.24 39.3363 33.24C39.3763 33.26 39.4262 33.27 39.4762 33.28ZM42.7163 24.93C42.6663 24.93 42.6163 24.94 42.5663 24.94C42.0163 24.72 40.4262 24.24 38.5262 24.08C36.5662 20.6 32.6463 17.4 27.8363 15.98C26.6763 15.64 25.5463 15.37 24.4263 15.13C24.4663 15.03 24.5063 14.93 24.5363 14.83C27.5363 13.24 30.2663 11.81 32.1263 9.97C34.6763 7.98 34.8662 5.79 34.7062 4.56C34.6662 4.53 34.6262 4.49 34.5762 4.46C34.6262 5.61 34.3063 7.7 31.6462 9.42C30.0162 10.8 27.7363 11.89 25.1763 13.1C26.0563 10.56 26.5863 8.17 26.2663 5.98C26.0763 3.62 25.4763 1.7 24.5463 0.69C24.2863 0.43 24.0263 0.25 23.7963 0.13C23.6963 0.12 23.5963 0.11 23.4963 0.0999995C23.7663 0.24 24.0663 0.46 24.3663 0.83C25.1263 1.85 25.5263 3.73 25.5263 6C25.6963 8.42 24.8063 11 23.5763 13.86C23.3963 13.95 23.2163 14.03 23.0263 14.12C20.7463 11.88 18.3963 10.12 16.2263 8.78C16.9963 7.38 17.5363 6.02 17.7663 4.79C18.3263 2.25 17.0263 0.919999 16.9463 0.809999C16.9463 0.869999 17.9463 2.33 17.0663 4.61C16.6963 5.7 16.0362 6.9 15.1862 8.17C10.6362 5.57 7.12625 4.91 7.12625 5.59C7.23625 4.94 10.4763 6.01 14.6963 8.87C13.8563 10.05 12.8662 11.27 11.7662 12.48C11.7362 12.52 11.6963 12.56 11.6563 12.6C11.2663 12.47 10.8863 12.33 10.5263 12.17C6.38625 10.65 4.61625 8.39 4.60625 8.2C4.62625 8.43 6.13625 10.94 10.2463 12.84C10.5163 12.98 10.7863 13.12 11.0763 13.24C6.22625 18.33 0.396251 19.61 0.436251 19.52C0.226251 19.64 7.11625 19.63 12.5263 13.81C14.7263 14.58 17.3163 15.1 20.0863 15.66C18.9563 16.29 17.8263 16.98 16.7063 17.77C11.4963 21.31 8.41625 26.64 7.78625 30.99C7.08625 30.8 6.42625 30.57 5.83625 30.29C2.29625 28.66 1.22625 26.1 1.05625 25.91C1.19625 26.13 1.90625 28.86 5.49625 30.94C6.14625 31.33 6.87625 31.65 7.68625 31.92C7.67625 32.03 7.66625 32.14 7.66625 32.25C7.37625 36.64 9.52625 38.78 9.66625 39.01C9.56625 38.78 7.75625 36.45 8.39625 32.32C8.40625 32.26 8.41625 32.2 8.42625 32.13C11.6463 33.01 15.7863 32.95 19.8163 31.53C20.2563 32.72 20.8563 33.81 21.5763 34.75C16.0063 37.35 12.9963 41.14 13.5863 41.41C13.1463 40.99 16.7063 37.99 22.4863 35.8C23.8463 37.17 25.4663 38.05 27.1063 38.17C28.9063 38.54 30.4363 38.61 31.6363 38.57C31.5263 39.54 31.3362 40.27 31.1462 40.71C31.1962 40.68 31.2462 40.66 31.3062 40.63C31.5462 40.17 31.7863 39.47 31.9863 38.55C33.7163 38.45 34.6863 38.13 34.6763 38.23C34.6963 38.14 33.7163 38.32 32.0463 38.25C32.3163 36.89 32.4763 35.13 32.3863 33.12C34.0763 32.82 35.6162 32.67 36.9162 32.7C37.5962 32.69 38.1763 32.76 38.6963 32.87C38.1963 34.37 37.5162 35.23 37.4562 35.41C37.5262 35.25 38.3463 34.47 39.0163 32.95C39.2163 33 39.4063 33.06 39.5863 33.12C39.6463 33.03 39.6962 32.95 39.7562 32.86C39.5762 32.77 39.3863 32.67 39.1763 32.58C39.5763 31.54 39.8962 30.2 39.8862 28.52C39.8462 27.26 39.4763 25.94 38.8363 24.65C39.8663 24.64 40.7463 24.72 41.4263 24.86C41.7963 24.88 42.0963 24.94 42.3563 24.97C42.3263 24.97 42.3062 24.97 42.3062 24.97C42.4962 25.03 42.6263 25.05 42.6963 25.07C42.6963 25.05 42.7062 25.04 42.7062 25.02C42.6762 25.01 42.6462 24.99 42.5962 24.97C42.6462 24.95 42.6763 24.94 42.7163 24.93ZM27.3863 17.36C31.6363 18.63 35.1662 21.17 37.2362 24.03C36.9962 24.03 36.7663 24.03 36.5163 24.04C34.7363 24.02 32.7763 24.48 30.7163 25.21C29.8563 22.98 28.6163 20.69 26.8563 18.45C26.4463 17.9 26.0163 17.38 25.5963 16.88C26.1863 17.02 26.7863 17.18 27.3863 17.36ZM13.2263 13.05C14.2063 11.92 15.0662 10.75 15.7662 9.6C17.6062 10.93 19.5863 12.58 21.5563 14.56C18.4663 14.02 15.6263 13.65 13.2263 13.05ZM19.7563 22.97C18.8563 25.42 18.8363 27.9 19.3763 30.13C15.5363 31.55 11.6763 31.79 8.59625 31.16C9.50625 27.1 12.6063 22.32 17.5563 18.94C19.0763 17.86 20.6463 16.94 22.1963 16.08C22.3163 16.11 22.4363 16.13 22.5663 16.16C21.6163 18.26 20.6063 20.52 19.7563 22.97ZM21.1563 23.38C21.9163 21.16 22.8463 18.99 23.7063 16.89C24.3763 17.66 25.0463 18.47 25.6863 19.33C27.3463 21.41 28.5763 23.56 29.4863 25.66C26.8263 26.69 23.9963 28.09 21.1063 29.42C20.9463 29.49 20.7963 29.56 20.6363 29.63C20.2963 27.68 20.4063 25.54 21.1563 23.38ZM21.0063 31.06C21.2363 30.96 21.4663 30.87 21.6963 30.76C24.6863 29.38 27.4363 27.92 29.9563 26.79C30.6463 28.61 31.1063 30.38 31.3863 32.02C29.7263 32.23 27.9562 32.59 26.1462 33.12C24.8862 33.44 23.7163 33.84 22.6163 34.3C21.9363 33.36 21.3863 32.26 21.0063 31.06ZM31.6763 38.23C30.4863 38.16 28.9962 37.96 27.3062 37.46C25.9562 37.21 24.6763 36.47 23.5863 35.4C24.5263 35.08 25.5263 34.78 26.5663 34.52C28.3063 34.01 29.9963 33.59 31.5763 33.28C31.8063 35.21 31.7963 36.91 31.6763 38.23ZM39.1563 28.58C39.2963 30.11 39.1162 31.39 38.8262 32.42C38.2962 32.22 37.6762 32.06 36.9762 31.98C35.6362 31.77 34.0463 31.75 32.2963 31.91C32.1263 30.16 31.7563 28.26 31.0963 26.29C33.0563 25.47 34.8762 24.9 36.5762 24.77C36.9562 24.73 37.3263 24.7 37.6763 24.68C38.4963 25.96 39.0163 27.29 39.1563 28.58Z" fill="url(#paint1_radial_0_77)"/>
<g id="Group_2">
<path id="Vector_3" d="M24.4963 4.23C28.6963 8.43 27.5563 16.37 21.9663 21.96C16.3663 27.56 8.42625 28.69 4.23625 24.49C0.036251 20.29 1.17625 12.35 6.76625 6.76C12.3563 1.16 20.2963 0.0299997 24.4963 4.23Z" fill="url(#paint2_linear_0_77)"/>
<path id="Vector_4" d="M11.2063 6.7C11.9863 7.48 11.6063 9.12 10.3663 10.36C9.12625 11.6 7.48625 11.98 6.70625 11.2C5.92625 10.42 6.30625 8.78 7.54625 7.54C8.78625 6.29 10.4263 5.92 11.2063 6.7Z" fill="var(--fill-0, white)"/>
<path id="Vector_5" d="M6.11625 13.27C6.56625 13.72 6.56625 14.46 6.11625 14.91C5.66625 15.36 4.92625 15.36 4.47625 14.91C4.02625 14.46 4.02625 13.72 4.47625 13.27C4.91625 12.82 5.65625 12.82 6.11625 13.27Z" fill="var(--fill-0, white)"/>
</g>
<path id="Vector_6" d="M34.4263 38.28C35.4263 37.38 36.2862 36.33 36.9762 35.14C37.5862 34.92 38.1662 34.65 38.7362 34.33C38.7962 34.25 38.8663 34.16 38.9263 34.07C38.3363 34.42 37.7162 34.72 37.0662 34.96C37.2162 34.69 37.3762 34.41 37.5062 34.13C37.9862 33.11 38.3062 32.04 38.4962 30.96C39.5662 30.56 40.5762 30.02 41.4962 29.37C41.5262 29.29 41.5563 29.22 41.5863 29.14C40.6463 29.83 39.6162 30.39 38.5262 30.8C38.7562 29.39 38.7562 27.95 38.5062 26.53C39.8762 26.02 41.1263 25.3 42.2163 24.4C42.3363 25.1 42.3862 25.81 42.3962 26.53C42.4462 26.33 42.4862 26.13 42.5262 25.94C42.4962 25.39 42.4362 24.84 42.3462 24.3C42.5262 24.15 42.6962 23.98 42.8662 23.82C42.8762 23.75 42.8862 23.68 42.8962 23.6C42.7062 23.78 42.5262 23.96 42.3262 24.13C42.0662 22.72 41.5662 21.37 40.8462 20.12C41.5562 19.52 42.1762 18.85 42.7262 18.13C42.7162 18.07 42.7063 18 42.6963 17.94C42.1363 18.69 41.4963 19.38 40.7663 20C40.4063 19.39 40.0063 18.8 39.5363 18.24C39.0663 17.68 38.5462 17.18 37.9962 16.71C38.5462 16.24 39.0563 15.74 39.5363 15.18C40.0063 14.62 40.4063 14.03 40.7663 13.41C41.1363 13.72 41.4762 14.06 41.7962 14.4C41.7562 14.28 41.7062 14.17 41.6662 14.06C41.4062 13.79 41.1263 13.53 40.8363 13.29C40.9463 13.11 41.0263 12.92 41.1263 12.73C41.0963 12.68 41.0762 12.62 41.0562 12.57C40.9462 12.78 40.8462 13 40.7262 13.21C40.1762 12.76 39.5963 12.34 38.9663 11.98C38.3263 11.61 37.6762 11.31 37.0062 11.07C37.3562 10.45 37.6763 9.8 37.9263 9.11C38.0563 8.76 38.1662 8.4 38.2562 8.04C38.2162 7.99 38.1862 7.95 38.1462 7.9C38.0462 8.29 37.9362 8.68 37.7962 9.07C37.5462 9.76 37.2263 10.41 36.8763 11.02C35.4963 10.53 34.0662 10.29 32.6462 10.28C33.3462 9.05 33.8663 7.69 34.1263 6.24C34.8463 6.24 35.5562 6.3 36.2762 6.42C36.5162 6.46 36.7362 6.52 36.9762 6.58C36.9162 6.52 36.8662 6.46 36.8062 6.4C36.6362 6.36 36.4762 6.32 36.3062 6.29C35.5862 6.16 34.8562 6.11 34.1462 6.1C34.2462 5.49 34.3062 4.87 34.3262 4.24C34.2862 4.21 34.2362 4.17 34.1862 4.14C34.1762 4.81 34.1062 5.46 33.9962 6.1C32.5362 6.11 31.1163 6.37 29.7763 6.85C30.0163 5.43 30.0163 3.98 29.7763 2.56C30.1663 2.42 30.5663 2.3 30.9663 2.2C30.8963 2.17 30.8363 2.13 30.7663 2.1C30.4163 2.19 30.0763 2.3 29.7463 2.42C29.6963 2.13 29.6262 1.85 29.5562 1.56C29.5062 1.54 29.4563 1.52 29.4063 1.5C29.4863 1.82 29.5563 2.14 29.6163 2.46C28.2563 2.96 27.0063 3.68 25.9063 4.6C25.6463 3.19 25.1563 1.83 24.4363 0.58C24.5663 0.47 24.7163 0.37 24.8463 0.26C24.7863 0.25 24.7263 0.24 24.6563 0.23C24.5563 0.31 24.4563 0.38 24.3563 0.46C24.2963 0.36 24.2363 0.269999 24.1763 0.169999C24.1163 0.159999 24.0563 0.159999 23.9963 0.149999C24.0763 0.279999 24.1763 0.409999 24.2563 0.549999C23.1563 1.48 22.2263 2.59 21.5063 3.82C20.7763 2.58 19.8563 1.48 18.7563 0.549999C18.8363 0.409999 18.9263 0.279999 19.0063 0.149999C18.9463 0.159999 18.8863 0.159999 18.8263 0.169999C18.7663 0.269999 18.6963 0.36 18.6363 0.46C18.5363 0.38 18.4363 0.31 18.3363 0.23C18.2763 0.24 18.2063 0.25 18.1463 0.26C18.2863 0.37 18.4263 0.47 18.5563 0.58C17.8363 1.85 17.3563 3.21 17.0963 4.61C15.9863 3.69 14.7363 2.97 13.3763 2.47C13.4363 2.15 13.5063 1.83 13.5863 1.51C13.5363 1.53 13.4863 1.55 13.4363 1.57C13.3663 1.86 13.2963 2.14 13.2463 2.43C12.9063 2.31 12.5663 2.2 12.2263 2.11C12.1563 2.14 12.0963 2.17 12.0263 2.21C12.4263 2.31 12.8263 2.43 13.2163 2.57C12.9663 4 12.9663 5.44 13.2163 6.86C11.8863 6.38 10.4662 6.11 8.99625 6.1C8.88625 5.46 8.82625 4.81 8.81625 4.14C8.76625 4.17 8.72625 4.21 8.68625 4.24C8.70625 4.87 8.75625 5.5 8.86625 6.1C8.15625 6.1 7.43625 6.16 6.70625 6.29C6.53625 6.32 6.36625 6.37 6.20625 6.4C6.14625 6.46 6.09625 6.52 6.03625 6.58C6.26625 6.52 6.49625 6.46 6.73625 6.42C7.45625 6.29 8.17625 6.24 8.88625 6.24C9.14625 7.69 9.65625 9.04 10.3663 10.28C8.94625 10.29 7.51625 10.52 6.13625 11.02C5.78625 10.4 5.46625 9.75 5.21625 9.06C5.07625 8.67 4.96625 8.28 4.86625 7.89C4.82625 7.94 4.79625 7.98 4.75625 8.03C4.84625 8.39 4.95625 8.75 5.08625 9.11C5.33625 9.8 5.64625 10.45 6.00625 11.07C5.33625 11.32 4.67625 11.62 4.04625 11.98C3.41625 12.35 2.83625 12.77 2.28625 13.22C2.16625 13.01 2.06625 12.79 1.95625 12.58C1.93625 12.63 1.90625 12.69 1.88625 12.74C1.98625 12.93 2.07625 13.12 2.17625 13.31C1.88625 13.56 1.60625 13.82 1.33625 14.09C1.29625 14.2 1.24625 14.32 1.20625 14.43C1.53625 14.08 1.87625 13.74 2.24625 13.43C2.60625 14.04 3.00625 14.63 3.47625 15.19C3.94625 15.75 4.46625 16.26 5.00625 16.72C4.45625 17.18 3.94625 17.69 3.47625 18.25C2.98625 18.81 2.58625 19.4 2.22625 20.01C1.49625 19.4 0.866251 18.7 0.296251 17.95C0.286251 18.01 0.276251 18.08 0.266251 18.14C0.826251 18.86 1.44625 19.54 2.15625 20.13C1.42625 21.4 0.936251 22.75 0.686251 24.14C0.486251 23.97 0.29625 23.79 0.10625 23.6C0.11625 23.67 0.12625 23.74 0.12625 23.8C0.30625 23.97 0.466251 24.15 0.656251 24.3C0.556251 24.87 0.506251 25.45 0.486251 26.02C0.526251 26.2 0.56625 26.38 0.60625 26.56C0.60625 25.84 0.656251 25.12 0.776251 24.4C1.88625 25.31 3.13625 26.03 4.48625 26.52C4.23625 27.96 4.23625 29.4 4.47625 30.79C3.37625 30.38 2.34625 29.81 1.40625 29.12C1.43625 29.2 1.46625 29.27 1.49625 29.35C2.42625 30.01 3.43625 30.55 4.50625 30.95C4.75625 32.35 5.24625 33.7 5.93625 34.94C5.28625 34.7 4.66625 34.39 4.06625 34.04C4.13625 34.13 4.19625 34.22 4.26625 34.31C4.83625 34.62 5.42625 34.9 6.03625 35.12C6.71625 36.29 7.57625 37.35 8.60625 38.26C8.21625 38.11 7.83625 37.92 7.46625 37.73C7.60625 37.85 7.74625 37.98 7.89625 38.1C8.22625 38.25 8.57625 38.39 8.91625 38.52C10.0262 39.45 11.3063 40.22 12.7463 40.74C14.1763 41.26 15.6663 41.51 17.1463 41.51C18.5063 42 19.9763 42.29 21.5063 42.29C23.0363 42.29 24.5063 42.01 25.8663 41.51C27.3463 41.51 28.8363 41.27 30.2663 40.74C31.6963 40.22 32.9862 39.46 34.1162 38.51C34.4562 38.39 34.7862 38.25 35.1162 38.1C35.2562 37.98 35.3962 37.86 35.5462 37.73C35.1662 37.96 34.8063 38.13 34.4263 38.28ZM37.3763 34.08C37.2263 34.41 37.0463 34.72 36.8763 35.04C36.5363 35.16 36.1962 35.28 35.8462 35.37C34.7962 35.65 33.7362 35.78 32.6662 35.79C33.3662 34.56 33.8562 33.2 34.1162 31.76C35.5762 31.75 37.0062 31.5 38.3363 31.03C38.1463 32.07 37.8363 33.1 37.3763 34.08ZM23.1363 21.22C23.8463 22.38 24.7363 23.42 25.7963 24.31C25.8563 24.67 25.9063 25.03 25.9463 25.39C26.0363 26.46 25.9863 27.52 25.8163 28.56C24.7363 27.63 23.8063 26.52 23.0963 25.29C23.3263 23.93 23.3363 22.56 23.1363 21.22ZM25.2663 18.98C26.3563 19.9 27.2863 20.98 28.0163 22.18C26.7063 21.68 25.4763 20.95 24.3863 20.03C23.8663 19.14 23.2463 18.32 22.5263 17.57C23.3763 18.16 24.2963 18.62 25.2663 18.98ZM21.9863 17C23.0663 17.45 24.0563 18.02 24.9363 18.71C23.8863 18.28 22.8963 17.7 21.9863 17ZM22.7463 17.17C23.7563 17.42 24.7663 17.53 25.7763 17.54C27.1363 18.03 28.3963 18.73 29.4963 19.63C28.0563 19.61 26.6463 19.33 25.3163 18.84C24.5463 18.2 23.6863 17.63 22.7463 17.17ZM22.0563 16.82C23.2163 16.87 24.3363 17.07 25.3963 17.41C24.2863 17.37 23.1663 17.17 22.0563 16.82ZM21.9763 16.44C22.8963 15.73 23.8863 15.16 24.9363 14.73C24.0463 15.43 23.0463 16 21.9763 16.44ZM24.0463 19.76C23.2163 19.01 22.4763 18.13 21.8563 17.15C22.7163 17.93 23.4463 18.8 24.0463 19.76ZM24.2563 20.11C24.9763 21.34 25.4863 22.68 25.7663 24.1C24.6763 23.16 23.7863 22.06 23.0863 20.83C22.9063 19.81 22.5963 18.82 22.1663 17.86C22.7763 18.71 23.4863 19.46 24.2563 20.11ZM25.9263 24.24C25.6863 22.88 25.2263 21.58 24.5763 20.39C25.6463 21.24 26.8463 21.9 28.1063 22.36C28.8263 23.6 29.3163 24.96 29.5863 26.38C28.6063 26.01 27.6663 25.53 26.7763 24.91C26.4863 24.69 26.2063 24.47 25.9263 24.24ZM28.3062 22.43C29.6462 22.9 31.0662 23.15 32.4962 23.16C33.2062 24.39 33.7162 25.75 33.9862 27.2C32.5362 27.19 31.1163 26.93 29.7563 26.44C29.4963 25.02 29.0062 23.67 28.3062 22.43ZM28.2063 22.25C27.5263 21.09 26.6763 20.02 25.6463 19.11C26.9263 19.54 28.2862 19.77 29.6662 19.77C30.7562 20.69 31.6762 21.78 32.4062 23.01C30.9662 23 29.5463 22.74 28.2063 22.25ZM26.2163 17.55C27.5863 17.51 28.9263 17.24 30.1963 16.79C31.5463 17.28 32.7962 18 33.9162 18.91C32.9262 19.26 31.8962 19.49 30.8262 19.59C30.4562 19.62 30.0763 19.63 29.7063 19.63C28.6563 18.77 27.4863 18.06 26.2163 17.55ZM25.7963 17.41C24.8463 17.07 23.8563 16.83 22.8263 16.72C23.8563 16.61 24.8463 16.37 25.7963 16.03C27.2363 16.02 28.6563 16.25 29.9963 16.72C28.6563 17.18 27.2363 17.41 25.7963 17.41ZM22.0563 16.62C23.1663 16.27 24.2863 16.07 25.4063 16.03C24.3363 16.38 23.2163 16.57 22.0563 16.62ZM25.7763 15.89C24.7763 15.9 23.7563 16.01 22.7463 16.26C23.6863 15.8 24.5563 15.23 25.3563 14.57C26.6763 14.09 28.0663 13.82 29.4963 13.79C28.3963 14.7 27.1363 15.41 25.7763 15.89ZM25.2763 14.45C24.3063 14.81 23.3763 15.28 22.5163 15.87C23.2463 15.12 23.8663 14.29 24.3763 13.41C25.4763 12.49 26.7063 11.76 28.0163 11.26C27.2963 12.48 26.3563 13.55 25.2763 14.45ZM21.8663 16.29C22.4863 15.31 23.2263 14.43 24.0463 13.69C23.4563 14.63 22.7163 15.5 21.8663 16.29ZM21.6863 16.2C21.9363 15.07 22.3263 13.99 22.8563 12.99C22.6263 14.09 22.2263 15.16 21.6863 16.2ZM22.8563 20.45C22.3263 19.45 21.9363 18.37 21.6863 17.23C22.2263 18.26 22.6263 19.34 22.8563 20.45ZM21.7263 18.02C22.0163 19.03 22.4263 19.99 22.9363 20.89C23.1863 22.27 23.2063 23.69 22.9863 25.1C22.2963 23.87 21.8263 22.52 21.5763 21.11C21.7463 20.1 21.8063 19.06 21.7263 18.02ZM22.9463 25.3C22.8863 25.67 22.8063 26.03 22.7063 26.39C22.4263 27.43 22.0063 28.41 21.4963 29.33C20.9863 28.41 20.5663 27.43 20.2863 26.39C20.1963 26.04 20.1163 25.68 20.0563 25.32C20.7463 24.12 21.2263 22.84 21.4963 21.5C21.7763 22.85 22.2763 24.13 22.9463 25.3ZM21.5063 20.68C21.3563 19.57 21.3563 18.43 21.5063 17.28C21.6563 18.43 21.6563 19.57 21.5063 20.68ZM21.4263 21.07C21.1863 22.5 20.7063 23.86 20.0163 25.1C19.7863 23.69 19.8163 22.27 20.0563 20.89C20.5663 19.99 20.9763 19.04 21.2663 18.03C21.1963 19.06 21.2663 20.08 21.4263 21.07ZM18.9563 19.76C19.5463 18.81 20.2863 17.94 21.1463 17.15C20.5263 18.12 19.7963 19 18.9563 19.76ZM20.8363 17.87C20.4063 18.82 20.1163 19.81 19.9363 20.81C19.2363 22.04 18.3363 23.15 17.2463 24.1C17.5163 22.72 18.0163 21.38 18.7363 20.14C19.5263 19.47 20.2263 18.71 20.8363 17.87ZM18.0763 18.7C18.9563 18.01 19.9463 17.45 21.0163 17C20.0963 17.71 19.1063 18.28 18.0763 18.7ZM18.0563 14.73C19.1063 15.16 20.0963 15.73 21.0163 16.44C19.9463 16 18.9563 15.43 18.0563 14.73ZM17.5963 16.03C18.7263 16.07 19.8563 16.27 20.9563 16.62C19.7863 16.57 18.6563 16.37 17.5963 16.03ZM20.2563 17.17C19.3163 17.62 18.4763 18.19 17.6963 18.83C16.3463 19.33 14.9363 19.6 13.5163 19.62C14.6063 18.74 15.8463 18.04 17.1963 17.55C18.2163 17.55 19.2463 17.43 20.2563 17.17ZM17.5963 17.41C18.6663 17.06 19.7863 16.87 20.9563 16.82C19.8563 17.17 18.7263 17.37 17.5963 17.41ZM17.7663 18.96C18.7063 18.61 19.6163 18.16 20.4763 17.58C19.7463 18.33 19.1463 19.16 18.6363 20.03C17.5563 20.95 16.3263 21.69 14.9863 22.2C15.7163 20.98 16.6563 19.88 17.7663 18.96ZM18.4263 20.39C17.7763 21.6 17.3363 22.89 17.0963 24.22C16.8163 24.46 16.5163 24.69 16.2163 24.91C15.3363 25.53 14.3863 26.01 13.4063 26.38C13.6763 24.97 14.1663 23.62 14.8763 22.39C16.1663 21.91 17.3663 21.23 18.4263 20.39ZM17.2063 24.31C18.2663 23.42 19.1463 22.38 19.8563 21.22C19.6563 22.57 19.6863 23.94 19.9163 25.27C19.2063 26.51 18.2763 27.62 17.1863 28.56C16.9663 27.14 16.9663 25.71 17.2063 24.31ZM20.1463 20.45C20.3863 19.34 20.7763 18.26 21.3163 17.23C21.0663 18.37 20.6763 19.45 20.1463 20.45ZM20.1463 12.99C20.6763 13.99 21.0663 15.07 21.3163 16.21C20.7763 15.17 20.3763 14.1 20.1463 12.99ZM18.9563 13.69C19.7863 14.44 20.5163 15.31 21.1363 16.29C20.2863 15.51 19.5463 14.63 18.9563 13.69ZM20.4863 15.87C19.6163 15.28 18.6963 14.81 17.7263 14.46C16.6463 13.56 15.7163 12.49 14.9863 11.26C16.3163 11.77 17.5563 12.5 18.6563 13.44C19.1563 14.3 19.7563 15.12 20.4863 15.87ZM20.2563 16.27C19.2463 16.01 18.2163 15.89 17.1863 15.88C15.8363 15.39 14.5863 14.69 13.4963 13.8C14.9263 13.82 16.3163 14.09 17.6363 14.58C18.4363 15.24 19.3163 15.81 20.2563 16.27ZM20.1663 16.72C19.1263 16.83 18.1263 17.07 17.1763 17.41C15.7563 17.42 14.3363 17.19 12.9663 16.72C14.3363 16.24 15.7563 16.02 17.1763 16.03C18.1363 16.37 19.1363 16.61 20.1663 16.72ZM16.7863 17.55C15.5163 18.05 14.3463 18.76 13.3063 19.63C11.8763 19.63 10.4463 19.38 9.08625 18.91C9.89625 18.25 10.7863 17.67 11.7663 17.21C12.0963 17.06 12.4363 16.92 12.7763 16.8C14.0763 17.27 15.4263 17.52 16.7863 17.55ZM13.3563 19.76C14.7063 19.75 16.0563 19.55 17.3563 19.11C16.3263 20.02 15.4763 21.09 14.7963 22.26C14.4463 22.39 14.0963 22.5 13.7363 22.6C12.6963 22.88 11.6463 23.01 10.5963 23.02C11.3263 21.79 12.2563 20.68 13.3563 19.76ZM13.7663 22.74C14.0763 22.66 14.3863 22.56 14.6863 22.45C13.9963 23.69 13.5063 25.03 13.2463 26.44C11.8863 26.93 10.4663 27.19 9.01625 27.2C9.28625 25.75 9.78625 24.4 10.5063 23.17C11.5963 23.16 12.6863 23.02 13.7663 22.74ZM13.3763 26.54C14.3963 26.16 15.3763 25.66 16.2963 25.02C16.5663 24.83 16.8163 24.64 17.0663 24.43C16.8363 25.83 16.8363 27.26 17.0763 28.66C15.9863 29.57 14.7363 30.31 13.3663 30.83C13.1063 29.38 13.1263 27.93 13.3763 26.54ZM17.0963 28.83C17.3563 30.22 17.8263 31.59 18.5563 32.86C18.0063 33.32 17.4163 33.74 16.7863 34.1C16.1563 34.46 15.4963 34.76 14.8363 35C14.4863 34.38 14.1763 33.74 13.9263 33.06C13.6763 32.37 13.5063 31.67 13.3763 30.97C14.7363 30.47 15.9963 29.75 17.0963 28.83ZM17.2163 28.72C18.0463 28.02 18.7963 27.21 19.4363 26.3C19.6263 26.03 19.7963 25.76 19.9563 25.49C20.2163 26.88 20.7163 28.23 21.4163 29.47C20.6963 30.72 19.7663 31.83 18.6663 32.77C17.9463 31.49 17.4663 30.12 17.2163 28.72ZM21.5063 29.6C22.2263 30.82 23.1363 31.94 24.2563 32.89C23.8963 33.51 23.4863 34.1 23.0163 34.66C22.5563 35.22 22.0363 35.72 21.4963 36.18C20.9563 35.72 20.4363 35.22 19.9763 34.66C19.5063 34.1 19.1063 33.5 18.7463 32.88C19.8563 31.95 20.7763 30.85 21.5063 29.6ZM21.5763 29.47C22.1163 28.52 22.5463 27.51 22.8363 26.43C22.9163 26.12 22.9863 25.8 23.0463 25.49C23.7663 26.71 24.6963 27.81 25.7763 28.73C25.5263 30.15 25.0363 31.52 24.3163 32.78C23.2263 31.83 22.3063 30.72 21.5763 29.47ZM25.9162 28.82C27.0062 29.72 28.2463 30.46 29.6263 30.97C29.4963 31.67 29.3262 32.37 29.0762 33.06C28.8262 33.74 28.5162 34.39 28.1662 35C27.4962 34.75 26.8463 34.46 26.2163 34.1C25.5863 33.74 24.9963 33.31 24.4463 32.86C25.1563 31.6 25.6562 30.24 25.9162 28.82ZM25.9363 28.67C26.1163 27.6 26.1762 26.5 26.0762 25.38C26.0462 25.06 26.0063 24.75 25.9563 24.44C26.1963 24.64 26.4463 24.83 26.7063 25.02C27.6263 25.66 28.6063 26.16 29.6263 26.54C29.8763 27.94 29.8862 29.39 29.6462 30.83C28.2762 30.32 27.0263 29.58 25.9363 28.67ZM29.7763 26.59C31.1263 27.07 32.5562 27.33 33.9962 27.33C34.1162 28.03 34.1963 28.75 34.1963 29.48C34.1963 30.21 34.1262 30.92 34.0062 31.61C33.2962 31.61 32.5863 31.56 31.8663 31.43C31.1463 31.3 30.4463 31.1 29.7763 30.86C30.0363 29.43 30.0163 27.99 29.7763 26.59ZM32.6462 23.16C34.0662 23.15 35.4963 22.92 36.8763 22.42C37.2263 23.04 37.5462 23.68 37.7962 24.37C38.0462 25.05 38.2162 25.74 38.3462 26.44C37.6762 26.68 36.9962 26.88 36.2762 27C35.5562 27.13 34.8363 27.18 34.1263 27.18C33.8663 25.75 33.3562 24.39 32.6462 23.16ZM32.5762 23.02C31.8562 21.79 30.9363 20.69 29.8663 19.77C30.1863 19.77 30.5063 19.75 30.8363 19.73C31.9463 19.63 33.0262 19.38 34.0462 19.02C35.1362 19.93 36.0762 21.03 36.8162 22.3C35.4262 22.78 33.9962 23.02 32.5762 23.02ZM30.3863 16.72C31.7163 16.22 32.9662 15.5 34.0762 14.58C35.4362 15.07 36.6962 15.79 37.8062 16.72C36.6862 17.65 35.4262 18.36 34.0762 18.86C32.9562 17.94 31.7163 17.22 30.3863 16.72ZM30.1963 16.65C28.9263 16.19 27.5863 15.93 26.2163 15.89C27.4963 15.38 28.6663 14.67 29.6963 13.81C30.0663 13.81 30.4363 13.82 30.8163 13.85C31.8863 13.94 32.9262 14.18 33.9062 14.53C32.7962 15.44 31.5363 16.16 30.1963 16.65ZM29.6662 13.66C28.2862 13.66 26.9363 13.89 25.6563 14.32C26.6663 13.42 27.5362 12.37 28.2362 11.17C29.5762 10.69 30.9862 10.44 32.4162 10.42C31.6762 11.65 30.7562 12.75 29.6662 13.66ZM28.1263 11.08C26.8563 11.55 25.6563 12.2 24.5863 13.05C25.2363 11.86 25.6963 10.56 25.9363 9.2C26.2163 8.97 26.4963 8.74 26.7963 8.53C27.6763 7.91 28.6263 7.43 29.6063 7.06C29.4063 8.09 29.0962 9.11 28.6462 10.09C28.4862 10.43 28.3063 10.76 28.1263 11.08ZM24.2463 13.34C23.4763 13.99 22.7763 14.73 22.1663 15.57C22.5963 14.61 22.8963 13.62 23.0863 12.6C23.7863 11.38 24.6763 10.28 25.7563 9.34C25.4863 10.74 24.9763 12.09 24.2463 13.34ZM22.9263 12.6C22.4263 13.47 22.0163 14.41 21.7363 15.41C21.8163 14.36 21.7563 13.32 21.5763 12.31C21.8163 10.92 22.2763 9.58 22.9763 8.33C23.1963 9.74 23.1763 11.18 22.9263 12.6ZM21.5063 16.17C21.3563 15.02 21.3463 13.87 21.5063 12.75C21.6563 13.87 21.6563 15.02 21.5063 16.17ZM21.2763 15.41C20.9863 14.4 20.5763 13.46 20.0763 12.59C19.8263 11.19 19.7963 9.75 20.0263 8.32C20.7263 9.57 21.1863 10.92 21.4363 12.31C21.2563 13.33 21.1963 14.37 21.2763 15.41ZM19.9263 12.6C20.1063 13.62 20.4163 14.61 20.8363 15.57C20.2263 14.73 19.5163 13.99 18.7563 13.34C18.0263 12.09 17.5163 10.74 17.2463 9.35C18.3263 10.28 19.2263 11.39 19.9263 12.6ZM18.4263 13.05C17.3463 12.2 16.1463 11.54 14.8763 11.07C14.6963 10.75 14.5163 10.42 14.3563 10.08C13.8963 9.1 13.5863 8.09 13.3963 7.05C14.3763 7.42 15.3263 7.9 16.2063 8.52C16.5163 8.74 16.8063 8.97 17.0863 9.21C17.3363 10.55 17.7763 11.85 18.4263 13.05ZM17.3463 14.32C16.0663 13.89 14.7163 13.66 13.3363 13.66C12.2463 12.74 11.3263 11.65 10.5963 10.42C12.0263 10.44 13.4363 10.69 14.7763 11.17C15.4663 12.37 16.3363 13.43 17.3463 14.32ZM16.7863 15.89C15.4263 15.93 14.0763 16.17 12.7763 16.65C12.4363 16.53 12.0963 16.39 11.7663 16.24C10.7863 15.78 9.89625 15.2 9.08625 14.54C10.0763 14.19 11.1163 13.95 12.1863 13.86C12.5563 13.83 12.9363 13.82 13.3063 13.82C14.3463 14.67 15.5063 15.38 16.7863 15.89ZM11.7063 16.36C11.9963 16.49 12.2863 16.61 12.5763 16.72C12.2863 16.83 11.9863 16.95 11.6963 17.08C10.6863 17.55 9.76625 18.15 8.92625 18.85C7.59625 18.36 6.32625 17.65 5.19625 16.72C6.30625 15.8 7.56625 15.08 8.91625 14.59C9.76625 15.28 10.6963 15.88 11.7063 16.36ZM8.95625 19.01C10.3063 19.49 11.7263 19.74 13.1563 19.76C12.0763 20.69 11.1463 21.79 10.4263 23.03C8.98625 23.03 7.55625 22.79 6.18625 22.3C6.91625 21.04 7.85625 19.94 8.95625 19.01ZM10.3463 23.17C9.64625 24.4 9.13625 25.75 8.87625 27.2C8.15625 27.2 7.43625 27.14 6.72625 27.02C6.00625 26.89 5.31625 26.7 4.65625 26.46C4.78625 25.77 4.95625 25.07 5.20625 24.39C5.45625 23.7 5.76625 23.05 6.12625 22.43C7.48625 22.91 8.90625 23.16 10.3463 23.17ZM8.99625 27.33C10.4462 27.33 11.8663 27.07 13.2163 26.59C12.9763 27.99 12.9663 29.43 13.2063 30.87C12.5363 31.11 11.8463 31.31 11.1163 31.44C10.3963 31.57 9.68625 31.62 8.97625 31.62C8.85625 30.92 8.78625 30.21 8.78625 29.49C8.80625 28.75 8.87625 28.04 8.99625 27.33ZM11.1563 31.58C11.8763 31.45 12.5663 31.26 13.2463 31.02C13.3763 31.72 13.5563 32.42 13.8063 33.11C14.0563 33.79 14.3663 34.44 14.7163 35.05C13.3363 35.54 11.9063 35.78 10.4963 35.79C9.78625 34.56 9.28625 33.2 9.02625 31.76C9.72625 31.76 10.4363 31.71 11.1563 31.58ZM14.7763 35.17C15.4963 36.42 16.4263 37.53 17.5163 38.46C16.5163 38.81 15.4763 39.05 14.3963 39.15C14.0363 39.18 13.6763 39.19 13.3263 39.19C12.2363 38.27 11.3063 37.16 10.5763 35.93C11.9863 35.92 13.4063 35.67 14.7763 35.17ZM14.9063 35.13C15.5663 34.88 16.2263 34.59 16.8563 34.23C17.4863 33.86 18.0763 33.44 18.6263 32.98C18.9863 33.6 19.3963 34.19 19.8663 34.76C20.3363 35.32 20.8463 35.82 21.3863 36.28C20.2763 37.21 19.0163 37.93 17.6663 38.42C16.5763 37.48 15.6363 36.38 14.9063 35.13ZM21.5063 36.36C22.6163 37.29 23.8563 38.01 25.2063 38.51C24.3863 39.18 23.4863 39.76 22.5063 40.22C22.1763 40.37 21.8463 40.5 21.5063 40.63C21.1663 40.51 20.8363 40.37 20.5063 40.22C19.5263 39.76 18.6263 39.18 17.8063 38.51C19.1463 38.01 20.3963 37.29 21.5063 36.36ZM21.6063 36.27C22.1463 35.81 22.6663 35.31 23.1263 34.75C23.5963 34.19 24.0063 33.59 24.3663 32.97C24.9163 33.43 25.5063 33.85 26.1363 34.22C26.7663 34.59 27.4263 34.88 28.0863 35.12C27.3563 36.37 26.4263 37.48 25.3163 38.41C23.9763 37.92 22.7163 37.2 21.6063 36.27ZM28.2263 35.17C29.5963 35.66 31.0163 35.91 32.4263 35.93C31.6963 37.17 30.7663 38.27 29.6763 39.19C29.3163 39.19 28.9663 39.18 28.6063 39.15C27.5263 39.06 26.4863 38.81 25.4863 38.46C26.5763 37.53 27.4963 36.43 28.2263 35.17ZM28.2863 35.06C28.6363 34.44 28.9463 33.79 29.1963 33.11C29.4463 32.42 29.6263 31.72 29.7563 31.02C30.4263 31.26 31.1263 31.46 31.8463 31.58C32.5663 31.71 33.2762 31.76 33.9862 31.76C33.7262 33.21 33.2162 34.56 32.5062 35.79C31.0662 35.79 29.6463 35.55 28.2863 35.06ZM38.3763 30.87C37.0363 31.35 35.6162 31.62 34.1462 31.62C34.2662 30.92 34.3363 30.21 34.3363 29.48C34.3363 28.74 34.2662 28.02 34.1462 27.32C34.8662 27.31 35.5862 27.26 36.3062 27.13C37.0262 27 37.7162 26.8 38.3862 26.57C38.6262 28.01 38.6163 29.45 38.3763 30.87ZM42.1963 24.25C41.1063 25.16 39.8562 25.9 38.4762 26.4C38.3462 25.7 38.1763 25.01 37.9263 24.33C37.6763 23.64 37.3662 22.99 37.0062 22.37C37.6762 22.12 38.3363 21.83 38.9663 21.46C39.5963 21.09 40.1762 20.67 40.7262 20.22C41.4562 21.47 41.9463 22.83 42.1963 24.25ZM39.4362 18.34C39.9062 18.89 40.3062 19.49 40.6662 20.1C40.1262 20.55 39.5462 20.97 38.9162 21.34C38.2762 21.71 37.6162 22 36.9562 22.25C36.2162 20.99 35.2763 19.89 34.1963 18.97C35.5463 18.47 36.7962 17.75 37.9062 16.82C38.4462 17.28 38.9662 17.78 39.4362 18.34ZM36.9463 11.2C37.6163 11.45 38.2762 11.74 38.9062 12.11C39.5362 12.47 40.1162 12.89 40.6562 13.34C40.2962 13.95 39.8963 14.54 39.4263 15.1C38.9563 15.66 38.4362 16.16 37.8962 16.63C36.7862 15.7 35.5262 14.98 34.1862 14.48C35.2662 13.56 36.2063 12.46 36.9463 11.2ZM36.8062 11.15C36.0662 12.42 35.1263 13.52 34.0363 14.43C33.0163 14.06 31.9362 13.81 30.8262 13.72C30.5062 13.69 30.1863 13.68 29.8563 13.68C30.9263 12.76 31.8462 11.66 32.5662 10.43C33.9962 10.42 35.4262 10.65 36.8062 11.15ZM33.9762 6.24C33.7162 7.69 33.1962 9.05 32.4862 10.28C31.0662 10.29 29.6563 10.54 28.3163 11C28.4763 10.72 28.6263 10.44 28.7563 10.14C29.2263 9.13 29.5463 8.07 29.7463 7C31.1063 6.51 32.5362 6.25 33.9762 6.24ZM29.6462 2.6C29.8862 4.03 29.8863 5.48 29.6263 6.9C28.2863 7.4 27.0463 8.11 25.9463 9.01C25.9963 8.69 26.0463 8.37 26.0663 8.05C26.1663 6.93 26.1062 5.83 25.9162 4.76C27.0362 3.84 28.2862 3.11 29.6462 2.6ZM25.7863 9.16C24.7563 10.03 23.8563 11.06 23.1363 12.22C23.3363 10.88 23.3263 9.5 23.0863 8.14C23.2663 7.83 23.4563 7.52 23.6663 7.22C24.2863 6.34 25.0063 5.56 25.7963 4.88C26.0363 6.3 26.0363 7.75 25.7863 9.16ZM24.3263 0.669999C25.0563 1.95 25.5363 3.31 25.7763 4.71C24.9463 5.42 24.1963 6.22 23.5563 7.13C23.3763 7.39 23.2063 7.66 23.0463 7.93C22.9863 7.62 22.9263 7.31 22.8363 7.01C22.5463 5.93 22.1163 4.91 21.5763 3.97C22.2963 2.72 23.2263 1.61 24.3263 0.669999ZM22.9363 8.12C22.2463 9.32 21.7663 10.6 21.4963 11.93C21.2263 10.6 20.7463 9.31 20.0563 8.12C20.1163 7.76 20.1963 7.41 20.2863 7.05C20.5663 6.01 20.9763 5.03 21.4863 4.12C22.1963 5.37 22.6863 6.72 22.9363 8.12ZM18.6763 0.679999C19.7963 1.63 20.7163 2.75 21.4263 3.98C20.8863 4.93 20.4563 5.94 20.1663 7.02C20.0863 7.33 20.0163 7.64 19.9563 7.95C19.7963 7.68 19.6263 7.41 19.4463 7.15C18.8063 6.23 18.0563 5.43 17.2263 4.73C17.4663 3.32 17.9463 1.95 18.6763 0.679999ZM17.1963 4.88C17.9863 5.56 18.7163 6.34 19.3263 7.22C19.5363 7.52 19.7263 7.83 19.9063 8.14C19.6663 9.5 19.6563 10.87 19.8563 12.22C19.1363 11.05 18.2363 10.03 17.2063 9.16C16.9663 7.75 16.9663 6.3 17.1963 4.88ZM13.3563 2.6C14.7163 3.1 15.9663 3.84 17.0763 4.76C16.8363 6.17 16.8363 7.61 17.0663 9.02C15.9663 8.12 14.7163 7.4 13.3763 6.9C13.1163 5.49 13.1063 4.04 13.3563 2.6ZM9.01625 6.24C10.4663 6.25 11.8863 6.51 13.2463 7C13.4463 8.07 13.7663 9.13 14.2363 10.14C14.3763 10.43 14.5263 10.72 14.6763 11C13.3363 10.53 11.9263 10.29 10.5063 10.28C9.79625 9.05 9.28625 7.69 9.01625 6.24ZM10.4263 10.42C11.1463 11.65 12.0663 12.75 13.1363 13.67C12.8163 13.67 12.4963 13.69 12.1663 13.71C11.0463 13.81 9.97625 14.06 8.94625 14.42C7.84625 13.49 6.90625 12.39 6.17625 11.14C7.57625 10.66 9.00625 10.42 10.4263 10.42ZM3.56625 15.1C3.09625 14.54 2.69625 13.95 2.34625 13.34C2.88625 12.89 3.46625 12.47 4.09625 12.1C4.73625 11.73 5.39625 11.44 6.05625 11.19C6.78625 12.44 7.70625 13.54 8.80625 14.47C7.45625 14.97 6.21625 15.69 5.10625 16.61C4.55625 16.16 4.03625 15.67 3.56625 15.1ZM3.56625 18.34C4.03625 17.78 4.55625 17.28 5.09625 16.82C6.22625 17.76 7.48625 18.47 8.80625 18.96C7.70625 19.89 6.77625 21 6.04625 22.25C5.37625 22 4.71625 21.71 4.08625 21.34C3.46625 20.97 2.88625 20.55 2.33625 20.1C2.69625 19.49 3.09625 18.9 3.56625 18.34ZM0.806251 24.25C1.05625 22.86 1.53625 21.49 2.26625 20.22C2.81625 20.67 3.39625 21.09 4.02625 21.45C4.65625 21.82 5.31625 22.11 5.98625 22.36C5.63625 22.98 5.31625 23.63 5.06625 24.32C4.81625 25.01 4.64625 25.7 4.51625 26.4C3.14625 25.89 1.89625 25.16 0.806251 24.25ZM4.62625 26.59C5.29625 26.83 5.98625 27.02 6.69625 27.15C7.41625 27.28 8.13625 27.33 8.85625 27.34C8.73625 28.04 8.66625 28.76 8.66625 29.5C8.66625 30.23 8.74625 30.94 8.85625 31.64C7.38625 31.63 5.96625 31.37 4.63625 30.89C4.38625 29.48 4.37625 28.03 4.62625 26.59ZM4.66625 31.04C5.99625 31.51 7.41625 31.76 8.87625 31.77C9.13625 33.21 9.62625 34.56 10.3263 35.79C8.89625 35.77 7.47625 35.52 6.12625 35.04C5.42625 33.8 4.92625 32.44 4.66625 31.04ZM6.23625 35.21C7.57625 35.68 8.98625 35.92 10.4163 35.92C11.1363 37.16 12.0563 38.26 13.1363 39.19C11.7063 39.17 10.3163 38.91 8.98625 38.43C7.88625 37.51 6.95625 36.43 6.23625 35.21ZM12.7863 40.65C11.4863 40.18 10.3163 39.51 9.28625 38.7C10.5663 39.12 11.9063 39.33 13.2663 39.33C14.2963 40.2 15.4763 40.9 16.7463 41.4C15.4163 41.37 14.0863 41.12 12.7863 40.65ZM13.4863 39.33C13.7963 39.32 14.1063 39.32 14.4163 39.29C15.5363 39.19 16.6163 38.94 17.6563 38.57C18.4963 39.27 19.4263 39.88 20.4463 40.36C20.7363 40.49 21.0263 40.6 21.3163 40.72C19.9663 41.19 18.5663 41.42 17.1663 41.42C15.8163 40.92 14.5763 40.22 13.4863 39.33ZM21.4963 42.19C20.1163 42.19 18.7863 41.96 17.5463 41.55C18.8863 41.51 20.2163 41.25 21.4963 40.79C22.7763 41.26 24.1063 41.51 25.4463 41.55C24.2063 41.96 22.8763 42.19 21.4963 42.19ZM25.8363 41.41C24.4363 41.41 23.0363 41.18 21.6863 40.71C21.9763 40.6 22.2763 40.49 22.5563 40.35C23.5763 39.87 24.5063 39.27 25.3463 38.56C26.3763 38.93 27.4563 39.18 28.5863 39.28C28.8963 39.31 29.2063 39.31 29.5163 39.32C28.4263 40.22 27.1763 40.92 25.8363 41.41ZM30.2063 40.65C28.9163 41.12 27.5762 41.36 26.2362 41.41C27.5062 40.9 28.6863 40.2 29.7163 39.34C31.0863 39.34 32.4262 39.12 33.7062 38.7C32.6662 39.52 31.4963 40.18 30.2063 40.65ZM34.0363 38.43C32.7063 38.91 31.3063 39.18 29.8763 39.2C30.9563 38.27 31.8762 37.16 32.5962 35.93C34.0262 35.92 35.4463 35.68 36.7863 35.21C36.0563 36.44 35.1163 37.52 34.0363 38.43Z" fill="var(--fill-0, #FFED00)"/>
<path id="Vector_7" d="M27.4263 15.15C27.4263 17.67 25.3863 19.71 22.8663 19.71C20.3463 19.71 18.3063 17.67 18.3063 15.15C18.3063 12.63 20.3463 10.59 22.8663 10.59C25.3863 10.59 27.4263 12.64 27.4263 15.15Z" fill="var(--fill-0, white)"/>
<g id="Group_3">
<path id="Vector_8" d="M21.5663 17.7C21.5663 17.74 21.5562 17.79 21.4762 17.79H21.0562C20.9762 17.79 20.9662 17.75 20.9662 17.7V13.32H19.8862C19.8062 13.32 19.7962 13.28 19.7962 13.23V12.9C19.7962 12.86 19.8062 12.81 19.8862 12.81H22.7463C22.8663 12.81 22.8263 12.9 22.8163 12.92L22.6962 13.24C22.6862 13.28 22.6563 13.32 22.5763 13.32H21.5562V17.7H21.5663Z" fill="var(--fill-0, black)"/>
<path id="Vector_9" d="M25.2962 17.31C25.3762 17.31 25.3862 17.35 25.3862 17.4V17.7C25.3862 17.74 25.3762 17.79 25.2962 17.79H23.3762C23.3362 17.79 23.2862 17.78 23.2862 17.7V17.4C23.2862 17.32 23.3262 17.31 23.3762 17.31H24.0362V13.28H23.3762C23.2962 13.28 23.2862 13.24 23.2862 13.19V12.89C23.2862 12.85 23.2962 12.8 23.3762 12.8H25.2962C25.3762 12.8 25.3862 12.84 25.3862 12.89V13.19C25.3862 13.23 25.3762 13.28 25.2962 13.28H24.6362V17.31H25.2962Z" fill="var(--fill-0, black)"/>
</g>
</g>
<defs>
<radialGradient id="paint0_radial_0_77" cx="0" cy="0" r="1" gradientUnits="userSpaceOnUse" gradientTransform="translate(35.3878 35.3837) rotate(-45) scale(40.6118)">
<stop stop-color="white"/>
<stop offset="0.0337" stop-color="#FFFFFC"/>
<stop offset="0.073" stop-color="#FFFEF2"/>
<stop offset="0.115" stop-color="#FFFCE2"/>
<stop offset="0.159" stop-color="#FFF9C9"/>
<stop offset="0.2045" stop-color="#FFF6A5"/>
<stop offset="0.2513" stop-color="#FFF270"/>
<stop offset="0.2983" stop-color="#FFEE06"/>
<stop offset="0.3174" stop-color="#FFED00"/>
<stop offset="0.7844" stop-color="#EF7900"/>
<stop offset="1" stop-color="#FFDA00"/>
</radialGradient>
<radialGradient id="paint1_radial_0_77" cx="0" cy="0" r="1" gradientUnits="userSpaceOnUse" gradientTransform="translate(19.1912 11.0511) scale(29.0356 29.0356)">
<stop stop-color="white"/>
<stop offset="1" stop-color="#FFED00"/>
</radialGradient>
<linearGradient id="paint2_linear_0_77" x1="21.963" y1="21.9594" x2="6.76284" y2="6.75918" gradientUnits="userSpaceOnUse">
<stop stop-color="white" stop-opacity="0"/>
<stop offset="1" stop-color="white" stop-opacity="0.78"/>
</linearGradient>
</defs>
</svg>
