<svg preserveAspectRatio="none" width="100%" height="100%" overflow="visible" style="display: block;" viewBox="0 0 19.5 13.5" fill="none" xmlns="http://www.w3.org/2000/svg">
<g id="Group">
<path id="Vector" fill-rule="evenodd" clip-rule="evenodd" d="M0 0.75C0 0.336 0.336 0 0.75 0H18.75C18.9489 0 19.1397 0.0790176 19.2803 0.21967C19.421 0.360322 19.5 0.551088 19.5 0.75C19.5 0.948912 19.421 1.13968 19.2803 1.28033C19.1397 1.42098 18.9489 1.5 18.75 1.5H0.75C0.336 1.5 0 1.164 0 0.75ZM0 12.75C0 12.336 0.336 12 0.75 12H18.75C18.9489 12 19.1397 12.079 19.2803 12.2197C19.421 12.3603 19.5 12.5511 19.5 12.75C19.5 12.9489 19.421 13.1397 19.2803 13.2803C19.1397 13.421 18.9489 13.5 18.75 13.5H0.75C0.336 13.5 0 13.164 0 12.75ZM0.000200272 6.75C0.000200272 6.336 0.3362 6 0.7502 6H18.75C18.9489 6 19.1397 6.07902 19.2803 6.21967C19.421 6.36032 19.5 6.55109 19.5 6.75C19.5 6.94891 19.421 7.13968 19.2803 7.28033C19.1397 7.42098 18.9489 7.5 18.75 7.5H0.7502C0.3362 7.5 0.000200272 7.164 0.000200272 6.75Z" fill="var(--fill-0, #1B1A1A)"/>
</g>
</svg>
