<svg preserveAspectRatio="none" width="100%" height="100%" overflow="visible" style="display: block;" viewBox="0 0 42.9889 42.9925" fill="none" xmlns="http://www.w3.org/2000/svg">
<g id="Group">
<path id="Vector" d="M36.6964 6.3C45.0864 14.69 45.0864 28.31 36.6964 36.7C28.2964 45.09 14.6864 45.09 6.29636 36.7C-2.09364 28.3 -2.10364 14.69 6.29636 6.3C14.6964 -2.1 28.3064 -2.1 36.6964 6.3Z" fill="url(#paint0_radial_0_41)"/>
<path id="Vector_2" d="M39.2564 33.25C39.2064 33.27 39.2464 33.26 39.3364 33.25C39.2564 33.22 39.2164 33.21 39.2564 33.25ZM39.4764 33.28C39.4864 33.26 39.5064 33.24 39.5164 33.22C39.4564 33.23 39.3864 33.24 39.3364 33.24C39.3764 33.26 39.4264 33.27 39.4764 33.28ZM42.7164 24.93C42.6664 24.93 42.6164 24.94 42.5664 24.94C42.0164 24.72 40.4264 24.24 38.5264 24.08C36.5664 20.6 32.6464 17.4 27.8364 15.98C26.6764 15.64 25.5464 15.37 24.4264 15.13C24.4664 15.03 24.5064 14.93 24.5364 14.83C27.5364 13.24 30.2664 11.81 32.1264 9.97C34.6764 7.98 34.8664 5.79 34.7064 4.56C34.6664 4.53 34.6264 4.49 34.5764 4.46C34.6264 5.61 34.3064 7.7 31.6464 9.42C30.0164 10.8 27.7364 11.89 25.1764 13.1C26.0564 10.56 26.5864 8.17 26.2664 5.98C26.0764 3.62 25.4764 1.7 24.5464 0.69C24.2864 0.43 24.0264 0.25 23.7964 0.13C23.6964 0.12 23.5964 0.11 23.4964 0.0999995C23.7664 0.24 24.0664 0.46 24.3664 0.83C25.1264 1.85 25.5264 3.73 25.5264 6C25.6964 8.42 24.8064 11 23.5764 13.86C23.3964 13.95 23.2164 14.03 23.0264 14.12C20.7464 11.88 18.3964 10.12 16.2264 8.78C16.9964 7.38 17.5364 6.02 17.7664 4.79C18.3264 2.25 17.0264 0.919999 16.9464 0.809999C16.9464 0.869999 17.9464 2.33 17.0664 4.61C16.6964 5.7 16.0364 6.9 15.1864 8.17C10.6364 5.57 7.12636 4.91 7.12636 5.59C7.23636 4.94 10.4764 6.01 14.6964 8.87C13.8564 10.05 12.8664 11.27 11.7664 12.48C11.7364 12.52 11.6964 12.56 11.6564 12.6C11.2664 12.47 10.8864 12.33 10.5264 12.17C6.38636 10.65 4.61636 8.39 4.60636 8.2C4.62636 8.43 6.13636 10.94 10.2464 12.84C10.5164 12.98 10.7864 13.12 11.0764 13.24C6.22636 18.33 0.396362 19.61 0.436362 19.52C0.226362 19.64 7.11636 19.63 12.5264 13.81C14.7264 14.58 17.3164 15.1 20.0864 15.66C18.9564 16.29 17.8264 16.98 16.7064 17.77C11.4964 21.31 8.41636 26.64 7.78636 30.99C7.08636 30.8 6.42636 30.57 5.83636 30.29C2.29636 28.66 1.22636 26.1 1.05636 25.91C1.19636 26.13 1.90636 28.86 5.49636 30.94C6.14636 31.33 6.87636 31.65 7.68636 31.92C7.67636 32.03 7.66636 32.14 7.66636 32.25C7.37636 36.64 9.52636 38.78 9.66636 39.01C9.56636 38.78 7.75636 36.45 8.39636 32.32C8.40636 32.26 8.41636 32.2 8.42636 32.13C11.6464 33.01 15.7864 32.95 19.8164 31.53C20.2564 32.72 20.8564 33.81 21.5764 34.75C16.0064 37.35 12.9964 41.14 13.5864 41.41C13.1464 40.99 16.7064 37.99 22.4864 35.8C23.8464 37.17 25.4664 38.05 27.1064 38.17C28.9064 38.54 30.4364 38.61 31.6364 38.57C31.5264 39.54 31.3364 40.27 31.1464 40.71C31.1964 40.68 31.2464 40.66 31.3064 40.63C31.5464 40.17 31.7864 39.47 31.9864 38.55C33.7164 38.45 34.6864 38.13 34.6764 38.23C34.6964 38.14 33.7164 38.32 32.0464 38.25C32.3164 36.89 32.4764 35.13 32.3864 33.12C34.0764 32.82 35.6164 32.67 36.9164 32.7C37.5964 32.69 38.1764 32.76 38.6964 32.87C38.1964 34.37 37.5164 35.23 37.4564 35.41C37.5264 35.25 38.3464 34.47 39.0164 32.95C39.2164 33 39.4064 33.06 39.5864 33.12C39.6464 33.03 39.6964 32.95 39.7564 32.86C39.5764 32.77 39.3864 32.67 39.1764 32.58C39.5764 31.54 39.8964 30.2 39.8864 28.52C39.8464 27.26 39.4764 25.94 38.8364 24.65C39.8664 24.64 40.7464 24.72 41.4264 24.86C41.7964 24.88 42.0964 24.94 42.3564 24.97C42.3264 24.97 42.3064 24.97 42.3064 24.97C42.4964 25.03 42.6264 25.05 42.6964 25.07C42.6964 25.05 42.7064 25.04 42.7064 25.02C42.6764 25.01 42.6464 24.99 42.5964 24.97C42.6464 24.95 42.6764 24.94 42.7164 24.93ZM27.3864 17.36C31.6364 18.63 35.1664 21.17 37.2364 24.03C36.9964 24.03 36.7664 24.03 36.5164 24.04C34.7364 24.02 32.7764 24.48 30.7164 25.21C29.8564 22.98 28.6164 20.69 26.8564 18.45C26.4464 17.9 26.0164 17.38 25.5964 16.88C26.1864 17.02 26.7864 17.18 27.3864 17.36ZM13.2264 13.05C14.2064 11.92 15.0664 10.75 15.7664 9.6C17.6064 10.93 19.5864 12.58 21.5564 14.56C18.4664 14.02 15.6264 13.65 13.2264 13.05ZM19.7564 22.97C18.8564 25.42 18.8364 27.9 19.3764 30.13C15.5364 31.55 11.6764 31.79 8.59636 31.16C9.50636 27.1 12.6064 22.32 17.5564 18.94C19.0764 17.86 20.6464 16.94 22.1964 16.08C22.3164 16.11 22.4364 16.13 22.5664 16.16C21.6164 18.26 20.6064 20.52 19.7564 22.97ZM21.1564 23.38C21.9164 21.16 22.8464 18.99 23.7064 16.89C24.3764 17.66 25.0464 18.47 25.6864 19.33C27.3464 21.41 28.5764 23.56 29.4864 25.66C26.8264 26.69 23.9964 28.09 21.1064 29.42C20.9464 29.49 20.7964 29.56 20.6364 29.63C20.2964 27.68 20.4064 25.54 21.1564 23.38ZM21.0064 31.06C21.2364 30.96 21.4664 30.87 21.6964 30.76C24.6864 29.38 27.4364 27.92 29.9564 26.79C30.6464 28.61 31.1064 30.38 31.3864 32.02C29.7264 32.23 27.9564 32.59 26.1464 33.12C24.8864 33.44 23.7164 33.84 22.6164 34.3C21.9364 33.36 21.3864 32.26 21.0064 31.06ZM31.6764 38.23C30.4864 38.16 28.9964 37.96 27.3064 37.46C25.9564 37.21 24.6764 36.47 23.5864 35.4C24.5264 35.08 25.5264 34.78 26.5664 34.52C28.3064 34.01 29.9964 33.59 31.5764 33.28C31.8064 35.21 31.7964 36.91 31.6764 38.23ZM39.1564 28.58C39.2964 30.11 39.1164 31.39 38.8264 32.42C38.2964 32.22 37.6764 32.06 36.9764 31.98C35.6364 31.77 34.0464 31.75 32.2964 31.91C32.1264 30.16 31.7564 28.26 31.0964 26.29C33.0564 25.47 34.8764 24.9 36.5764 24.77C36.9564 24.73 37.3264 24.7 37.6764 24.68C38.4964 25.96 39.0164 27.29 39.1564 28.58Z" fill="url(#paint1_radial_0_41)"/>
<g id="Group_2">
<path id="Vector_3" d="M24.4964 4.23C28.6964 8.43 27.5564 16.37 21.9664 21.96C16.3664 27.56 8.42636 28.69 4.23636 24.49C0.036361 20.29 1.17636 12.35 6.76636 6.76C12.3564 1.16 20.2964 0.0299997 24.4964 4.23Z" fill="url(#paint2_linear_0_41)"/>
<path id="Vector_4" d="M11.2064 6.7C11.9864 7.48 11.6064 9.12 10.3664 10.36C9.12636 11.6 7.48636 11.98 6.70636 11.2C5.92636 10.42 6.30636 8.78 7.54636 7.54C8.78636 6.29 10.4264 5.92 11.2064 6.7Z" fill="var(--fill-0, white)"/>
<path id="Vector_5" d="M6.11636 13.27C6.56636 13.72 6.56636 14.46 6.11636 14.91C5.66636 15.36 4.92636 15.36 4.47636 14.91C4.02636 14.46 4.02636 13.72 4.47636 13.27C4.91636 12.82 5.65636 12.82 6.11636 13.27Z" fill="var(--fill-0, white)"/>
</g>
<path id="Vector_6" d="M34.4264 38.28C35.4264 37.38 36.2864 36.33 36.9764 35.14C37.5864 34.92 38.1664 34.65 38.7364 34.33C38.7964 34.25 38.8664 34.16 38.9264 34.07C38.3364 34.42 37.7164 34.72 37.0664 34.96C37.2164 34.69 37.3764 34.41 37.5064 34.13C37.9864 33.11 38.3064 32.04 38.4964 30.96C39.5664 30.56 40.5764 30.02 41.4964 29.37C41.5264 29.29 41.5564 29.22 41.5864 29.14C40.6464 29.83 39.6164 30.39 38.5264 30.8C38.7564 29.39 38.7564 27.95 38.5064 26.53C39.8764 26.02 41.1264 25.3 42.2164 24.4C42.3364 25.1 42.3864 25.81 42.3964 26.53C42.4464 26.33 42.4864 26.13 42.5264 25.94C42.4964 25.39 42.4364 24.84 42.3464 24.3C42.5264 24.15 42.6964 23.98 42.8664 23.82C42.8764 23.75 42.8864 23.68 42.8964 23.6C42.7064 23.78 42.5264 23.96 42.3264 24.13C42.0664 22.72 41.5664 21.37 40.8464 20.12C41.5564 19.52 42.1764 18.85 42.7264 18.13C42.7164 18.07 42.7064 18 42.6964 17.94C42.1364 18.69 41.4964 19.38 40.7664 20C40.4064 19.39 40.0064 18.8 39.5364 18.24C39.0664 17.68 38.5464 17.18 37.9964 16.71C38.5464 16.24 39.0564 15.74 39.5364 15.18C40.0064 14.62 40.4064 14.03 40.7664 13.41C41.1364 13.72 41.4764 14.06 41.7964 14.4C41.7564 14.28 41.7064 14.17 41.6664 14.06C41.4064 13.79 41.1264 13.53 40.8364 13.29C40.9464 13.11 41.0264 12.92 41.1264 12.73C41.0964 12.68 41.0764 12.62 41.0564 12.57C40.9464 12.78 40.8464 13 40.7264 13.21C40.1764 12.76 39.5964 12.34 38.9664 11.98C38.3264 11.61 37.6764 11.31 37.0064 11.07C37.3564 10.45 37.6764 9.8 37.9264 9.11C38.0564 8.76 38.1664 8.4 38.2564 8.04C38.2164 7.99 38.1864 7.95 38.1464 7.9C38.0464 8.29 37.9364 8.68 37.7964 9.07C37.5464 9.76 37.2264 10.41 36.8764 11.02C35.4964 10.53 34.0664 10.29 32.6464 10.28C33.3464 9.05 33.8664 7.69 34.1264 6.24C34.8464 6.24 35.5564 6.3 36.2764 6.42C36.5164 6.46 36.7364 6.52 36.9764 6.58C36.9164 6.52 36.8664 6.46 36.8064 6.4C36.6364 6.36 36.4764 6.32 36.3064 6.29C35.5864 6.16 34.8564 6.11 34.1464 6.1C34.2464 5.49 34.3064 4.87 34.3264 4.24C34.2864 4.21 34.2364 4.17 34.1864 4.14C34.1764 4.81 34.1064 5.46 33.9964 6.1C32.5364 6.11 31.1164 6.37 29.7764 6.85C30.0164 5.43 30.0164 3.98 29.7764 2.56C30.1664 2.42 30.5664 2.3 30.9664 2.2C30.8964 2.17 30.8364 2.13 30.7664 2.1C30.4164 2.19 30.0764 2.3 29.7464 2.42C29.6964 2.13 29.6264 1.85 29.5564 1.56C29.5064 1.54 29.4564 1.52 29.4064 1.5C29.4864 1.82 29.5564 2.14 29.6164 2.46C28.2564 2.96 27.0064 3.68 25.9064 4.6C25.6464 3.19 25.1564 1.83 24.4364 0.58C24.5664 0.47 24.7164 0.37 24.8464 0.26C24.7864 0.25 24.7264 0.24 24.6564 0.23C24.5564 0.31 24.4564 0.38 24.3564 0.46C24.2964 0.36 24.2364 0.269999 24.1764 0.169999C24.1164 0.159999 24.0564 0.159999 23.9964 0.149999C24.0764 0.279999 24.1764 0.409999 24.2564 0.549999C23.1564 1.48 22.2264 2.59 21.5064 3.82C20.7764 2.58 19.8564 1.48 18.7564 0.549999C18.8364 0.409999 18.9264 0.279999 19.0064 0.149999C18.9464 0.159999 18.8864 0.159999 18.8264 0.169999C18.7664 0.269999 18.6964 0.36 18.6364 0.46C18.5364 0.38 18.4364 0.31 18.3364 0.23C18.2764 0.24 18.2064 0.25 18.1464 0.26C18.2864 0.37 18.4264 0.47 18.5564 0.58C17.8364 1.85 17.3564 3.21 17.0964 4.61C15.9864 3.69 14.7364 2.97 13.3764 2.47C13.4364 2.15 13.5064 1.83 13.5864 1.51C13.5364 1.53 13.4864 1.55 13.4364 1.57C13.3664 1.86 13.2964 2.14 13.2464 2.43C12.9064 2.31 12.5664 2.2 12.2264 2.11C12.1564 2.14 12.0964 2.17 12.0264 2.21C12.4264 2.31 12.8264 2.43 13.2164 2.57C12.9664 4 12.9664 5.44 13.2164 6.86C11.8864 6.38 10.4664 6.11 8.99636 6.1C8.88636 5.46 8.82636 4.81 8.81636 4.14C8.76636 4.17 8.72636 4.21 8.68636 4.24C8.70636 4.87 8.75636 5.5 8.86636 6.1C8.15636 6.1 7.43636 6.16 6.70636 6.29C6.53636 6.32 6.36636 6.37 6.20636 6.4C6.14636 6.46 6.09636 6.52 6.03636 6.58C6.26636 6.52 6.49636 6.46 6.73636 6.42C7.45636 6.29 8.17636 6.24 8.88636 6.24C9.14636 7.69 9.65636 9.04 10.3664 10.28C8.94636 10.29 7.51636 10.52 6.13636 11.02C5.78636 10.4 5.46636 9.75 5.21636 9.06C5.07636 8.67 4.96636 8.28 4.86636 7.89C4.82636 7.94 4.79636 7.98 4.75636 8.03C4.84636 8.39 4.95636 8.75 5.08636 9.11C5.33636 9.8 5.64636 10.45 6.00636 11.07C5.33636 11.32 4.67636 11.62 4.04636 11.98C3.41636 12.35 2.83636 12.77 2.28636 13.22C2.16636 13.01 2.06636 12.79 1.95636 12.58C1.93636 12.63 1.90636 12.69 1.88636 12.74C1.98636 12.93 2.07636 13.12 2.17636 13.31C1.88636 13.56 1.60636 13.82 1.33636 14.09C1.29636 14.2 1.24636 14.32 1.20636 14.43C1.53636 14.08 1.87636 13.74 2.24636 13.43C2.60636 14.04 3.00636 14.63 3.47636 15.19C3.94636 15.75 4.46636 16.26 5.00636 16.72C4.45636 17.18 3.94636 17.69 3.47636 18.25C2.98636 18.81 2.58636 19.4 2.22636 20.01C1.49636 19.4 0.866361 18.7 0.296361 17.95C0.286361 18.01 0.276362 18.08 0.266362 18.14C0.826362 18.86 1.44636 19.54 2.15636 20.13C1.42636 21.4 0.936362 22.75 0.686362 24.14C0.486362 23.97 0.296361 23.79 0.106361 23.6C0.116361 23.67 0.126361 23.74 0.126361 23.8C0.306361 23.97 0.466362 24.15 0.656362 24.3C0.556362 24.87 0.506362 25.45 0.486362 26.02C0.526362 26.2 0.566361 26.38 0.606361 26.56C0.606361 25.84 0.656361 25.12 0.776361 24.4C1.88636 25.31 3.13636 26.03 4.48636 26.52C4.23636 27.96 4.23636 29.4 4.47636 30.79C3.37636 30.38 2.34636 29.81 1.40636 29.12C1.43636 29.2 1.46636 29.27 1.49636 29.35C2.42636 30.01 3.43636 30.55 4.50636 30.95C4.75636 32.35 5.24636 33.7 5.93636 34.94C5.28636 34.7 4.66636 34.39 4.06636 34.04C4.13636 34.13 4.19636 34.22 4.26636 34.31C4.83636 34.62 5.42636 34.9 6.03636 35.12C6.71636 36.29 7.57636 37.35 8.60636 38.26C8.21636 38.11 7.83636 37.92 7.46636 37.73C7.60636 37.85 7.74636 37.98 7.89636 38.1C8.22636 38.25 8.57636 38.39 8.91636 38.52C10.0264 39.45 11.3064 40.22 12.7464 40.74C14.1764 41.26 15.6664 41.51 17.1464 41.51C18.5064 42 19.9764 42.29 21.5064 42.29C23.0364 42.29 24.5064 42.01 25.8664 41.51C27.3464 41.51 28.8364 41.27 30.2664 40.74C31.6964 40.22 32.9864 39.46 34.1164 38.51C34.4564 38.39 34.7864 38.25 35.1164 38.1C35.2564 37.98 35.3964 37.86 35.5464 37.73C35.1664 37.96 34.8064 38.13 34.4264 38.28ZM37.3764 34.08C37.2264 34.41 37.0464 34.72 36.8764 35.04C36.5364 35.16 36.1964 35.28 35.8464 35.37C34.7964 35.65 33.7364 35.78 32.6664 35.79C33.3664 34.56 33.8564 33.2 34.1164 31.76C35.5764 31.75 37.0064 31.5 38.3364 31.03C38.1464 32.07 37.8364 33.1 37.3764 34.08ZM23.1364 21.22C23.8464 22.38 24.7364 23.42 25.7964 24.31C25.8564 24.67 25.9064 25.03 25.9464 25.39C26.0364 26.46 25.9864 27.52 25.8164 28.56C24.7364 27.63 23.8064 26.52 23.0964 25.29C23.3264 23.93 23.3364 22.56 23.1364 21.22ZM25.2664 18.98C26.3564 19.9 27.2864 20.98 28.0164 22.18C26.7064 21.68 25.4764 20.95 24.3864 20.03C23.8664 19.14 23.2464 18.32 22.5264 17.57C23.3764 18.16 24.2964 18.62 25.2664 18.98ZM21.9864 17C23.0664 17.45 24.0564 18.02 24.9364 18.71C23.8864 18.28 22.8964 17.7 21.9864 17ZM22.7464 17.17C23.7564 17.42 24.7664 17.53 25.7764 17.54C27.1364 18.03 28.3964 18.73 29.4964 19.63C28.0564 19.61 26.6464 19.33 25.3164 18.84C24.5464 18.2 23.6864 17.63 22.7464 17.17ZM22.0564 16.82C23.2164 16.87 24.3364 17.07 25.3964 17.41C24.2864 17.37 23.1664 17.17 22.0564 16.82ZM21.9764 16.44C22.8964 15.73 23.8864 15.16 24.9364 14.73C24.0464 15.43 23.0464 16 21.9764 16.44ZM24.0464 19.76C23.2164 19.01 22.4764 18.13 21.8564 17.15C22.7164 17.93 23.4464 18.8 24.0464 19.76ZM24.2564 20.11C24.9764 21.34 25.4864 22.68 25.7664 24.1C24.6764 23.16 23.7864 22.06 23.0864 20.83C22.9064 19.81 22.5964 18.82 22.1664 17.86C22.7764 18.71 23.4864 19.46 24.2564 20.11ZM25.9264 24.24C25.6864 22.88 25.2264 21.58 24.5764 20.39C25.6464 21.24 26.8464 21.9 28.1064 22.36C28.8264 23.6 29.3164 24.96 29.5864 26.38C28.6064 26.01 27.6664 25.53 26.7764 24.91C26.4864 24.69 26.2064 24.47 25.9264 24.24ZM28.3064 22.43C29.6464 22.9 31.0664 23.15 32.4964 23.16C33.2064 24.39 33.7164 25.75 33.9864 27.2C32.5364 27.19 31.1164 26.93 29.7564 26.44C29.4964 25.02 29.0064 23.67 28.3064 22.43ZM28.2064 22.25C27.5264 21.09 26.6764 20.02 25.6464 19.11C26.9264 19.54 28.2864 19.77 29.6664 19.77C30.7564 20.69 31.6764 21.78 32.4064 23.01C30.9664 23 29.5464 22.74 28.2064 22.25ZM26.2164 17.55C27.5864 17.51 28.9264 17.24 30.1964 16.79C31.5464 17.28 32.7964 18 33.9164 18.91C32.9264 19.26 31.8964 19.49 30.8264 19.59C30.4564 19.62 30.0764 19.63 29.7064 19.63C28.6564 18.77 27.4864 18.06 26.2164 17.55ZM25.7964 17.41C24.8464 17.07 23.8564 16.83 22.8264 16.72C23.8564 16.61 24.8464 16.37 25.7964 16.03C27.2364 16.02 28.6564 16.25 29.9964 16.72C28.6564 17.18 27.2364 17.41 25.7964 17.41ZM22.0564 16.62C23.1664 16.27 24.2864 16.07 25.4064 16.03C24.3364 16.38 23.2164 16.57 22.0564 16.62ZM25.7764 15.89C24.7764 15.9 23.7564 16.01 22.7464 16.26C23.6864 15.8 24.5564 15.23 25.3564 14.57C26.6764 14.09 28.0664 13.82 29.4964 13.79C28.3964 14.7 27.1364 15.41 25.7764 15.89ZM25.2764 14.45C24.3064 14.81 23.3764 15.28 22.5164 15.87C23.2464 15.12 23.8664 14.29 24.3764 13.41C25.4764 12.49 26.7064 11.76 28.0164 11.26C27.2964 12.48 26.3564 13.55 25.2764 14.45ZM21.8664 16.29C22.4864 15.31 23.2264 14.43 24.0464 13.69C23.4564 14.63 22.7164 15.5 21.8664 16.29ZM21.6864 16.2C21.9364 15.07 22.3264 13.99 22.8564 12.99C22.6264 14.09 22.2264 15.16 21.6864 16.2ZM22.8564 20.45C22.3264 19.45 21.9364 18.37 21.6864 17.23C22.2264 18.26 22.6264 19.34 22.8564 20.45ZM21.7264 18.02C22.0164 19.03 22.4264 19.99 22.9364 20.89C23.1864 22.27 23.2064 23.69 22.9864 25.1C22.2964 23.87 21.8264 22.52 21.5764 21.11C21.7464 20.1 21.8064 19.06 21.7264 18.02ZM22.9464 25.3C22.8864 25.67 22.8064 26.03 22.7064 26.39C22.4264 27.43 22.0064 28.41 21.4964 29.33C20.9864 28.41 20.5664 27.43 20.2864 26.39C20.1964 26.04 20.1164 25.68 20.0564 25.32C20.7464 24.12 21.2264 22.84 21.4964 21.5C21.7764 22.85 22.2764 24.13 22.9464 25.3ZM21.5064 20.68C21.3564 19.57 21.3564 18.43 21.5064 17.28C21.6564 18.43 21.6564 19.57 21.5064 20.68ZM21.4264 21.07C21.1864 22.5 20.7064 23.86 20.0164 25.1C19.7864 23.69 19.8164 22.27 20.0564 20.89C20.5664 19.99 20.9764 19.04 21.2664 18.03C21.1964 19.06 21.2664 20.08 21.4264 21.07ZM18.9564 19.76C19.5464 18.81 20.2864 17.94 21.1464 17.15C20.5264 18.12 19.7964 19 18.9564 19.76ZM20.8364 17.87C20.4064 18.82 20.1164 19.81 19.9364 20.81C19.2364 22.04 18.3364 23.15 17.2464 24.1C17.5164 22.72 18.0164 21.38 18.7364 20.14C19.5264 19.47 20.2264 18.71 20.8364 17.87ZM18.0764 18.7C18.9564 18.01 19.9464 17.45 21.0164 17C20.0964 17.71 19.1064 18.28 18.0764 18.7ZM18.0564 14.73C19.1064 15.16 20.0964 15.73 21.0164 16.44C19.9464 16 18.9564 15.43 18.0564 14.73ZM17.5964 16.03C18.7264 16.07 19.8564 16.27 20.9564 16.62C19.7864 16.57 18.6564 16.37 17.5964 16.03ZM20.2564 17.17C19.3164 17.62 18.4764 18.19 17.6964 18.83C16.3464 19.33 14.9364 19.6 13.5164 19.62C14.6064 18.74 15.8464 18.04 17.1964 17.55C18.2164 17.55 19.2464 17.43 20.2564 17.17ZM17.5964 17.41C18.6664 17.06 19.7864 16.87 20.9564 16.82C19.8564 17.17 18.7264 17.37 17.5964 17.41ZM17.7664 18.96C18.7064 18.61 19.6164 18.16 20.4764 17.58C19.7464 18.33 19.1464 19.16 18.6364 20.03C17.5564 20.95 16.3264 21.69 14.9864 22.2C15.7164 20.98 16.6564 19.88 17.7664 18.96ZM18.4264 20.39C17.7764 21.6 17.3364 22.89 17.0964 24.22C16.8164 24.46 16.5164 24.69 16.2164 24.91C15.3364 25.53 14.3864 26.01 13.4064 26.38C13.6764 24.97 14.1664 23.62 14.8764 22.39C16.1664 21.91 17.3664 21.23 18.4264 20.39ZM17.2064 24.31C18.2664 23.42 19.1464 22.38 19.8564 21.22C19.6564 22.57 19.6864 23.94 19.9164 25.27C19.2064 26.51 18.2764 27.62 17.1864 28.56C16.9664 27.14 16.9664 25.71 17.2064 24.31ZM20.1464 20.45C20.3864 19.34 20.7764 18.26 21.3164 17.23C21.0664 18.37 20.6764 19.45 20.1464 20.45ZM20.1464 12.99C20.6764 13.99 21.0664 15.07 21.3164 16.21C20.7764 15.17 20.3764 14.1 20.1464 12.99ZM18.9564 13.69C19.7864 14.44 20.5164 15.31 21.1364 16.29C20.2864 15.51 19.5464 14.63 18.9564 13.69ZM20.4864 15.87C19.6164 15.28 18.6964 14.81 17.7264 14.46C16.6464 13.56 15.7164 12.49 14.9864 11.26C16.3164 11.77 17.5564 12.5 18.6564 13.44C19.1564 14.3 19.7564 15.12 20.4864 15.87ZM20.2564 16.27C19.2464 16.01 18.2164 15.89 17.1864 15.88C15.8364 15.39 14.5864 14.69 13.4964 13.8C14.9264 13.82 16.3164 14.09 17.6364 14.58C18.4364 15.24 19.3164 15.81 20.2564 16.27ZM20.1664 16.72C19.1264 16.83 18.1264 17.07 17.1764 17.41C15.7564 17.42 14.3364 17.19 12.9664 16.72C14.3364 16.24 15.7564 16.02 17.1764 16.03C18.1364 16.37 19.1364 16.61 20.1664 16.72ZM16.7864 17.55C15.5164 18.05 14.3464 18.76 13.3064 19.63C11.8764 19.63 10.4464 19.38 9.08636 18.91C9.89636 18.25 10.7864 17.67 11.7664 17.21C12.0964 17.06 12.4364 16.92 12.7764 16.8C14.0764 17.27 15.4264 17.52 16.7864 17.55ZM13.3564 19.76C14.7064 19.75 16.0564 19.55 17.3564 19.11C16.3264 20.02 15.4764 21.09 14.7964 22.26C14.4464 22.39 14.0964 22.5 13.7364 22.6C12.6964 22.88 11.6464 23.01 10.5964 23.02C11.3264 21.79 12.2564 20.68 13.3564 19.76ZM13.7664 22.74C14.0764 22.66 14.3864 22.56 14.6864 22.45C13.9964 23.69 13.5064 25.03 13.2464 26.44C11.8864 26.93 10.4664 27.19 9.01636 27.2C9.28636 25.75 9.78636 24.4 10.5064 23.17C11.5964 23.16 12.6864 23.02 13.7664 22.74ZM13.3764 26.54C14.3964 26.16 15.3764 25.66 16.2964 25.02C16.5664 24.83 16.8164 24.64 17.0664 24.43C16.8364 25.83 16.8364 27.26 17.0764 28.66C15.9864 29.57 14.7364 30.31 13.3664 30.83C13.1064 29.38 13.1264 27.93 13.3764 26.54ZM17.0964 28.83C17.3564 30.22 17.8264 31.59 18.5564 32.86C18.0064 33.32 17.4164 33.74 16.7864 34.1C16.1564 34.46 15.4964 34.76 14.8364 35C14.4864 34.38 14.1764 33.74 13.9264 33.06C13.6764 32.37 13.5064 31.67 13.3764 30.97C14.7364 30.47 15.9964 29.75 17.0964 28.83ZM17.2164 28.72C18.0464 28.02 18.7964 27.21 19.4364 26.3C19.6264 26.03 19.7964 25.76 19.9564 25.49C20.2164 26.88 20.7164 28.23 21.4164 29.47C20.6964 30.72 19.7664 31.83 18.6664 32.77C17.9464 31.49 17.4664 30.12 17.2164 28.72ZM21.5064 29.6C22.2264 30.82 23.1364 31.94 24.2564 32.89C23.8964 33.51 23.4864 34.1 23.0164 34.66C22.5564 35.22 22.0364 35.72 21.4964 36.18C20.9564 35.72 20.4364 35.22 19.9764 34.66C19.5064 34.1 19.1064 33.5 18.7464 32.88C19.8564 31.95 20.7764 30.85 21.5064 29.6ZM21.5764 29.47C22.1164 28.52 22.5464 27.51 22.8364 26.43C22.9164 26.12 22.9864 25.8 23.0464 25.49C23.7664 26.71 24.6964 27.81 25.7764 28.73C25.5264 30.15 25.0364 31.52 24.3164 32.78C23.2264 31.83 22.3064 30.72 21.5764 29.47ZM25.9164 28.82C27.0064 29.72 28.2464 30.46 29.6264 30.97C29.4964 31.67 29.3264 32.37 29.0764 33.06C28.8264 33.74 28.5164 34.39 28.1664 35C27.4964 34.75 26.8464 34.46 26.2164 34.1C25.5864 33.74 24.9964 33.31 24.4464 32.86C25.1564 31.6 25.6564 30.24 25.9164 28.82ZM25.9364 28.67C26.1164 27.6 26.1764 26.5 26.0764 25.38C26.0464 25.06 26.0064 24.75 25.9564 24.44C26.1964 24.64 26.4464 24.83 26.7064 25.02C27.6264 25.66 28.6064 26.16 29.6264 26.54C29.8764 27.94 29.8864 29.39 29.6464 30.83C28.2764 30.32 27.0264 29.58 25.9364 28.67ZM29.7764 26.59C31.1264 27.07 32.5564 27.33 33.9964 27.33C34.1164 28.03 34.1964 28.75 34.1964 29.48C34.1964 30.21 34.1264 30.92 34.0064 31.61C33.2964 31.61 32.5864 31.56 31.8664 31.43C31.1464 31.3 30.4464 31.1 29.7764 30.86C30.0364 29.43 30.0164 27.99 29.7764 26.59ZM32.6464 23.16C34.0664 23.15 35.4964 22.92 36.8764 22.42C37.2264 23.04 37.5464 23.68 37.7964 24.37C38.0464 25.05 38.2164 25.74 38.3464 26.44C37.6764 26.68 36.9964 26.88 36.2764 27C35.5564 27.13 34.8364 27.18 34.1264 27.18C33.8664 25.75 33.3564 24.39 32.6464 23.16ZM32.5764 23.02C31.8564 21.79 30.9364 20.69 29.8664 19.77C30.1864 19.77 30.5064 19.75 30.8364 19.73C31.9464 19.63 33.0264 19.38 34.0464 19.02C35.1364 19.93 36.0764 21.03 36.8164 22.3C35.4264 22.78 33.9964 23.02 32.5764 23.02ZM30.3864 16.72C31.7164 16.22 32.9664 15.5 34.0764 14.58C35.4364 15.07 36.6964 15.79 37.8064 16.72C36.6864 17.65 35.4264 18.36 34.0764 18.86C32.9564 17.94 31.7164 17.22 30.3864 16.72ZM30.1964 16.65C28.9264 16.19 27.5864 15.93 26.2164 15.89C27.4964 15.38 28.6664 14.67 29.6964 13.81C30.0664 13.81 30.4364 13.82 30.8164 13.85C31.8864 13.94 32.9264 14.18 33.9064 14.53C32.7964 15.44 31.5364 16.16 30.1964 16.65ZM29.6664 13.66C28.2864 13.66 26.9364 13.89 25.6564 14.32C26.6664 13.42 27.5364 12.37 28.2364 11.17C29.5764 10.69 30.9864 10.44 32.4164 10.42C31.6764 11.65 30.7564 12.75 29.6664 13.66ZM28.1264 11.08C26.8564 11.55 25.6564 12.2 24.5864 13.05C25.2364 11.86 25.6964 10.56 25.9364 9.2C26.2164 8.97 26.4964 8.74 26.7964 8.53C27.6764 7.91 28.6264 7.43 29.6064 7.06C29.4064 8.09 29.0964 9.11 28.6464 10.09C28.4864 10.43 28.3064 10.76 28.1264 11.08ZM24.2464 13.34C23.4764 13.99 22.7764 14.73 22.1664 15.57C22.5964 14.61 22.8964 13.62 23.0864 12.6C23.7864 11.38 24.6764 10.28 25.7564 9.34C25.4864 10.74 24.9764 12.09 24.2464 13.34ZM22.9264 12.6C22.4264 13.47 22.0164 14.41 21.7364 15.41C21.8164 14.36 21.7564 13.32 21.5764 12.31C21.8164 10.92 22.2764 9.58 22.9764 8.33C23.1964 9.74 23.1764 11.18 22.9264 12.6ZM21.5064 16.17C21.3564 15.02 21.3464 13.87 21.5064 12.75C21.6564 13.87 21.6564 15.02 21.5064 16.17ZM21.2764 15.41C20.9864 14.4 20.5764 13.46 20.0764 12.59C19.8264 11.19 19.7964 9.75 20.0264 8.32C20.7264 9.57 21.1864 10.92 21.4364 12.31C21.2564 13.33 21.1964 14.37 21.2764 15.41ZM19.9264 12.6C20.1064 13.62 20.4164 14.61 20.8364 15.57C20.2264 14.73 19.5164 13.99 18.7564 13.34C18.0264 12.09 17.5164 10.74 17.2464 9.35C18.3264 10.28 19.2264 11.39 19.9264 12.6ZM18.4264 13.05C17.3464 12.2 16.1464 11.54 14.8764 11.07C14.6964 10.75 14.5164 10.42 14.3564 10.08C13.8964 9.1 13.5864 8.09 13.3964 7.05C14.3764 7.42 15.3264 7.9 16.2064 8.52C16.5164 8.74 16.8064 8.97 17.0864 9.21C17.3364 10.55 17.7764 11.85 18.4264 13.05ZM17.3464 14.32C16.0664 13.89 14.7164 13.66 13.3364 13.66C12.2464 12.74 11.3264 11.65 10.5964 10.42C12.0264 10.44 13.4364 10.69 14.7764 11.17C15.4664 12.37 16.3364 13.43 17.3464 14.32ZM16.7864 15.89C15.4264 15.93 14.0764 16.17 12.7764 16.65C12.4364 16.53 12.0964 16.39 11.7664 16.24C10.7864 15.78 9.89636 15.2 9.08636 14.54C10.0764 14.19 11.1164 13.95 12.1864 13.86C12.5564 13.83 12.9364 13.82 13.3064 13.82C14.3464 14.67 15.5064 15.38 16.7864 15.89ZM11.7064 16.36C11.9964 16.49 12.2864 16.61 12.5764 16.72C12.2864 16.83 11.9864 16.95 11.6964 17.08C10.6864 17.55 9.76636 18.15 8.92636 18.85C7.59636 18.36 6.32636 17.65 5.19636 16.72C6.30636 15.8 7.56636 15.08 8.91636 14.59C9.76636 15.28 10.6964 15.88 11.7064 16.36ZM8.95636 19.01C10.3064 19.49 11.7264 19.74 13.1564 19.76C12.0764 20.69 11.1464 21.79 10.4264 23.03C8.98636 23.03 7.55636 22.79 6.18636 22.3C6.91636 21.04 7.85636 19.94 8.95636 19.01ZM10.3464 23.17C9.64636 24.4 9.13636 25.75 8.87636 27.2C8.15636 27.2 7.43636 27.14 6.72636 27.02C6.00636 26.89 5.31636 26.7 4.65636 26.46C4.78636 25.77 4.95636 25.07 5.20636 24.39C5.45636 23.7 5.76636 23.05 6.12636 22.43C7.48636 22.91 8.90636 23.16 10.3464 23.17ZM8.99636 27.33C10.4464 27.33 11.8664 27.07 13.2164 26.59C12.9764 27.99 12.9664 29.43 13.2064 30.87C12.5364 31.11 11.8464 31.31 11.1164 31.44C10.3964 31.57 9.68636 31.62 8.97636 31.62C8.85636 30.92 8.78636 30.21 8.78636 29.49C8.80636 28.75 8.87636 28.04 8.99636 27.33ZM11.1564 31.58C11.8764 31.45 12.5664 31.26 13.2464 31.02C13.3764 31.72 13.5564 32.42 13.8064 33.11C14.0564 33.79 14.3664 34.44 14.7164 35.05C13.3364 35.54 11.9064 35.78 10.4964 35.79C9.78636 34.56 9.28636 33.2 9.02636 31.76C9.72636 31.76 10.4364 31.71 11.1564 31.58ZM14.7764 35.17C15.4964 36.42 16.4264 37.53 17.5164 38.46C16.5164 38.81 15.4764 39.05 14.3964 39.15C14.0364 39.18 13.6764 39.19 13.3264 39.19C12.2364 38.27 11.3064 37.16 10.5764 35.93C11.9864 35.92 13.4064 35.67 14.7764 35.17ZM14.9064 35.13C15.5664 34.88 16.2264 34.59 16.8564 34.23C17.4864 33.86 18.0764 33.44 18.6264 32.98C18.9864 33.6 19.3964 34.19 19.8664 34.76C20.3364 35.32 20.8464 35.82 21.3864 36.28C20.2764 37.21 19.0164 37.93 17.6664 38.42C16.5764 37.48 15.6364 36.38 14.9064 35.13ZM21.5064 36.36C22.6164 37.29 23.8564 38.01 25.2064 38.51C24.3864 39.18 23.4864 39.76 22.5064 40.22C22.1764 40.37 21.8464 40.5 21.5064 40.63C21.1664 40.51 20.8364 40.37 20.5064 40.22C19.5264 39.76 18.6264 39.18 17.8064 38.51C19.1464 38.01 20.3964 37.29 21.5064 36.36ZM21.6064 36.27C22.1464 35.81 22.6664 35.31 23.1264 34.75C23.5964 34.19 24.0064 33.59 24.3664 32.97C24.9164 33.43 25.5064 33.85 26.1364 34.22C26.7664 34.59 27.4264 34.88 28.0864 35.12C27.3564 36.37 26.4264 37.48 25.3164 38.41C23.9764 37.92 22.7164 37.2 21.6064 36.27ZM28.2264 35.17C29.5964 35.66 31.0164 35.91 32.4264 35.93C31.6964 37.17 30.7664 38.27 29.6764 39.19C29.3164 39.19 28.9664 39.18 28.6064 39.15C27.5264 39.06 26.4864 38.81 25.4864 38.46C26.5764 37.53 27.4964 36.43 28.2264 35.17ZM28.2864 35.06C28.6364 34.44 28.9464 33.79 29.1964 33.11C29.4464 32.42 29.6264 31.72 29.7564 31.02C30.4264 31.26 31.1264 31.46 31.8464 31.58C32.5664 31.71 33.2764 31.76 33.9864 31.76C33.7264 33.21 33.2164 34.56 32.5064 35.79C31.0664 35.79 29.6464 35.55 28.2864 35.06ZM38.3764 30.87C37.0364 31.35 35.6164 31.62 34.1464 31.62C34.2664 30.92 34.3364 30.21 34.3364 29.48C34.3364 28.74 34.2664 28.02 34.1464 27.32C34.8664 27.31 35.5864 27.26 36.3064 27.13C37.0264 27 37.7164 26.8 38.3864 26.57C38.6264 28.01 38.6164 29.45 38.3764 30.87ZM42.1964 24.25C41.1064 25.16 39.8564 25.9 38.4764 26.4C38.3464 25.7 38.1764 25.01 37.9264 24.33C37.6764 23.64 37.3664 22.99 37.0064 22.37C37.6764 22.12 38.3364 21.83 38.9664 21.46C39.5964 21.09 40.1764 20.67 40.7264 20.22C41.4564 21.47 41.9464 22.83 42.1964 24.25ZM39.4364 18.34C39.9064 18.89 40.3064 19.49 40.6664 20.1C40.1264 20.55 39.5464 20.97 38.9164 21.34C38.2764 21.71 37.6164 22 36.9564 22.25C36.2164 20.99 35.2764 19.89 34.1964 18.97C35.5464 18.47 36.7964 17.75 37.9064 16.82C38.4464 17.28 38.9664 17.78 39.4364 18.34ZM36.9464 11.2C37.6164 11.45 38.2764 11.74 38.9064 12.11C39.5364 12.47 40.1164 12.89 40.6564 13.34C40.2964 13.95 39.8964 14.54 39.4264 15.1C38.9564 15.66 38.4364 16.16 37.8964 16.63C36.7864 15.7 35.5264 14.98 34.1864 14.48C35.2664 13.56 36.2064 12.46 36.9464 11.2ZM36.8064 11.15C36.0664 12.42 35.1264 13.52 34.0364 14.43C33.0164 14.06 31.9364 13.81 30.8264 13.72C30.5064 13.69 30.1864 13.68 29.8564 13.68C30.9264 12.76 31.8464 11.66 32.5664 10.43C33.9964 10.42 35.4264 10.65 36.8064 11.15ZM33.9764 6.24C33.7164 7.69 33.1964 9.05 32.4864 10.28C31.0664 10.29 29.6564 10.54 28.3164 11C28.4764 10.72 28.6264 10.44 28.7564 10.14C29.2264 9.13 29.5464 8.07 29.7464 7C31.1064 6.51 32.5364 6.25 33.9764 6.24ZM29.6464 2.6C29.8864 4.03 29.8864 5.48 29.6264 6.9C28.2864 7.4 27.0464 8.11 25.9464 9.01C25.9964 8.69 26.0464 8.37 26.0664 8.05C26.1664 6.93 26.1064 5.83 25.9164 4.76C27.0364 3.84 28.2864 3.11 29.6464 2.6ZM25.7864 9.16C24.7564 10.03 23.8564 11.06 23.1364 12.22C23.3364 10.88 23.3264 9.5 23.0864 8.14C23.2664 7.83 23.4564 7.52 23.6664 7.22C24.2864 6.34 25.0064 5.56 25.7964 4.88C26.0364 6.3 26.0364 7.75 25.7864 9.16ZM24.3264 0.669999C25.0564 1.95 25.5364 3.31 25.7764 4.71C24.9464 5.42 24.1964 6.22 23.5564 7.13C23.3764 7.39 23.2064 7.66 23.0464 7.93C22.9864 7.62 22.9264 7.31 22.8364 7.01C22.5464 5.93 22.1164 4.91 21.5764 3.97C22.2964 2.72 23.2264 1.61 24.3264 0.669999ZM22.9364 8.12C22.2464 9.32 21.7664 10.6 21.4964 11.93C21.2264 10.6 20.7464 9.31 20.0564 8.12C20.1164 7.76 20.1964 7.41 20.2864 7.05C20.5664 6.01 20.9764 5.03 21.4864 4.12C22.1964 5.37 22.6864 6.72 22.9364 8.12ZM18.6764 0.679999C19.7964 1.63 20.7164 2.75 21.4264 3.98C20.8864 4.93 20.4564 5.94 20.1664 7.02C20.0864 7.33 20.0164 7.64 19.9564 7.95C19.7964 7.68 19.6264 7.41 19.4464 7.15C18.8064 6.23 18.0564 5.43 17.2264 4.73C17.4664 3.32 17.9464 1.95 18.6764 0.679999ZM17.1964 4.88C17.9864 5.56 18.7164 6.34 19.3264 7.22C19.5364 7.52 19.7264 7.83 19.9064 8.14C19.6664 9.5 19.6564 10.87 19.8564 12.22C19.1364 11.05 18.2364 10.03 17.2064 9.16C16.9664 7.75 16.9664 6.3 17.1964 4.88ZM13.3564 2.6C14.7164 3.1 15.9664 3.84 17.0764 4.76C16.8364 6.17 16.8364 7.61 17.0664 9.02C15.9664 8.12 14.7164 7.4 13.3764 6.9C13.1164 5.49 13.1064 4.04 13.3564 2.6ZM9.01636 6.24C10.4664 6.25 11.8864 6.51 13.2464 7C13.4464 8.07 13.7664 9.13 14.2364 10.14C14.3764 10.43 14.5264 10.72 14.6764 11C13.3364 10.53 11.9264 10.29 10.5064 10.28C9.79636 9.05 9.28636 7.69 9.01636 6.24ZM10.4264 10.42C11.1464 11.65 12.0664 12.75 13.1364 13.67C12.8164 13.67 12.4964 13.69 12.1664 13.71C11.0464 13.81 9.97636 14.06 8.94636 14.42C7.84636 13.49 6.90636 12.39 6.17636 11.14C7.57636 10.66 9.00636 10.42 10.4264 10.42ZM3.56636 15.1C3.09636 14.54 2.69636 13.95 2.34636 13.34C2.88636 12.89 3.46636 12.47 4.09636 12.1C4.73636 11.73 5.39636 11.44 6.05636 11.19C6.78636 12.44 7.70636 13.54 8.80636 14.47C7.45636 14.97 6.21636 15.69 5.10636 16.61C4.55636 16.16 4.03636 15.67 3.56636 15.1ZM3.56636 18.34C4.03636 17.78 4.55636 17.28 5.09636 16.82C6.22636 17.76 7.48636 18.47 8.80636 18.96C7.70636 19.89 6.77636 21 6.04636 22.25C5.37636 22 4.71636 21.71 4.08636 21.34C3.46636 20.97 2.88636 20.55 2.33636 20.1C2.69636 19.49 3.09636 18.9 3.56636 18.34ZM0.806362 24.25C1.05636 22.86 1.53636 21.49 2.26636 20.22C2.81636 20.67 3.39636 21.09 4.02636 21.45C4.65636 21.82 5.31636 22.11 5.98636 22.36C5.63636 22.98 5.31636 23.63 5.06636 24.32C4.81636 25.01 4.64636 25.7 4.51636 26.4C3.14636 25.89 1.89636 25.16 0.806362 24.25ZM4.62636 26.59C5.29636 26.83 5.98636 27.02 6.69636 27.15C7.41636 27.28 8.13636 27.33 8.85636 27.34C8.73636 28.04 8.66636 28.76 8.66636 29.5C8.66636 30.23 8.74636 30.94 8.85636 31.64C7.38636 31.63 5.96636 31.37 4.63636 30.89C4.38636 29.48 4.37636 28.03 4.62636 26.59ZM4.66636 31.04C5.99636 31.51 7.41636 31.76 8.87636 31.77C9.13636 33.21 9.62636 34.56 10.3264 35.79C8.89636 35.77 7.47636 35.52 6.12636 35.04C5.42636 33.8 4.92636 32.44 4.66636 31.04ZM6.23636 35.21C7.57636 35.68 8.98636 35.92 10.4164 35.92C11.1364 37.16 12.0564 38.26 13.1364 39.19C11.7064 39.17 10.3164 38.91 8.98636 38.43C7.88636 37.51 6.95636 36.43 6.23636 35.21ZM12.7864 40.65C11.4864 40.18 10.3164 39.51 9.28636 38.7C10.5664 39.12 11.9064 39.33 13.2664 39.33C14.2964 40.2 15.4764 40.9 16.7464 41.4C15.4164 41.37 14.0864 41.12 12.7864 40.65ZM13.4864 39.33C13.7964 39.32 14.1064 39.32 14.4164 39.29C15.5364 39.19 16.6164 38.94 17.6564 38.57C18.4964 39.27 19.4264 39.88 20.4464 40.36C20.7364 40.49 21.0264 40.6 21.3164 40.72C19.9664 41.19 18.5664 41.42 17.1664 41.42C15.8164 40.92 14.5764 40.22 13.4864 39.33ZM21.4964 42.19C20.1164 42.19 18.7864 41.96 17.5464 41.55C18.8864 41.51 20.2164 41.25 21.4964 40.79C22.7764 41.26 24.1064 41.51 25.4464 41.55C24.2064 41.96 22.8764 42.19 21.4964 42.19ZM25.8364 41.41C24.4364 41.41 23.0364 41.18 21.6864 40.71C21.9764 40.6 22.2764 40.49 22.5564 40.35C23.5764 39.87 24.5064 39.27 25.3464 38.56C26.3764 38.93 27.4564 39.18 28.5864 39.28C28.8964 39.31 29.2064 39.31 29.5164 39.32C28.4264 40.22 27.1764 40.92 25.8364 41.41ZM30.2064 40.65C28.9164 41.12 27.5764 41.36 26.2364 41.41C27.5064 40.9 28.6864 40.2 29.7164 39.34C31.0864 39.34 32.4264 39.12 33.7064 38.7C32.6664 39.52 31.4964 40.18 30.2064 40.65ZM34.0364 38.43C32.7064 38.91 31.3064 39.18 29.8764 39.2C30.9564 38.27 31.8764 37.16 32.5964 35.93C34.0264 35.92 35.4464 35.68 36.7864 35.21C36.0564 36.44 35.1164 37.52 34.0364 38.43Z" fill="var(--fill-0, #FFED00)"/>
<path id="Vector_7" d="M27.4264 15.15C27.4264 17.67 25.3864 19.71 22.8664 19.71C20.3464 19.71 18.3064 17.67 18.3064 15.15C18.3064 12.63 20.3464 10.59 22.8664 10.59C25.3864 10.59 27.4264 12.64 27.4264 15.15Z" fill="var(--fill-0, white)"/>
<g id="Group_3">
<path id="Vector_8" d="M21.5664 17.7C21.5664 17.74 21.5564 17.79 21.4764 17.79H21.0564C20.9764 17.79 20.9664 17.75 20.9664 17.7V13.32H19.8864C19.8064 13.32 19.7964 13.28 19.7964 13.23V12.9C19.7964 12.86 19.8064 12.81 19.8864 12.81H22.7464C22.8664 12.81 22.8264 12.9 22.8164 12.92L22.6964 13.24C22.6864 13.28 22.6564 13.32 22.5764 13.32H21.5564V17.7H21.5664Z" fill="var(--fill-0, black)"/>
<path id="Vector_9" d="M25.2964 17.31C25.3764 17.31 25.3864 17.35 25.3864 17.4V17.7C25.3864 17.74 25.3764 17.79 25.2964 17.79H23.3764C23.3364 17.79 23.2864 17.78 23.2864 17.7V17.4C23.2864 17.32 23.3264 17.31 23.3764 17.31H24.0364V13.28H23.3764C23.2964 13.28 23.2864 13.24 23.2864 13.19V12.89C23.2864 12.85 23.2964 12.8 23.3764 12.8H25.2964C25.3764 12.8 25.3864 12.84 25.3864 12.89V13.19C25.3864 13.23 25.3764 13.28 25.2964 13.28H24.6364V17.31H25.2964Z" fill="var(--fill-0, black)"/>
</g>
</g>
<defs>
<radialGradient id="paint0_radial_0_41" cx="0" cy="0" r="1" gradientUnits="userSpaceOnUse" gradientTransform="translate(35.3879 35.3837) rotate(-45) scale(40.6118)">
<stop stop-color="white"/>
<stop offset="0.0337" stop-color="#FFFFFC"/>
<stop offset="0.073" stop-color="#FFFEF2"/>
<stop offset="0.115" stop-color="#FFFCE2"/>
<stop offset="0.159" stop-color="#FFF9C9"/>
<stop offset="0.2045" stop-color="#FFF6A5"/>
<stop offset="0.2513" stop-color="#FFF270"/>
<stop offset="0.2983" stop-color="#FFEE06"/>
<stop offset="0.3174" stop-color="#FFED00"/>
<stop offset="0.7844" stop-color="#EF7900"/>
<stop offset="1" stop-color="#FFDA00"/>
</radialGradient>
<radialGradient id="paint1_radial_0_41" cx="0" cy="0" r="1" gradientUnits="userSpaceOnUse" gradientTransform="translate(19.1913 11.0511) scale(29.0356 29.0356)">
<stop stop-color="white"/>
<stop offset="1" stop-color="#FFED00"/>
</radialGradient>
<linearGradient id="paint2_linear_0_41" x1="21.9631" y1="21.9594" x2="6.76295" y2="6.75918" gradientUnits="userSpaceOnUse">
<stop stop-color="white" stop-opacity="0"/>
<stop offset="1" stop-color="white" stop-opacity="0.78"/>
</linearGradient>
</defs>
</svg>
