<svg width="18" height="18" viewBox="0 0 18 18" fill="none" xmlns="http://www.w3.org/2000/svg">
<g clip-path="url(#clip0_2039_229)">
<path d="M1.60472 3.16805C1.60472 3.63563 1.6023 4.08841 1.59998 4.52617C1.58342 7.62963 1.57034 10.0809 2.4747 12.2028C2.9498 13.3175 3.66273 14.3025 4.65439 15.2142C5.6833 16.1602 7.0423 17.0564 8.80898 17.9542C8.8682 17.9843 8.93369 18 9.00012 18C9.06655 18 9.13205 17.9843 9.19127 17.9542C10.9579 17.0565 12.3169 16.1602 13.3459 15.2142C14.3373 14.3025 15.0503 13.3175 15.5255 12.2028C16.4299 10.0809 16.4168 7.62963 16.4003 4.52617C16.3979 4.08841 16.3955 3.63573 16.3955 3.16805C16.3955 3.08337 16.37 3.00064 16.3224 2.93063C16.2747 2.86063 16.2071 2.80658 16.1283 2.77553L9.15467 0.0293716C9.05533 -0.00974983 8.94485 -0.00974983 8.8455 0.0293716L1.87202 2.77553C1.79321 2.80657 1.72557 2.8606 1.6779 2.93061C1.63022 3.00062 1.60473 3.08335 1.60472 3.16805ZM2.44369 4.53067C2.44554 4.18185 2.44704 3.82345 2.44819 3.45545L8.99998 0.875407L15.5518 3.45545C15.5525 3.82373 15.554 4.18213 15.5563 4.53067C15.5886 10.6097 15.6051 13.6899 8.99998 17.1041C2.39486 13.6899 2.41131 10.6097 2.44369 4.53067ZM5.78913 9.02463C5.71766 8.94013 5.68225 8.83093 5.69055 8.72057C5.69884 8.61021 5.75017 8.50753 5.83346 8.43466C5.91676 8.3618 6.02535 8.32458 6.13583 8.33103C6.24631 8.33748 6.34984 8.38709 6.42408 8.46916L8.22099 10.5228L12.4043 6.56298C12.4855 6.48606 12.594 6.44457 12.7059 6.44763C12.8177 6.45069 12.9238 6.49806 13.0007 6.57931C13.0776 6.66057 13.1191 6.76905 13.116 6.8809C13.113 6.99275 13.0656 7.0988 12.9843 7.17572L8.48241 11.437C8.40406 11.5112 8.30029 11.5525 8.19241 11.5525C8.18583 11.5525 8.17919 11.5525 8.17258 11.5521C8.11586 11.5494 8.06028 11.5353 8.00914 11.5106C7.958 11.486 7.91237 11.4512 7.87498 11.4085L5.78913 9.02463Z" fill="#F44E22"/>
</g>
<defs>
<clipPath id="clip0_2039_229">
<rect width="18" height="18" fill="white"/>
</clipPath>
</defs>
</svg>
