<svg width="18" height="18" viewBox="0 0 18 18" fill="none" xmlns="http://www.w3.org/2000/svg">
<path d="M8.97261 8.86145C10.1512 8.18686 10.9565 6.93077 10.9565 5.47824C10.9565 3.32059 9.20112 1.56519 7.04347 1.56519C4.88582 1.56519 3.13042 3.32059 3.13042 5.47824C3.13042 6.93077 3.93572 8.18686 5.11433 8.86145C2.16627 9.63547 0 12.1281 0 15.0824V16.0434C0 16.2594 0.175316 16.4348 0.391316 16.4348C0.607316 16.4348 0.782633 16.2594 0.782633 16.0434V15.0824C0.782596 11.945 3.5914 9.39129 7.04347 9.39129C10.4955 9.39129 13.3043 11.945 13.3043 15.0824V16.0434C13.3043 16.2594 13.4797 16.4348 13.6957 16.4348C13.9117 16.4348 14.087 16.2594 14.087 16.0434V15.0824C14.0869 12.1281 11.9207 9.6347 8.97261 8.86145ZM3.91305 5.47824C3.91305 3.75182 5.31705 2.34782 7.04347 2.34782C8.76989 2.34782 10.1739 3.75182 10.1739 5.47824C10.1739 7.20466 8.76989 8.60866 7.04347 8.60866C5.31705 8.60866 3.91305 7.2047 3.91305 5.47824Z" fill="#F44E22"/>
<path d="M14.2418 8.87166C15.0902 8.31053 15.6521 7.35104 15.6521 6.26088C15.6521 4.53446 14.2481 3.13046 12.5217 3.13046C12.3057 3.13046 12.1304 3.30578 12.1304 3.52178C12.1304 3.73778 12.3057 3.9131 12.5217 3.9131C13.8161 3.9131 14.8695 4.9665 14.8695 6.26092C14.8695 7.55534 13.8161 8.60874 12.5217 8.60874C12.3057 8.60874 12.1304 8.78406 12.1304 9.00006C12.1304 9.21606 12.3057 9.3913 12.5217 9.3913C15.1113 9.3913 17.2173 11.3376 17.2173 13.7309V14.4782C17.2173 14.6942 17.3926 14.8695 17.6086 14.8695C17.8246 14.8695 17.9999 14.6942 17.9999 14.4782V13.7309C17.9999 11.4691 16.4222 9.54784 14.2418 8.87166Z" fill="#F44E22"/>
</svg>
