<svg width="18" height="18" viewBox="0 0 18 18" fill="none" xmlns="http://www.w3.org/2000/svg">
<path d="M8.9998 16.2C12.9694 16.2 16.1998 12.9696 16.1998 8.99999C16.1998 5.03039 12.9694 1.79999 8.9998 1.79999C5.03017 1.79999 1.7998 5.03039 1.7998 8.99999C1.7998 12.9696 5.03021 16.2 8.9998 16.2ZM8.9998 2.75997C12.4414 2.75997 15.2398 5.55836 15.2398 8.99999C15.2398 12.4416 12.4414 15.24 8.9998 15.24C5.55818 15.24 2.75979 12.4416 2.75979 8.99999C2.75979 5.55836 5.55822 2.75997 8.9998 2.75997Z" fill="#F44E22"/>
<path d="M11.0995 11.2943C11.1883 11.3663 11.2939 11.3999 11.3995 11.3999C11.4715 11.4001 11.5425 11.3839 11.6073 11.3528C11.6721 11.3216 11.7291 11.2762 11.7739 11.2199C11.9395 11.0135 11.9059 10.7111 11.6995 10.5455L9.47952 8.76949V5.15989C9.47952 4.89589 9.26353 4.6799 8.99952 4.6799C8.73552 4.6799 8.51953 4.89589 8.51953 5.15989V8.99991C8.51953 9.14632 8.58674 9.28311 8.69953 9.37429L11.0995 11.2943Z" fill="#F44E22"/>
</svg>
