<svg width="260" height="45" viewBox="0 0 260 45" fill="none" xmlns="http://www.w3.org/2000/svg">
<path d="M42.81 7.3C51.2 15.69 51.2 29.31 42.81 37.7C34.41 46.09 20.8 46.09 12.41 37.7C4.02002 29.3 4.01002 15.69 12.41 7.3C20.81 -1.1 34.42 -1.1 42.81 7.3Z" fill="url(#paint0_radial_2042_842)"/>
<path d="M45.3701 34.25C45.3201 34.27 45.3601 34.26 45.4501 34.25C45.3701 34.22 45.3301 34.21 45.3701 34.25ZM45.5901 34.28C45.6001 34.26 45.6201 34.24 45.6301 34.22C45.5701 34.23 45.5001 34.24 45.4501 34.24C45.4901 34.26 45.5401 34.27 45.5901 34.28ZM48.8301 25.93C48.7801 25.93 48.7301 25.94 48.6801 25.94C48.1301 25.72 46.5401 25.24 44.6401 25.08C42.6801 21.6 38.7601 18.4 33.9501 16.98C32.7901 16.64 31.6601 16.37 30.5401 16.13C30.5801 16.03 30.6201 15.93 30.6501 15.83C33.6501 14.24 36.3801 12.81 38.2401 10.97C40.7901 8.97998 40.9801 6.78998 40.8201 5.55998C40.7801 5.52998 40.7401 5.48998 40.6901 5.45998C40.7401 6.60998 40.4201 8.69998 37.7601 10.42C36.1301 11.8 33.8501 12.89 31.2901 14.1C32.1701 11.56 32.7001 9.16998 32.3801 6.97998C32.1901 4.61998 31.5901 2.69998 30.6601 1.68998C30.4001 1.42998 30.1401 1.24998 29.9101 1.12998C29.8101 1.11998 29.7101 1.10998 29.6101 1.09998C29.8801 1.23998 30.1801 1.45998 30.4801 1.82998C31.2401 2.84998 31.6401 4.72998 31.6401 6.99998C31.8101 9.41998 30.9201 12 29.6901 14.86C29.5101 14.95 29.3301 15.03 29.1401 15.12C26.8601 12.88 24.5101 11.12 22.3401 9.77997C23.1101 8.37997 23.6501 7.01998 23.8801 5.78998C24.4401 3.24998 23.1401 1.91998 23.0601 1.80998C23.0601 1.86998 24.0601 3.32998 23.1801 5.60998C22.8101 6.69998 22.1501 7.89998 21.3001 9.16998C16.7501 6.56998 13.2401 5.90998 13.2401 6.58998C13.3501 5.93998 16.5901 7.00998 20.8101 9.86998C19.9701 11.05 18.9801 12.27 17.8801 13.48C17.8501 13.52 17.8101 13.56 17.7701 13.6C17.3801 13.47 17.0001 13.33 16.6401 13.17C12.5001 11.65 10.7301 9.38997 10.7201 9.19998C10.7401 9.42997 12.2501 11.94 16.3601 13.84C16.6301 13.98 16.9001 14.12 17.1901 14.24C12.3401 19.33 6.5101 20.61 6.5501 20.52C6.3401 20.64 13.2301 20.63 18.6401 14.81C20.8401 15.58 23.4301 16.1 26.2001 16.66C25.0701 17.29 23.9401 17.98 22.8201 18.77C17.6101 22.31 14.5301 27.64 13.9001 31.99C13.2001 31.8 12.5401 31.57 11.9501 31.29C8.4101 29.66 7.3401 27.1 7.1701 26.91C7.3101 27.13 8.0201 29.86 11.6101 31.94C12.2601 32.33 12.9901 32.65 13.8001 32.92C13.7901 33.03 13.7801 33.14 13.7801 33.25C13.4901 37.64 15.6401 39.78 15.7801 40.01C15.6801 39.78 13.8701 37.45 14.5101 33.32C14.5201 33.26 14.5301 33.2 14.5401 33.13C17.7601 34.01 21.9001 33.95 25.9301 32.53C26.3701 33.72 26.9701 34.81 27.6901 35.75C22.1201 38.35 19.1101 42.14 19.7001 42.41C19.2601 41.99 22.8201 38.99 28.6001 36.8C29.9601 38.17 31.5801 39.05 33.2201 39.17C35.0201 39.54 36.5501 39.61 37.7501 39.57C37.6401 40.54 37.4501 41.27 37.2601 41.71C37.3101 41.68 37.3601 41.66 37.4201 41.63C37.6601 41.17 37.9001 40.47 38.1001 39.55C39.8301 39.45 40.8001 39.13 40.7901 39.23C40.8101 39.14 39.8301 39.32 38.1601 39.25C38.4301 37.89 38.5901 36.13 38.5001 34.12C40.1901 33.82 41.7301 33.67 43.0301 33.7C43.7101 33.69 44.2901 33.76 44.8101 33.87C44.3101 35.37 43.6301 36.23 43.5701 36.41C43.6401 36.25 44.4601 35.47 45.1301 33.95C45.3301 34 45.5201 34.06 45.7001 34.12C45.7601 34.03 45.8101 33.95 45.8701 33.86C45.6901 33.77 45.5001 33.67 45.2901 33.58C45.6901 32.54 46.0101 31.2 46.0001 29.52C45.9601 28.26 45.5901 26.94 44.9501 25.65C45.9801 25.64 46.8601 25.72 47.5401 25.86C47.9101 25.88 48.2101 25.94 48.4701 25.97C48.4401 25.97 48.4201 25.97 48.4201 25.97C48.6101 26.03 48.7401 26.05 48.8101 26.07C48.8101 26.05 48.8201 26.04 48.8201 26.02C48.7901 26.01 48.7601 25.99 48.7101 25.97C48.7601 25.95 48.7901 25.94 48.8301 25.93ZM33.5001 18.36C37.7501 19.63 41.2801 22.17 43.3501 25.03C43.1101 25.03 42.8801 25.03 42.6301 25.04C40.8501 25.02 38.8901 25.48 36.8301 26.21C35.9701 23.98 34.7301 21.69 32.9701 19.45C32.5601 18.9 32.1301 18.38 31.7101 17.88C32.3001 18.02 32.9001 18.18 33.5001 18.36ZM19.3401 14.05C20.3201 12.92 21.1801 11.75 21.8801 10.6C23.7201 11.93 25.7001 13.58 27.6701 15.56C24.5801 15.02 21.7401 14.65 19.3401 14.05ZM25.8701 23.97C24.9701 26.42 24.9501 28.9 25.4901 31.13C21.6501 32.55 17.7901 32.79 14.7101 32.16C15.6201 28.1 18.7201 23.32 23.6701 19.94C25.1901 18.86 26.7601 17.94 28.3101 17.08C28.4301 17.11 28.5501 17.13 28.6801 17.16C27.7301 19.26 26.7201 21.52 25.8701 23.97ZM27.2701 24.38C28.0301 22.16 28.9601 19.99 29.8201 17.89C30.4901 18.66 31.1601 19.47 31.8001 20.33C33.4601 22.41 34.6901 24.56 35.6001 26.66C32.9401 27.69 30.1101 29.09 27.2201 30.42C27.0601 30.49 26.9101 30.56 26.7501 30.63C26.4101 28.68 26.5201 26.54 27.2701 24.38ZM27.1201 32.06C27.3501 31.96 27.5801 31.87 27.8101 31.76C30.8001 30.38 33.5501 28.92 36.0701 27.79C36.7601 29.61 37.2201 31.38 37.5001 33.02C35.8401 33.23 34.0701 33.59 32.2601 34.12C31.0001 34.44 29.8301 34.84 28.7301 35.3C28.0501 34.36 27.5001 33.26 27.1201 32.06ZM37.7901 39.23C36.6001 39.16 35.1101 38.96 33.4201 38.46C32.0701 38.21 30.7901 37.47 29.7001 36.4C30.6401 36.08 31.6401 35.78 32.6801 35.52C34.4201 35.01 36.1101 34.59 37.6901 34.28C37.9201 36.21 37.9101 37.91 37.7901 39.23ZM45.2701 29.58C45.4101 31.11 45.2301 32.39 44.9401 33.42C44.4101 33.22 43.7901 33.06 43.0901 32.98C41.7501 32.77 40.1601 32.75 38.4101 32.91C38.2401 31.16 37.8701 29.26 37.2101 27.29C39.1701 26.47 40.9901 25.9 42.6901 25.77C43.0701 25.73 43.4401 25.7 43.7901 25.68C44.6101 26.96 45.1301 28.29 45.2701 29.58Z" fill="url(#paint1_radial_2042_842)"/>
<path d="M30.6099 5.23002C34.8099 9.43002 33.6699 17.37 28.0799 22.96C22.4799 28.56 14.5399 29.69 10.3499 25.49C6.14994 21.29 7.28994 13.35 12.8799 7.76002C18.4699 2.16002 26.4099 1.03002 30.6099 5.23002Z" fill="url(#paint2_linear_2042_842)"/>
<path d="M17.3201 7.70005C18.1001 8.48005 17.7201 10.1201 16.4801 11.3601C15.2401 12.6001 13.6001 12.9801 12.8201 12.2001C12.0401 11.4201 12.4201 9.78005 13.6601 8.54005C14.9001 7.29005 16.5401 6.92005 17.3201 7.70005Z" fill="white"/>
<path d="M12.2299 14.27C12.6799 14.72 12.6799 15.46 12.2299 15.91C11.7799 16.36 11.0399 16.36 10.5899 15.91C10.1399 15.46 10.1399 14.72 10.5899 14.27C11.0299 13.82 11.7699 13.82 12.2299 14.27Z" fill="white"/>
<path d="M40.5402 39.28C41.5402 38.38 42.4002 37.33 43.0902 36.14C43.7002 35.92 44.2802 35.65 44.8502 35.33C44.9102 35.25 44.9802 35.16 45.0402 35.07C44.4502 35.42 43.8302 35.72 43.1802 35.96C43.3302 35.69 43.4902 35.41 43.6202 35.13C44.1002 34.11 44.4202 33.04 44.6102 31.96C45.6802 31.56 46.6902 31.02 47.6102 30.37C47.6402 30.29 47.6702 30.22 47.7002 30.14C46.7602 30.83 45.7302 31.39 44.6402 31.8C44.8702 30.39 44.8702 28.95 44.6202 27.53C45.9902 27.02 47.2402 26.3 48.3302 25.4C48.4502 26.1 48.5002 26.81 48.5102 27.53C48.5602 27.33 48.6002 27.13 48.6402 26.94C48.6102 26.39 48.5502 25.84 48.4602 25.3C48.6402 25.15 48.8102 24.98 48.9802 24.82C48.9902 24.75 49.0002 24.68 49.0102 24.6C48.8202 24.78 48.6402 24.96 48.4402 25.13C48.1802 23.72 47.6802 22.37 46.9602 21.12C47.6702 20.52 48.2902 19.85 48.8402 19.13C48.8302 19.07 48.8202 19 48.8102 18.94C48.2502 19.69 47.6102 20.38 46.8802 21C46.5202 20.39 46.1202 19.8 45.6502 19.24C45.1802 18.68 44.6602 18.18 44.1102 17.71C44.6602 17.24 45.1702 16.74 45.6502 16.18C46.1202 15.62 46.5202 15.03 46.8802 14.41C47.2502 14.72 47.5902 15.06 47.9102 15.4C47.8702 15.28 47.8202 15.17 47.7802 15.06C47.5202 14.79 47.2402 14.53 46.9502 14.29C47.0602 14.11 47.1402 13.92 47.2402 13.73C47.2102 13.68 47.1902 13.62 47.1702 13.57C47.0602 13.78 46.9602 14 46.8402 14.21C46.2902 13.76 45.7102 13.34 45.0802 12.98C44.4402 12.61 43.7902 12.31 43.1202 12.07C43.4702 11.45 43.7902 10.8 44.0402 10.11C44.1702 9.76002 44.2802 9.40002 44.3702 9.04002C44.3302 8.99002 44.3002 8.95002 44.2602 8.90002C44.1602 9.29002 44.0502 9.68002 43.9102 10.07C43.6602 10.76 43.3402 11.41 42.9902 12.02C41.6102 11.53 40.1802 11.29 38.7602 11.28C39.4602 10.05 39.9802 8.69002 40.2402 7.24002C40.9602 7.24002 41.6702 7.30002 42.3902 7.42002C42.6302 7.46002 42.8502 7.52002 43.0902 7.58002C43.0302 7.52002 42.9802 7.46002 42.9202 7.40002C42.7502 7.36002 42.5902 7.32002 42.4202 7.29002C41.7002 7.16002 40.9702 7.11002 40.2602 7.10002C40.3602 6.49002 40.4202 5.87002 40.4402 5.24002C40.4002 5.21002 40.3502 5.17002 40.3002 5.14002C40.2902 5.81002 40.2202 6.46002 40.1102 7.10002C38.6502 7.11002 37.2302 7.37002 35.8902 7.85002C36.1302 6.43002 36.1302 4.98002 35.8902 3.56002C36.2802 3.42002 36.6802 3.30002 37.0802 3.20002C37.0102 3.17002 36.9502 3.13002 36.8802 3.10002C36.5302 3.19002 36.1902 3.30002 35.8602 3.42002C35.8102 3.13002 35.7402 2.85002 35.6702 2.56002C35.6202 2.54002 35.5702 2.52002 35.5202 2.50002C35.6002 2.82002 35.6702 3.14002 35.7302 3.46002C34.3702 3.96002 33.1202 4.68002 32.0202 5.60002C31.7602 4.19002 31.2702 2.83002 30.5502 1.58002C30.6802 1.47002 30.8302 1.37002 30.9602 1.26002C30.9002 1.25002 30.8402 1.24002 30.7702 1.23002C30.6702 1.31002 30.5702 1.38002 30.4702 1.46002C30.4102 1.36002 30.3502 1.27002 30.2902 1.17002C30.2302 1.16002 30.1702 1.16002 30.1102 1.15002C30.1902 1.28002 30.2902 1.41002 30.3702 1.55002C29.2702 2.48002 28.3402 3.59002 27.6202 4.82002C26.8902 3.58002 25.9702 2.48002 24.8702 1.55002C24.9502 1.41002 25.0402 1.28002 25.1202 1.15002C25.0602 1.16002 25.0002 1.16002 24.9402 1.17002C24.8802 1.27002 24.8102 1.36002 24.7502 1.46002C24.6502 1.38002 24.5502 1.31002 24.4502 1.23002C24.3902 1.24002 24.3202 1.25002 24.2602 1.26002C24.4002 1.37002 24.5402 1.47002 24.6702 1.58002C23.9502 2.85002 23.4702 4.21002 23.2102 5.61002C22.1002 4.69002 20.8502 3.97002 19.4902 3.47002C19.5502 3.15002 19.6202 2.83002 19.7002 2.51002C19.6502 2.53002 19.6002 2.55002 19.5502 2.57002C19.4802 2.86002 19.4102 3.14002 19.3602 3.43002C19.0202 3.31002 18.6802 3.20002 18.3402 3.11002C18.2702 3.14002 18.2102 3.17002 18.1402 3.21002C18.5402 3.31002 18.9402 3.43002 19.3302 3.57002C19.0802 5.00002 19.0802 6.44002 19.3302 7.86002C18.0002 7.38002 16.5802 7.11002 15.1102 7.10002C15.0002 6.46002 14.9402 5.81002 14.9302 5.14002C14.8802 5.17002 14.8402 5.21002 14.8002 5.24002C14.8202 5.87002 14.8702 6.50002 14.9802 7.10002C14.2702 7.10002 13.5502 7.16002 12.8202 7.29002C12.6502 7.32002 12.4802 7.37002 12.3202 7.40002C12.2602 7.46002 12.2102 7.52002 12.1502 7.58002C12.3802 7.52002 12.6102 7.46002 12.8502 7.42002C13.5702 7.29002 14.2902 7.24002 15.0002 7.24002C15.2602 8.69002 15.7702 10.04 16.4802 11.28C15.0602 11.29 13.6302 11.52 12.2502 12.02C11.9002 11.4 11.5802 10.75 11.3302 10.06C11.1902 9.67002 11.0802 9.28002 10.9802 8.89002C10.9402 8.94002 10.9102 8.98002 10.8702 9.03002C10.9602 9.39002 11.0702 9.75002 11.2002 10.11C11.4502 10.8 11.7602 11.45 12.1202 12.07C11.4502 12.32 10.7902 12.62 10.1602 12.98C9.53021 13.35 8.95021 13.77 8.40021 14.22C8.28021 14.01 8.18021 13.79 8.07021 13.58C8.05021 13.63 8.02022 13.69 8.00022 13.74C8.10022 13.93 8.19021 14.12 8.29022 14.31C8.00022 14.56 7.72021 14.82 7.45021 15.09C7.41021 15.2 7.36022 15.32 7.32022 15.43C7.65022 15.08 7.99021 14.74 8.36021 14.43C8.72021 15.04 9.12022 15.63 9.59022 16.19C10.0602 16.75 10.5802 17.26 11.1202 17.72C10.5702 18.18 10.0602 18.69 9.59022 19.25C9.10022 19.81 8.70022 20.4 8.34022 21.01C7.61022 20.4 6.98021 19.7 6.41021 18.95C6.40021 19.01 6.39022 19.08 6.38022 19.14C6.94022 19.86 7.56022 20.54 8.27022 21.13C7.54022 22.4 7.05022 23.75 6.80022 25.14C6.60022 24.97 6.41021 24.79 6.22021 24.6C6.23021 24.67 6.24021 24.74 6.24021 24.8C6.42021 24.97 6.58022 25.15 6.77022 25.3C6.67022 25.87 6.62021 26.45 6.60021 27.02C6.64021 27.2 6.68021 27.38 6.72021 27.56C6.72021 26.84 6.77021 26.12 6.89021 25.4C8.00021 26.31 9.25022 27.03 10.6002 27.52C10.3502 28.96 10.3502 30.4 10.5902 31.79C9.49022 31.38 8.46022 30.81 7.52022 30.12C7.55022 30.2 7.58022 30.27 7.61022 30.35C8.54022 31.01 9.55021 31.55 10.6202 31.95C10.8702 33.35 11.3602 34.7 12.0502 35.94C11.4002 35.7 10.7802 35.39 10.1802 35.04C10.2502 35.13 10.3102 35.22 10.3802 35.31C10.9502 35.62 11.5402 35.9 12.1502 36.12C12.8302 37.29 13.6902 38.35 14.7202 39.26C14.3302 39.11 13.9502 38.92 13.5802 38.73C13.7202 38.85 13.8602 38.98 14.0102 39.1C14.3402 39.25 14.6902 39.39 15.0302 39.52C16.1402 40.45 17.4202 41.22 18.8602 41.74C20.2902 42.26 21.7802 42.51 23.2602 42.51C24.6202 43 26.0902 43.29 27.6202 43.29C29.1502 43.29 30.6202 43.01 31.9802 42.51C33.4602 42.51 34.9502 42.27 36.3802 41.74C37.8102 41.22 39.1002 40.46 40.2302 39.51C40.5702 39.39 40.9002 39.25 41.2302 39.1C41.3702 38.98 41.5102 38.86 41.6602 38.73C41.2802 38.96 40.9202 39.13 40.5402 39.28ZM43.4902 35.08C43.3402 35.41 43.1602 35.72 42.9902 36.04C42.6502 36.16 42.3102 36.28 41.9602 36.37C40.9102 36.65 39.8502 36.78 38.7802 36.79C39.4802 35.56 39.9702 34.2 40.2302 32.76C41.6902 32.75 43.1202 32.5 44.4502 32.03C44.2602 33.07 43.9502 34.1 43.4902 35.08ZM29.2502 22.22C29.9602 23.38 30.8502 24.42 31.9102 25.31C31.9702 25.67 32.0202 26.03 32.0602 26.39C32.1502 27.46 32.1002 28.52 31.9302 29.56C30.8502 28.63 29.9202 27.52 29.2102 26.29C29.4402 24.93 29.4502 23.56 29.2502 22.22ZM31.3802 19.98C32.4702 20.9 33.4002 21.98 34.1302 23.18C32.8202 22.68 31.5902 21.95 30.5002 21.03C29.9802 20.14 29.3602 19.32 28.6402 18.57C29.4902 19.16 30.4102 19.62 31.3802 19.98ZM28.1002 18C29.1802 18.45 30.1702 19.02 31.0502 19.71C30.0002 19.28 29.0102 18.7 28.1002 18ZM28.8602 18.17C29.8702 18.42 30.8802 18.53 31.8902 18.54C33.2502 19.03 34.5102 19.73 35.6102 20.63C34.1702 20.61 32.7602 20.33 31.4302 19.84C30.6602 19.2 29.8002 18.63 28.8602 18.17ZM28.1702 17.82C29.3302 17.87 30.4502 18.07 31.5102 18.41C30.4002 18.37 29.2802 18.17 28.1702 17.82ZM28.0902 17.44C29.0102 16.73 30.0002 16.16 31.0502 15.73C30.1602 16.43 29.1602 17 28.0902 17.44ZM30.1602 20.76C29.3302 20.01 28.5902 19.13 27.9702 18.15C28.8302 18.93 29.5602 19.8 30.1602 20.76ZM30.3702 21.11C31.0902 22.34 31.6002 23.68 31.8802 25.1C30.7902 24.16 29.9002 23.06 29.2002 21.83C29.0202 20.81 28.7102 19.82 28.2802 18.86C28.8902 19.71 29.6002 20.46 30.3702 21.11ZM32.0402 25.24C31.8002 23.88 31.3402 22.58 30.6902 21.39C31.7602 22.24 32.9602 22.9 34.2202 23.36C34.9402 24.6 35.4302 25.96 35.7002 27.38C34.7202 27.01 33.7802 26.53 32.8902 25.91C32.6002 25.69 32.3202 25.47 32.0402 25.24ZM34.4202 23.43C35.7602 23.9 37.1802 24.15 38.6102 24.16C39.3202 25.39 39.8302 26.75 40.1002 28.2C38.6502 28.19 37.2302 27.93 35.8702 27.44C35.6102 26.02 35.1202 24.67 34.4202 23.43ZM34.3202 23.25C33.6402 22.09 32.7902 21.02 31.7602 20.11C33.0402 20.54 34.4002 20.77 35.7802 20.77C36.8702 21.69 37.7902 22.78 38.5202 24.01C37.0802 24 35.6602 23.74 34.3202 23.25ZM32.3302 18.55C33.7002 18.51 35.0402 18.24 36.3102 17.79C37.6602 18.28 38.9102 19 40.0302 19.91C39.0402 20.26 38.0102 20.49 36.9402 20.59C36.5702 20.62 36.1902 20.63 35.8202 20.63C34.7702 19.77 33.6002 19.06 32.3302 18.55ZM31.9102 18.41C30.9602 18.07 29.9702 17.83 28.9402 17.72C29.9702 17.61 30.9602 17.37 31.9102 17.03C33.3502 17.02 34.7702 17.25 36.1102 17.72C34.7702 18.18 33.3502 18.41 31.9102 18.41ZM28.1702 17.62C29.2802 17.27 30.4002 17.07 31.5202 17.03C30.4502 17.38 29.3302 17.57 28.1702 17.62ZM31.8902 16.89C30.8902 16.9 29.8702 17.01 28.8602 17.26C29.8002 16.8 30.6702 16.23 31.4702 15.57C32.7902 15.09 34.1802 14.82 35.6102 14.79C34.5102 15.7 33.2502 16.41 31.8902 16.89ZM31.3902 15.45C30.4202 15.81 29.4902 16.28 28.6302 16.87C29.3602 16.12 29.9802 15.29 30.4902 14.41C31.5902 13.49 32.8202 12.76 34.1302 12.26C33.4102 13.48 32.4702 14.55 31.3902 15.45ZM27.9802 17.29C28.6002 16.31 29.3402 15.43 30.1602 14.69C29.5702 15.63 28.8302 16.5 27.9802 17.29ZM27.8002 17.2C28.0502 16.07 28.4402 14.99 28.9702 13.99C28.7402 15.09 28.3402 16.16 27.8002 17.2ZM28.9702 21.45C28.4402 20.45 28.0502 19.37 27.8002 18.23C28.3402 19.26 28.7402 20.34 28.9702 21.45ZM27.8402 19.02C28.1302 20.03 28.5402 20.99 29.0502 21.89C29.3002 23.27 29.3202 24.69 29.1002 26.1C28.4102 24.87 27.9402 23.52 27.6902 22.11C27.8602 21.1 27.9202 20.06 27.8402 19.02ZM29.0602 26.3C29.0002 26.67 28.9202 27.03 28.8202 27.39C28.5402 28.43 28.1202 29.41 27.6102 30.33C27.1002 29.41 26.6802 28.43 26.4002 27.39C26.3102 27.04 26.2302 26.68 26.1702 26.32C26.8602 25.12 27.3402 23.84 27.6102 22.5C27.8902 23.85 28.3902 25.13 29.0602 26.3ZM27.6202 21.68C27.4702 20.57 27.4702 19.43 27.6202 18.28C27.7702 19.43 27.7702 20.57 27.6202 21.68ZM27.5402 22.07C27.3002 23.5 26.8202 24.86 26.1302 26.1C25.9002 24.69 25.9302 23.27 26.1702 21.89C26.6802 20.99 27.0902 20.04 27.3802 19.03C27.3102 20.06 27.3802 21.08 27.5402 22.07ZM25.0702 20.76C25.6602 19.81 26.4002 18.94 27.2602 18.15C26.6402 19.12 25.9102 20 25.0702 20.76ZM26.9502 18.87C26.5202 19.82 26.2302 20.81 26.0502 21.81C25.3502 23.04 24.4502 24.15 23.3602 25.1C23.6302 23.72 24.1302 22.38 24.8502 21.14C25.6402 20.47 26.3402 19.71 26.9502 18.87ZM24.1902 19.7C25.0702 19.01 26.0602 18.45 27.1302 18C26.2102 18.71 25.2202 19.28 24.1902 19.7ZM24.1702 15.73C25.2202 16.16 26.2102 16.73 27.1302 17.44C26.0602 17 25.0702 16.43 24.1702 15.73ZM23.7102 17.03C24.8402 17.07 25.9702 17.27 27.0702 17.62C25.9002 17.57 24.7702 17.37 23.7102 17.03ZM26.3702 18.17C25.4302 18.62 24.5902 19.19 23.8102 19.83C22.4602 20.33 21.0502 20.6 19.6302 20.62C20.7202 19.74 21.9602 19.04 23.3102 18.55C24.3302 18.55 25.3602 18.43 26.3702 18.17ZM23.7102 18.41C24.7802 18.06 25.9002 17.87 27.0702 17.82C25.9702 18.17 24.8402 18.37 23.7102 18.41ZM23.8802 19.96C24.8202 19.61 25.7302 19.16 26.5902 18.58C25.8602 19.33 25.2602 20.16 24.7502 21.03C23.6702 21.95 22.4402 22.69 21.1002 23.2C21.8302 21.98 22.7702 20.88 23.8802 19.96ZM24.5402 21.39C23.8902 22.6 23.4502 23.89 23.2102 25.22C22.9302 25.46 22.6302 25.69 22.3302 25.91C21.4502 26.53 20.5002 27.01 19.5202 27.38C19.7902 25.97 20.2802 24.62 20.9902 23.39C22.2802 22.91 23.4802 22.23 24.5402 21.39ZM23.3202 25.31C24.3802 24.42 25.2602 23.38 25.9702 22.22C25.7702 23.57 25.8002 24.94 26.0302 26.27C25.3202 27.51 24.3902 28.62 23.3002 29.56C23.0802 28.14 23.0802 26.71 23.3202 25.31ZM26.2602 21.45C26.5002 20.34 26.8902 19.26 27.4302 18.23C27.1802 19.37 26.7902 20.45 26.2602 21.45ZM26.2602 13.99C26.7902 14.99 27.1802 16.07 27.4302 17.21C26.8902 16.17 26.4902 15.1 26.2602 13.99ZM25.0702 14.69C25.9002 15.44 26.6302 16.31 27.2502 17.29C26.4002 16.51 25.6602 15.63 25.0702 14.69ZM26.6002 16.87C25.7302 16.28 24.8102 15.81 23.8402 15.46C22.7602 14.56 21.8302 13.49 21.1002 12.26C22.4302 12.77 23.6702 13.5 24.7702 14.44C25.2702 15.3 25.8702 16.12 26.6002 16.87ZM26.3702 17.27C25.3602 17.01 24.3302 16.89 23.3002 16.88C21.9502 16.39 20.7002 15.69 19.6102 14.8C21.0402 14.82 22.4302 15.09 23.7502 15.58C24.5502 16.24 25.4302 16.81 26.3702 17.27ZM26.2802 17.72C25.2402 17.83 24.2402 18.07 23.2902 18.41C21.8702 18.42 20.4502 18.19 19.0802 17.72C20.4502 17.24 21.8702 17.02 23.2902 17.03C24.2502 17.37 25.2502 17.61 26.2802 17.72ZM22.9002 18.55C21.6302 19.05 20.4602 19.76 19.4202 20.63C17.9902 20.63 16.5602 20.38 15.2002 19.91C16.0102 19.25 16.9002 18.67 17.8802 18.21C18.2102 18.06 18.5502 17.92 18.8902 17.8C20.1902 18.27 21.5402 18.52 22.9002 18.55ZM19.4702 20.76C20.8202 20.75 22.1702 20.55 23.4702 20.11C22.4402 21.02 21.5902 22.09 20.9102 23.26C20.5602 23.39 20.2102 23.5 19.8502 23.6C18.8102 23.88 17.7602 24.01 16.7102 24.02C17.4402 22.79 18.3702 21.68 19.4702 20.76ZM19.8802 23.74C20.1902 23.66 20.5002 23.56 20.8002 23.45C20.1102 24.69 19.6202 26.03 19.3602 27.44C18.0002 27.93 16.5802 28.19 15.1302 28.2C15.4002 26.75 15.9002 25.4 16.6202 24.17C17.7102 24.16 18.8002 24.02 19.8802 23.74ZM19.4902 27.54C20.5102 27.16 21.4902 26.66 22.4102 26.02C22.6802 25.83 22.9302 25.64 23.1802 25.43C22.9502 26.83 22.9502 28.26 23.1902 29.66C22.1002 30.57 20.8502 31.31 19.4802 31.83C19.2202 30.38 19.2402 28.93 19.4902 27.54ZM23.2102 29.83C23.4702 31.22 23.9402 32.59 24.6702 33.86C24.1202 34.32 23.5302 34.74 22.9002 35.1C22.2702 35.46 21.6102 35.76 20.9502 36C20.6002 35.38 20.2902 34.74 20.0402 34.06C19.7902 33.37 19.6202 32.67 19.4902 31.97C20.8502 31.47 22.1102 30.75 23.2102 29.83ZM23.3302 29.72C24.1602 29.02 24.9102 28.21 25.5502 27.3C25.7402 27.03 25.9102 26.76 26.0702 26.49C26.3302 27.88 26.8302 29.23 27.5302 30.47C26.8102 31.72 25.8802 32.83 24.7802 33.77C24.0602 32.49 23.5802 31.12 23.3302 29.72ZM27.6202 30.6C28.3402 31.82 29.2502 32.94 30.3702 33.89C30.0102 34.51 29.6002 35.1 29.1302 35.66C28.6702 36.22 28.1502 36.72 27.6102 37.18C27.0702 36.72 26.5502 36.22 26.0902 35.66C25.6202 35.1 25.2202 34.5 24.8602 33.88C25.9702 32.95 26.8902 31.85 27.6202 30.6ZM27.6902 30.47C28.2302 29.52 28.6602 28.51 28.9502 27.43C29.0302 27.12 29.1002 26.8 29.1602 26.49C29.8802 27.71 30.8102 28.81 31.8902 29.73C31.6402 31.15 31.1502 32.52 30.4302 33.78C29.3402 32.83 28.4202 31.72 27.6902 30.47ZM32.0302 29.82C33.1202 30.72 34.3602 31.46 35.7402 31.97C35.6102 32.67 35.4402 33.37 35.1902 34.06C34.9402 34.74 34.6302 35.39 34.2802 36C33.6102 35.75 32.9602 35.46 32.3302 35.1C31.7002 34.74 31.1102 34.31 30.5602 33.86C31.2702 32.6 31.7702 31.24 32.0302 29.82ZM32.0502 29.67C32.2302 28.6 32.2902 27.5 32.1902 26.38C32.1602 26.06 32.1202 25.75 32.0702 25.44C32.3102 25.64 32.5602 25.83 32.8202 26.02C33.7402 26.66 34.7202 27.16 35.7402 27.54C35.9902 28.94 36.0002 30.39 35.7602 31.83C34.3902 31.32 33.1402 30.58 32.0502 29.67ZM35.8902 27.59C37.2402 28.07 38.6702 28.33 40.1102 28.33C40.2302 29.03 40.3102 29.75 40.3102 30.48C40.3102 31.21 40.2402 31.92 40.1202 32.61C39.4102 32.61 38.7002 32.56 37.9802 32.43C37.2602 32.3 36.5602 32.1 35.8902 31.86C36.1502 30.43 36.1302 28.99 35.8902 27.59ZM38.7602 24.16C40.1802 24.15 41.6102 23.92 42.9902 23.42C43.3402 24.04 43.6602 24.68 43.9102 25.37C44.1602 26.05 44.3302 26.74 44.4602 27.44C43.7902 27.68 43.1102 27.88 42.3902 28C41.6702 28.13 40.9502 28.18 40.2402 28.18C39.9802 26.75 39.4702 25.39 38.7602 24.16ZM38.6902 24.02C37.9702 22.79 37.0502 21.69 35.9802 20.77C36.3002 20.77 36.6202 20.75 36.9502 20.73C38.0602 20.63 39.1402 20.38 40.1602 20.02C41.2502 20.93 42.1902 22.03 42.9302 23.3C41.5402 23.78 40.1102 24.02 38.6902 24.02ZM36.5002 17.72C37.8302 17.22 39.0802 16.5 40.1902 15.58C41.5502 16.07 42.8102 16.79 43.9202 17.72C42.8002 18.65 41.5402 19.36 40.1902 19.86C39.0702 18.94 37.8302 18.22 36.5002 17.72ZM36.3102 17.65C35.0402 17.19 33.7002 16.93 32.3302 16.89C33.6102 16.38 34.7802 15.67 35.8102 14.81C36.1802 14.81 36.5502 14.82 36.9302 14.85C38.0002 14.94 39.0402 15.18 40.0202 15.53C38.9102 16.44 37.6502 17.16 36.3102 17.65ZM35.7802 14.66C34.4002 14.66 33.0502 14.89 31.7702 15.32C32.7802 14.42 33.6502 13.37 34.3502 12.17C35.6902 11.69 37.1002 11.44 38.5302 11.42C37.7902 12.65 36.8702 13.75 35.7802 14.66ZM34.2402 12.08C32.9702 12.55 31.7702 13.2 30.7002 14.05C31.3502 12.86 31.8102 11.56 32.0502 10.2C32.3302 9.97003 32.6102 9.74002 32.9102 9.53002C33.7902 8.91002 34.7402 8.43002 35.7202 8.06002C35.5202 9.09002 35.2102 10.11 34.7602 11.09C34.6002 11.43 34.4202 11.76 34.2402 12.08ZM30.3602 14.34C29.5902 14.99 28.8902 15.73 28.2802 16.57C28.7102 15.61 29.0102 14.62 29.2002 13.6C29.9002 12.38 30.7902 11.28 31.8702 10.34C31.6002 11.74 31.0902 13.09 30.3602 14.34ZM29.0402 13.6C28.5402 14.47 28.1302 15.41 27.8502 16.41C27.9302 15.36 27.8702 14.32 27.6902 13.31C27.9302 11.92 28.3902 10.58 29.0902 9.33002C29.3102 10.74 29.2902 12.18 29.0402 13.6ZM27.6202 17.17C27.4702 16.02 27.4602 14.87 27.6202 13.75C27.7702 14.87 27.7702 16.02 27.6202 17.17ZM27.3902 16.41C27.1002 15.4 26.6902 14.46 26.1902 13.59C25.9402 12.19 25.9102 10.75 26.1402 9.32002C26.8402 10.57 27.3002 11.92 27.5502 13.31C27.3702 14.33 27.3102 15.37 27.3902 16.41ZM26.0402 13.6C26.2202 14.62 26.5302 15.61 26.9502 16.57C26.3402 15.73 25.6302 14.99 24.8702 14.34C24.1402 13.09 23.6302 11.74 23.3602 10.35C24.4402 11.28 25.3402 12.39 26.0402 13.6ZM24.5402 14.05C23.4602 13.2 22.2602 12.54 20.9902 12.07C20.8102 11.75 20.6302 11.42 20.4702 11.08C20.0102 10.1 19.7002 9.09002 19.5102 8.05002C20.4902 8.42002 21.4402 8.90003 22.3202 9.52003C22.6302 9.74003 22.9202 9.97003 23.2002 10.21C23.4502 11.55 23.8902 12.85 24.5402 14.05ZM23.4602 15.32C22.1802 14.89 20.8302 14.66 19.4502 14.66C18.3602 13.74 17.4402 12.65 16.7102 11.42C18.1402 11.44 19.5502 11.69 20.8902 12.17C21.5802 13.37 22.4502 14.43 23.4602 15.32ZM22.9002 16.89C21.5402 16.93 20.1902 17.17 18.8902 17.65C18.5502 17.53 18.2102 17.39 17.8802 17.24C16.9002 16.78 16.0102 16.2 15.2002 15.54C16.1902 15.19 17.2302 14.95 18.3002 14.86C18.6702 14.83 19.0502 14.82 19.4202 14.82C20.4602 15.67 21.6202 16.38 22.9002 16.89ZM17.8202 17.36C18.1102 17.49 18.4002 17.61 18.6902 17.72C18.4002 17.83 18.1002 17.95 17.8102 18.08C16.8002 18.55 15.8802 19.15 15.0402 19.85C13.7102 19.36 12.4402 18.65 11.3102 17.72C12.4202 16.8 13.6802 16.08 15.0302 15.59C15.8802 16.28 16.8102 16.88 17.8202 17.36ZM15.0702 20.01C16.4202 20.49 17.8402 20.74 19.2702 20.76C18.1902 21.69 17.2602 22.79 16.5402 24.03C15.1002 24.03 13.6702 23.79 12.3002 23.3C13.0302 22.04 13.9702 20.94 15.0702 20.01ZM16.4602 24.17C15.7602 25.4 15.2502 26.75 14.9902 28.2C14.2702 28.2 13.5502 28.14 12.8402 28.02C12.1202 27.89 11.4302 27.7 10.7702 27.46C10.9002 26.77 11.0702 26.07 11.3202 25.39C11.5702 24.7 11.8802 24.05 12.2402 23.43C13.6002 23.91 15.0202 24.16 16.4602 24.17ZM15.1102 28.33C16.5602 28.33 17.9802 28.07 19.3302 27.59C19.0902 28.99 19.0802 30.43 19.3202 31.87C18.6502 32.11 17.9602 32.31 17.2302 32.44C16.5102 32.57 15.8002 32.62 15.0902 32.62C14.9702 31.92 14.9002 31.21 14.9002 30.49C14.9202 29.75 14.9902 29.04 15.1102 28.33ZM17.2702 32.58C17.9902 32.45 18.6802 32.26 19.3602 32.02C19.4902 32.72 19.6702 33.42 19.9202 34.11C20.1702 34.79 20.4802 35.44 20.8302 36.05C19.4502 36.54 18.0202 36.78 16.6102 36.79C15.9002 35.56 15.4002 34.2 15.1402 32.76C15.8402 32.76 16.5502 32.71 17.2702 32.58ZM20.8902 36.17C21.6102 37.42 22.5402 38.53 23.6302 39.46C22.6302 39.81 21.5902 40.05 20.5102 40.15C20.1502 40.18 19.7902 40.19 19.4402 40.19C18.3502 39.27 17.4202 38.16 16.6902 36.93C18.1002 36.92 19.5202 36.67 20.8902 36.17ZM21.0202 36.13C21.6802 35.88 22.3402 35.59 22.9702 35.23C23.6002 34.86 24.1902 34.44 24.7402 33.98C25.1002 34.6 25.5102 35.19 25.9802 35.76C26.4502 36.32 26.9602 36.82 27.5002 37.28C26.3902 38.21 25.1302 38.93 23.7802 39.42C22.6902 38.48 21.7502 37.38 21.0202 36.13ZM27.6202 37.36C28.7302 38.29 29.9702 39.01 31.3202 39.51C30.5002 40.18 29.6002 40.76 28.6202 41.22C28.2902 41.37 27.9602 41.5 27.6202 41.63C27.2802 41.51 26.9502 41.37 26.6202 41.22C25.6402 40.76 24.7402 40.18 23.9202 39.51C25.2602 39.01 26.5102 38.29 27.6202 37.36ZM27.7202 37.27C28.2602 36.81 28.7802 36.31 29.2402 35.75C29.7102 35.19 30.1202 34.59 30.4802 33.97C31.0302 34.43 31.6202 34.85 32.2502 35.22C32.8802 35.59 33.5402 35.88 34.2002 36.12C33.4702 37.37 32.5402 38.48 31.4302 39.41C30.0902 38.92 28.8302 38.2 27.7202 37.27ZM34.3402 36.17C35.7102 36.66 37.1302 36.91 38.5402 36.93C37.8102 38.17 36.8802 39.27 35.7902 40.19C35.4302 40.19 35.0802 40.18 34.7202 40.15C33.6402 40.06 32.6002 39.81 31.6002 39.46C32.6902 38.53 33.6102 37.43 34.3402 36.17ZM34.4002 36.06C34.7502 35.44 35.0602 34.79 35.3102 34.11C35.5602 33.42 35.7402 32.72 35.8702 32.02C36.5402 32.26 37.2402 32.46 37.9602 32.58C38.6802 32.71 39.3902 32.76 40.1002 32.76C39.8402 34.21 39.3302 35.56 38.6202 36.79C37.1802 36.79 35.7602 36.55 34.4002 36.06ZM44.4902 31.87C43.1502 32.35 41.7302 32.62 40.2602 32.62C40.3802 31.92 40.4502 31.21 40.4502 30.48C40.4502 29.74 40.3802 29.02 40.2602 28.32C40.9802 28.31 41.7002 28.26 42.4202 28.13C43.1402 28 43.8302 27.8 44.5002 27.57C44.7402 29.01 44.7302 30.45 44.4902 31.87ZM48.3102 25.25C47.2202 26.16 45.9702 26.9 44.5902 27.4C44.4602 26.7 44.2902 26.01 44.0402 25.33C43.7902 24.64 43.4802 23.99 43.1202 23.37C43.7902 23.12 44.4502 22.83 45.0802 22.46C45.7102 22.09 46.2902 21.67 46.8402 21.22C47.5702 22.47 48.0602 23.83 48.3102 25.25ZM45.5502 19.34C46.0202 19.89 46.4202 20.49 46.7802 21.1C46.2402 21.55 45.6602 21.97 45.0302 22.34C44.3902 22.71 43.7302 23 43.0702 23.25C42.3302 21.99 41.3902 20.89 40.3102 19.97C41.6602 19.47 42.9102 18.75 44.0202 17.82C44.5602 18.28 45.0802 18.78 45.5502 19.34ZM43.0602 12.2C43.7302 12.45 44.3902 12.74 45.0202 13.11C45.6502 13.47 46.2302 13.89 46.7702 14.34C46.4102 14.95 46.0102 15.54 45.5402 16.1C45.0702 16.66 44.5502 17.16 44.0102 17.63C42.9002 16.7 41.6402 15.98 40.3002 15.48C41.3802 14.56 42.3202 13.46 43.0602 12.2ZM42.9202 12.15C42.1802 13.42 41.2402 14.52 40.1502 15.43C39.1302 15.06 38.0502 14.81 36.9402 14.72C36.6202 14.69 36.3002 14.68 35.9702 14.68C37.0402 13.76 37.9602 12.66 38.6802 11.43C40.1102 11.42 41.5402 11.65 42.9202 12.15ZM40.0902 7.24002C39.8302 8.69002 39.3102 10.05 38.6002 11.28C37.1802 11.29 35.7702 11.54 34.4302 12C34.5902 11.72 34.7402 11.44 34.8702 11.14C35.3402 10.13 35.6602 9.07002 35.8602 8.00002C37.2202 7.51002 38.6502 7.25002 40.0902 7.24002ZM35.7602 3.60002C36.0002 5.03002 36.0002 6.48002 35.7402 7.90002C34.4002 8.40002 33.1602 9.11002 32.0602 10.01C32.1102 9.69003 32.1602 9.37002 32.1802 9.05002C32.2802 7.93002 32.2202 6.83002 32.0302 5.76002C33.1502 4.84002 34.4002 4.11002 35.7602 3.60002ZM31.9002 10.16C30.8702 11.03 29.9702 12.06 29.2502 13.22C29.4502 11.88 29.4402 10.5 29.2002 9.14002C29.3802 8.83002 29.5702 8.52002 29.7802 8.22002C30.4002 7.34002 31.1202 6.56002 31.9102 5.88002C32.1502 7.30002 32.1502 8.75002 31.9002 10.16ZM30.4402 1.67002C31.1702 2.95002 31.6502 4.31002 31.8902 5.71002C31.0602 6.42002 30.3102 7.22002 29.6702 8.13002C29.4902 8.39002 29.3202 8.66002 29.1602 8.93002C29.1002 8.62002 29.0402 8.31002 28.9502 8.01002C28.6602 6.93002 28.2302 5.91002 27.6902 4.97002C28.4102 3.72002 29.3402 2.61002 30.4402 1.67002ZM29.0502 9.12002C28.3602 10.32 27.8802 11.6 27.6102 12.93C27.3402 11.6 26.8602 10.31 26.1702 9.12002C26.2302 8.76002 26.3102 8.41002 26.4002 8.05002C26.6802 7.01002 27.0902 6.03002 27.6002 5.12002C28.3102 6.37002 28.8002 7.72002 29.0502 9.12002ZM24.7902 1.68002C25.9102 2.63002 26.8302 3.75002 27.5402 4.98002C27.0002 5.93002 26.5702 6.94002 26.2802 8.02002C26.2002 8.33002 26.1302 8.64002 26.0702 8.95002C25.9102 8.68002 25.7402 8.41002 25.5602 8.15002C24.9202 7.23002 24.1702 6.43002 23.3402 5.73002C23.5802 4.32002 24.0602 2.95002 24.7902 1.68002ZM23.3102 5.88002C24.1002 6.56002 24.8302 7.34002 25.4402 8.22002C25.6502 8.52002 25.8402 8.83002 26.0202 9.14002C25.7802 10.5 25.7702 11.87 25.9702 13.22C25.2502 12.05 24.3502 11.03 23.3202 10.16C23.0802 8.75002 23.0802 7.30002 23.3102 5.88002ZM19.4702 3.60002C20.8302 4.10002 22.0802 4.84002 23.1902 5.76002C22.9502 7.17002 22.9502 8.61003 23.1802 10.02C22.0802 9.12003 20.8302 8.40002 19.4902 7.90002C19.2302 6.49002 19.2202 5.04002 19.4702 3.60002ZM15.1302 7.24002C16.5802 7.25002 18.0002 7.51002 19.3602 8.00002C19.5602 9.07002 19.8802 10.13 20.3502 11.14C20.4902 11.43 20.6402 11.72 20.7902 12C19.4502 11.53 18.0402 11.29 16.6202 11.28C15.9102 10.05 15.4002 8.69002 15.1302 7.24002ZM16.5402 11.42C17.2602 12.65 18.1802 13.75 19.2502 14.67C18.9302 14.67 18.6102 14.69 18.2802 14.71C17.1602 14.81 16.0902 15.06 15.0602 15.42C13.9602 14.49 13.0202 13.39 12.2902 12.14C13.6902 11.66 15.1202 11.42 16.5402 11.42ZM9.68022 16.1C9.21022 15.54 8.81021 14.95 8.46022 14.34C9.00022 13.89 9.58021 13.47 10.2102 13.1C10.8502 12.73 11.5102 12.44 12.1702 12.19C12.9002 13.44 13.8202 14.54 14.9202 15.47C13.5702 15.97 12.3302 16.69 11.2202 17.61C10.6702 17.16 10.1502 16.67 9.68022 16.1ZM9.68022 19.34C10.1502 18.78 10.6702 18.28 11.2102 17.82C12.3402 18.76 13.6002 19.47 14.9202 19.96C13.8202 20.89 12.8902 22 12.1602 23.25C11.4902 23 10.8302 22.71 10.2002 22.34C9.58021 21.97 9.00021 21.55 8.45021 21.1C8.81021 20.49 9.21022 19.9 9.68022 19.34ZM6.92022 25.25C7.17022 23.86 7.65022 22.49 8.38022 21.22C8.93022 21.67 9.51022 22.09 10.1402 22.45C10.7702 22.82 11.4302 23.11 12.1002 23.36C11.7502 23.98 11.4302 24.63 11.1802 25.32C10.9302 26.01 10.7602 26.7 10.6302 27.4C9.26022 26.89 8.01022 26.16 6.92022 25.25ZM10.7402 27.59C11.4102 27.83 12.1002 28.02 12.8102 28.15C13.5302 28.28 14.2502 28.33 14.9702 28.34C14.8502 29.04 14.7802 29.76 14.7802 30.5C14.7802 31.23 14.8602 31.94 14.9702 32.64C13.5002 32.63 12.0802 32.37 10.7502 31.89C10.5002 30.48 10.4902 29.03 10.7402 27.59ZM10.7802 32.04C12.1102 32.51 13.5302 32.76 14.9902 32.77C15.2502 34.21 15.7402 35.56 16.4402 36.79C15.0102 36.77 13.5902 36.52 12.2402 36.04C11.5402 34.8 11.0402 33.44 10.7802 32.04ZM12.3502 36.21C13.6902 36.68 15.1002 36.92 16.5302 36.92C17.2502 38.16 18.1702 39.26 19.2502 40.19C17.8202 40.17 16.4302 39.91 15.1002 39.43C14.0002 38.51 13.0702 37.43 12.3502 36.21ZM18.9002 41.65C17.6002 41.18 16.4302 40.51 15.4002 39.7C16.6802 40.12 18.0202 40.33 19.3802 40.33C20.4102 41.2 21.5902 41.9 22.8602 42.4C21.5302 42.37 20.2002 42.12 18.9002 41.65ZM19.6002 40.33C19.9102 40.32 20.2202 40.32 20.5302 40.29C21.6502 40.19 22.7302 39.94 23.7702 39.57C24.6102 40.27 25.5402 40.88 26.5602 41.36C26.8502 41.49 27.1402 41.6 27.4302 41.72C26.0802 42.19 24.6802 42.42 23.2802 42.42C21.9302 41.92 20.6902 41.22 19.6002 40.33ZM27.6102 43.19C26.2302 43.19 24.9002 42.96 23.6602 42.55C25.0002 42.51 26.3302 42.25 27.6102 41.79C28.8902 42.26 30.2202 42.51 31.5602 42.55C30.3202 42.96 28.9902 43.19 27.6102 43.19ZM31.9502 42.41C30.5502 42.41 29.1502 42.18 27.8002 41.71C28.0902 41.6 28.3902 41.49 28.6702 41.35C29.6902 40.87 30.6202 40.27 31.4602 39.56C32.4902 39.93 33.5702 40.18 34.7002 40.28C35.0102 40.31 35.3202 40.31 35.6302 40.32C34.5402 41.22 33.2902 41.92 31.9502 42.41ZM36.3202 41.65C35.0302 42.12 33.6902 42.36 32.3502 42.41C33.6202 41.9 34.8002 41.2 35.8302 40.34C37.2002 40.34 38.5402 40.12 39.8202 39.7C38.7802 40.52 37.6102 41.18 36.3202 41.65ZM40.1502 39.43C38.8202 39.91 37.4202 40.18 35.9902 40.2C37.0702 39.27 37.9902 38.16 38.7102 36.93C40.1402 36.92 41.5602 36.68 42.9002 36.21C42.1702 37.44 41.2302 38.52 40.1502 39.43Z" fill="#FFED00"/>
<path d="M33.5399 16.15C33.5399 18.67 31.4999 20.71 28.9799 20.71C26.4599 20.71 24.4199 18.67 24.4199 16.15C24.4199 13.63 26.4599 11.59 28.9799 11.59C31.4999 11.59 33.5399 13.64 33.5399 16.15Z" fill="white"/>
<path d="M27.6802 18.7C27.6802 18.74 27.6702 18.79 27.5902 18.79H27.1702C27.0902 18.79 27.0802 18.75 27.0802 18.7V14.32H26.0002C25.9202 14.32 25.9102 14.28 25.9102 14.23V13.9C25.9102 13.86 25.9202 13.81 26.0002 13.81H28.8602C28.9802 13.81 28.9402 13.9 28.9302 13.92L28.8102 14.24C28.8002 14.28 28.7702 14.32 28.6902 14.32H27.6702V18.7H27.6802Z" fill="black"/>
<path d="M31.4104 18.31C31.4904 18.31 31.5004 18.35 31.5004 18.4V18.7C31.5004 18.74 31.4904 18.79 31.4104 18.79H29.4904C29.4504 18.79 29.4004 18.78 29.4004 18.7V18.4C29.4004 18.32 29.4404 18.31 29.4904 18.31H30.1504V14.28H29.4904C29.4104 14.28 29.4004 14.24 29.4004 14.19V13.89C29.4004 13.85 29.4104 13.8 29.4904 13.8H31.4104C31.4904 13.8 31.5004 13.84 31.5004 13.89V14.19C31.5004 14.23 31.4904 14.28 31.4104 14.28H30.7504V18.31H31.4104Z" fill="black"/>
<path d="M54.8901 7.53003H65.3901V9.51003H54.8901V7.53003ZM59.1001 8.75003H61.1901V22.41H59.1001V8.75003Z" fill="white"/>
<path d="M66.0103 11.79H68.1003V26.73H66.0103V11.79ZM69.0403 22.09C68.5503 21.77 68.1903 21.32 67.9603 20.74L68.1003 18.52C68.1003 18.98 68.1803 19.37 68.3503 19.69C68.5103 20.01 68.7502 20.26 69.0602 20.43C69.3702 20.6 69.7503 20.69 70.1903 20.69C70.8803 20.69 71.4103 20.48 71.7903 20.06C72.1703 19.64 72.3603 19.05 72.3603 18.28V15.98C72.3603 15.2 72.1703 14.6 71.7903 14.17C71.4103 13.74 70.8803 13.53 70.1903 13.53C69.7503 13.53 69.3702 13.61 69.0602 13.78C68.7502 13.94 68.5103 14.18 68.3503 14.5C68.1903 14.82 68.1003 15.2 68.1003 15.64L67.8903 13.59C68.2103 12.97 68.6303 12.49 69.1503 12.15C69.6703 11.81 70.2402 11.64 70.8802 11.64C71.6302 11.64 72.2702 11.81 72.8102 12.15C73.3502 12.49 73.7503 12.98 74.0303 13.63C74.3103 14.28 74.4502 15.06 74.4502 15.97V18.28C74.4502 19.18 74.3102 19.95 74.0202 20.59C73.7302 21.23 73.3103 21.72 72.7603 22.06C72.2103 22.4 71.5502 22.57 70.7702 22.57C70.1002 22.56 69.5303 22.4 69.0403 22.09Z" fill="white"/>
<path d="M77.8699 21.75C77.2199 21.21 76.8999 20.38 76.8999 19.28C76.8999 18.23 77.1999 17.44 77.7899 16.92C78.3799 16.39 79.2799 16.13 80.4799 16.13H83.4999L83.6399 17.81H80.4899C79.9399 17.81 79.5399 17.93 79.2699 18.17C78.9999 18.41 78.8699 18.78 78.8699 19.28C78.8699 19.82 79.0499 20.22 79.4099 20.48C79.7699 20.74 80.3099 20.87 81.0399 20.87C81.8399 20.87 82.4299 20.78 82.8299 20.61C83.2199 20.44 83.4199 20.17 83.4199 19.81L83.6299 21.3C83.4499 21.59 83.2199 21.82 82.9499 22.01C82.6799 22.19 82.3699 22.33 82.0099 22.42C81.6499 22.51 81.2599 22.56 80.8099 22.56C79.4899 22.56 78.5099 22.29 77.8699 21.75ZM83.3999 15.68C83.3999 14.98 83.2099 14.44 82.8399 14.06C82.4699 13.67 81.9399 13.48 81.2599 13.48C80.8399 13.48 80.4199 13.54 80.0199 13.67C79.6099 13.8 79.2499 13.98 78.9399 14.21L77.4199 13.17C77.8199 12.69 78.3499 12.31 79.0099 12.04C79.6699 11.77 80.3999 11.64 81.2099 11.64C82.0899 11.64 82.8399 11.8 83.4699 12.11C84.0999 12.42 84.5799 12.87 84.8999 13.46C85.2299 14.05 85.3899 14.76 85.3899 15.59V22.42H83.3999V15.68Z" fill="white"/>
<path d="M88.5601 11.79H90.6501V22.41H88.5601V11.79ZM89.8601 16.25H96.3801V18.13H89.8601V16.25ZM95.2701 11.79H97.3601V22.41H95.2701V11.79Z" fill="white"/>
<path d="M102.44 22.02C101.75 21.66 101.23 21.13 100.87 20.44C100.51 19.75 100.33 18.92 100.33 17.94V16.2C100.33 15.24 100.51 14.42 100.87 13.73C101.23 13.05 101.75 12.53 102.44 12.17C103.13 11.81 103.95 11.63 104.92 11.63C105.47 11.63 105.99 11.7 106.48 11.83C106.97 11.96 107.41 12.16 107.8 12.41C108.19 12.66 108.51 12.97 108.77 13.33L107.27 14.68C106.97 14.34 106.62 14.08 106.22 13.89C105.82 13.71 105.4 13.61 104.96 13.61C104.15 13.61 103.53 13.84 103.09 14.29C102.65 14.74 102.42 15.37 102.42 16.19V17.94C102.42 18.78 102.64 19.43 103.08 19.88C103.52 20.34 104.15 20.57 104.96 20.57C105.4 20.57 105.83 20.47 106.23 20.27C106.63 20.07 106.98 19.79 107.27 19.43L108.77 20.88C108.5 21.24 108.18 21.54 107.79 21.79C107.4 22.04 106.96 22.23 106.47 22.36C105.98 22.49 105.47 22.55 104.92 22.55C103.95 22.56 103.13 22.38 102.44 22.02Z" fill="white"/>
<path d="M109.84 20.52C110.39 20.52 110.81 20.27 111.11 19.77C111.41 19.27 111.57 18.57 111.57 17.66V11.79H113.66V17.95C113.66 18.91 113.52 19.73 113.23 20.42C112.95 21.1 112.54 21.62 112 21.98C111.46 22.33 110.81 22.51 110.05 22.51H109.85V20.52H109.84ZM112.87 11.79H118.08V13.78H112.87V11.79ZM116.98 11.79H119.07V22.41H116.98V11.79Z" fill="white"/>
<path d="M129.01 22.4V14.86L129.26 15.13L124.15 22.41H122.34V11.79H124.41V19.51L124.16 19.24L129.29 11.79H131.08V22.4H129.01Z" fill="white"/>
<path d="M133.13 11.79H141.38V13.67H133.13V11.79ZM136.21 12.9H138.3V22.41H136.21V12.9Z" fill="white"/>
<path d="M158.89 22.4V10.7L159.14 10.97L151.68 22.4H149.97V7.53003H152.04V19.4L151.79 19.13L159.27 7.53003H160.96V22.4H158.89Z" fill="white"/>
<path d="M164.44 11.79H166.53V22.41H164.44V11.79ZM165.74 16.25H172.26V18.13H165.74V16.25ZM171.15 11.79H173.24V22.41H171.15V11.79Z" fill="white"/>
<path d="M175.8 20.53H186.02V22.41H175.8V20.53ZM175.8 20.53H177.89V25.08H175.8V20.53ZM176.18 20.53H176.43C176.85 20.53 177.17 20.41 177.39 20.18C177.61 19.95 177.76 19.6 177.83 19.12C177.91 18.65 177.95 17.99 177.95 17.16V11.79H180.04V17.86C180.04 19.09 179.79 20.02 179.29 20.65C178.79 21.28 178.07 21.6 177.15 21.6H176.9L176.18 20.53ZM179.25 11.79H183.98V13.67H179.25V11.79ZM183.28 11.79H185.37V22.41H183.28V11.79ZM185.17 20.53H187.26V25.08H185.17V20.53Z" fill="white"/>
<path d="M190.17 21.75C189.52 21.21 189.2 20.38 189.2 19.28C189.2 18.23 189.5 17.44 190.09 16.92C190.68 16.39 191.58 16.13 192.78 16.13H195.8L195.94 17.81H192.79C192.24 17.81 191.84 17.93 191.57 18.17C191.3 18.41 191.17 18.78 191.17 19.28C191.17 19.82 191.35 20.22 191.71 20.48C192.07 20.74 192.61 20.87 193.34 20.87C194.14 20.87 194.73 20.78 195.13 20.61C195.52 20.44 195.72 20.17 195.72 19.81L195.93 21.3C195.75 21.59 195.52 21.82 195.25 22.01C194.98 22.19 194.67 22.33 194.31 22.42C193.95 22.51 193.56 22.56 193.11 22.56C191.8 22.56 190.82 22.29 190.17 21.75ZM195.71 15.68C195.71 14.98 195.52 14.44 195.15 14.06C194.78 13.67 194.25 13.48 193.57 13.48C193.15 13.48 192.73 13.54 192.33 13.67C191.92 13.8 191.56 13.98 191.25 14.21L189.73 13.17C190.13 12.69 190.66 12.31 191.32 12.04C191.98 11.77 192.71 11.64 193.52 11.64C194.4 11.64 195.15 11.8 195.78 12.11C196.41 12.42 196.89 12.87 197.21 13.46C197.54 14.05 197.7 14.76 197.7 15.59V22.42H195.72V15.68H195.71Z" fill="white"/>
<path d="M202.67 22.02C201.98 21.66 201.46 21.13 201.1 20.44C200.74 19.75 200.56 18.92 200.56 17.94V16.2C200.56 15.24 200.74 14.42 201.1 13.73C201.46 13.05 201.98 12.53 202.67 12.17C203.36 11.81 204.18 11.63 205.15 11.63C205.7 11.63 206.22 11.7 206.71 11.83C207.2 11.96 207.64 12.16 208.03 12.41C208.42 12.66 208.74 12.97 209 13.33L207.5 14.68C207.2 14.34 206.85 14.08 206.45 13.89C206.05 13.71 205.63 13.61 205.19 13.61C204.38 13.61 203.76 13.84 203.32 14.29C202.88 14.74 202.65 15.37 202.65 16.19V17.94C202.65 18.78 202.87 19.43 203.31 19.88C203.75 20.34 204.38 20.57 205.19 20.57C205.63 20.57 206.06 20.47 206.46 20.27C206.86 20.07 207.21 19.79 207.5 19.43L209 20.88C208.73 21.24 208.41 21.54 208.02 21.79C207.63 22.04 207.19 22.23 206.7 22.36C206.21 22.49 205.7 22.55 205.15 22.55C204.19 22.56 203.36 22.38 202.67 22.02Z" fill="white"/>
<path d="M209.97 11.79H218.22V13.67H209.97V11.79ZM213.06 12.9H215.15V22.41H213.06V12.9Z" fill="white"/>
<path d="M220.99 11.79H223.08V26.73H220.99V11.79ZM224.02 22.09C223.53 21.77 223.17 21.32 222.94 20.74L223.08 18.52C223.08 18.98 223.16 19.37 223.33 19.69C223.49 20.01 223.73 20.26 224.04 20.43C224.35 20.6 224.73 20.69 225.17 20.69C225.86 20.69 226.39 20.48 226.77 20.06C227.15 19.64 227.34 19.05 227.34 18.28V15.98C227.34 15.2 227.15 14.6 226.77 14.17C226.39 13.74 225.86 13.53 225.17 13.53C224.73 13.53 224.35 13.61 224.04 13.78C223.73 13.94 223.49 14.18 223.33 14.5C223.17 14.82 223.08 15.2 223.08 15.64L222.87 13.59C223.19 12.97 223.61 12.49 224.13 12.15C224.65 11.81 225.22 11.64 225.86 11.64C226.61 11.64 227.25 11.81 227.79 12.15C228.33 12.49 228.73 12.98 229.01 13.63C229.29 14.28 229.43 15.06 229.43 15.97V18.28C229.43 19.18 229.29 19.95 229 20.59C228.71 21.23 228.29 21.72 227.74 22.06C227.19 22.4 226.53 22.57 225.75 22.57C225.08 22.56 224.51 22.4 224.02 22.09Z" fill="white"/>
<path d="M239.06 22.4V14.86L239.31 15.13L234.2 22.41H232.39V11.79H234.46V19.51L234.21 19.24L239.34 11.79H241.13V22.4H239.06Z" fill="white"/>
<path d="M245.76 22.2C245.2 21.95 244.74 21.59 244.4 21.12C244.06 20.65 243.84 20.08 243.74 19.42H245.77C245.84 19.82 246.05 20.12 246.39 20.34C246.73 20.56 247.16 20.67 247.7 20.67C248.29 20.67 248.75 20.54 249.08 20.28C249.41 20.02 249.57 19.65 249.57 19.17V19.16C249.57 18.79 249.45 18.51 249.22 18.3C248.99 18.09 248.65 17.99 248.21 17.99H246.54V16.21H248.21C248.53 16.21 248.78 16.1 248.96 15.89C249.14 15.68 249.23 15.38 249.23 15V14.99C249.23 14.53 249.09 14.17 248.8 13.92C248.51 13.67 248.11 13.54 247.59 13.54C247.11 13.54 246.7 13.65 246.37 13.87C246.04 14.09 245.82 14.4 245.7 14.79H243.68C243.88 13.79 244.32 13.01 245.02 12.46C245.72 11.91 246.6 11.64 247.67 11.64C248.82 11.64 249.72 11.89 250.35 12.39C250.98 12.89 251.3 13.59 251.3 14.5V14.51C251.3 15.09 251.16 15.59 250.88 16.01C250.6 16.43 250.21 16.74 249.7 16.94C250.32 17.03 250.8 17.28 251.14 17.68C251.48 18.08 251.65 18.62 251.65 19.27V19.28C251.65 20.32 251.31 21.13 250.62 21.71C249.93 22.28 248.97 22.57 247.72 22.57C246.98 22.56 246.33 22.44 245.76 22.2Z" fill="white"/>
<path d="M56.29 30.28H57.29V35.35H56.29V30.28ZM56.91 30.28H60.02V31.23H56.91V30.28ZM59.5 30.28H60.5V35.35H59.5V30.28Z" fill="white"/>
<path d="M62.0601 30.2801H63.0601V37.4101H62.0601V30.2801ZM63.5001 35.1901C63.2701 35.0401 63.0901 34.8201 62.9801 34.5501L63.0501 33.4901C63.0501 33.7101 63.0901 33.8901 63.1701 34.0501C63.2501 34.2001 63.3601 34.3201 63.5101 34.4001C63.6601 34.4801 63.8401 34.5201 64.0501 34.5201C64.3801 34.5201 64.6301 34.4201 64.8201 34.2201C65.0001 34.0201 65.0901 33.7401 65.0901 33.3701V32.2701C65.0901 31.9001 65.0001 31.6101 64.8201 31.4101C64.6401 31.2001 64.3801 31.1001 64.0501 31.1001C63.8401 31.1001 63.6601 31.1401 63.5101 31.2201C63.3601 31.3001 63.2501 31.4101 63.1701 31.5601C63.0901 31.7101 63.0501 31.8901 63.0501 32.1001L62.9501 31.1201C63.1001 30.8201 63.3001 30.5901 63.5501 30.4301C63.8001 30.2701 64.0701 30.1901 64.3801 30.1901C64.7401 30.1901 65.0401 30.2701 65.3001 30.4301C65.5601 30.5901 65.7501 30.8301 65.8801 31.1401C66.0101 31.4501 66.0801 31.8201 66.0801 32.2601V33.3601C66.0801 33.7901 66.0101 34.1601 65.8701 34.4601C65.7301 34.7701 65.5301 35.0001 65.2701 35.1601C65.0101 35.3201 64.6901 35.4001 64.3201 35.4001C64.0101 35.4201 63.7401 35.3401 63.5001 35.1901Z" fill="white"/>
<path d="M68.3201 35.1601C68.0101 34.9901 67.7701 34.7401 67.6001 34.4101C67.4401 34.0801 67.3501 33.6801 67.3501 33.2201V32.3901C67.3501 31.9301 67.4301 31.5401 67.6001 31.2101C67.7601 30.8801 68.0001 30.6301 68.3201 30.4601C68.6401 30.2901 69.0001 30.2001 69.4401 30.2001C69.8801 30.2001 70.2601 30.2901 70.5701 30.4601C70.8801 30.6301 71.1201 30.8801 71.2901 31.2101C71.4501 31.5401 71.5401 31.9301 71.5401 32.3901V33.2301C71.5401 33.6901 71.4601 34.0901 71.2901 34.4101C71.1301 34.7401 70.8901 34.9901 70.5701 35.1601C70.2601 35.3301 69.8801 35.4201 69.4401 35.4201C69.0001 35.4201 68.6301 35.3301 68.3201 35.1601ZM70.2501 34.1401C70.4401 33.9201 70.5401 33.6201 70.5401 33.2201V32.3801C70.5401 31.9901 70.4401 31.6801 70.2501 31.4701C70.0601 31.2501 69.7901 31.1501 69.4401 31.1501C69.0901 31.1501 68.8201 31.2601 68.6301 31.4701C68.4401 31.6801 68.3401 31.9901 68.3401 32.3801V33.2201C68.3401 33.6101 68.4401 33.9201 68.6301 34.1401C68.8201 34.3601 69.0901 34.4701 69.4401 34.4701C69.7901 34.4701 70.0601 34.3601 70.2501 34.1401Z" fill="white"/>
<path d="M73.1898 34.8501C72.9298 34.5201 72.7998 34.0501 72.7998 33.4501V32.1701C72.7998 31.5701 72.9298 31.1001 73.1898 30.7701C73.4498 30.4401 73.8098 30.2801 74.2798 30.2801C74.6898 30.2801 74.9998 30.4501 75.2298 30.7801C75.4498 31.1101 75.5698 31.5801 75.5698 32.1701V33.4301C75.5698 34.0401 75.4598 34.5101 75.2298 34.8401C75.0098 35.1701 74.6898 35.3401 74.2798 35.3401C73.8098 35.3501 73.4498 35.1801 73.1898 34.8501ZM75.0498 34.1501C75.1898 33.9801 75.2498 33.7501 75.2498 33.4501V32.1701C75.2498 31.8701 75.1798 31.6401 75.0498 31.4701C74.9098 31.3101 74.7298 31.2201 74.4798 31.2201C74.2598 31.2201 74.0898 31.3001 73.9698 31.4701C73.8498 31.6301 73.7898 31.8701 73.7898 32.1701V33.4501C73.7898 33.7501 73.8498 33.9901 73.9698 34.1501C74.0898 34.3201 74.2598 34.4001 74.4798 34.4001C74.7298 34.4001 74.9198 34.3201 75.0498 34.1501ZM75.2498 28.8101H76.2498V36.8201H75.2498V28.8101ZM76.2698 34.8501C76.0498 34.5201 75.9298 34.0401 75.9298 33.4401V32.1801C75.9298 31.5801 76.0398 31.1201 76.2698 30.7901C76.4898 30.4601 76.8098 30.2901 77.2198 30.2901C77.6898 30.2901 78.0598 30.4501 78.3098 30.7801C78.5698 31.1101 78.6998 31.5701 78.6998 32.1801V33.4601C78.6998 34.0601 78.5698 34.5301 78.3098 34.8601C78.0498 35.1901 77.6898 35.3601 77.2198 35.3601C76.8098 35.3501 76.4998 35.1801 76.2698 34.8501ZM77.5298 34.1501C77.6498 33.9801 77.7098 33.7501 77.7098 33.4501V32.1701C77.7098 31.8701 77.6498 31.6401 77.5298 31.4701C77.4098 31.3101 77.2398 31.2201 77.0198 31.2201C76.7798 31.2201 76.5898 31.3001 76.4498 31.4701C76.3098 31.6301 76.2498 31.8701 76.2498 32.1701V33.4501C76.2498 33.7501 76.3198 33.9901 76.4498 34.1501C76.5898 34.3201 76.7698 34.4001 77.0198 34.4001C77.2398 34.4001 77.4098 34.3201 77.5298 34.1501Z" fill="white"/>
<path d="M80.9902 35.16C80.6602 34.98 80.4002 34.73 80.2302 34.39C80.0602 34.05 79.9702 33.64 79.9702 33.16V32.59C79.9702 32.09 80.0502 31.66 80.2202 31.31C80.3902 30.96 80.6302 30.68 80.9502 30.5C81.2702 30.31 81.6502 30.22 82.1002 30.22C82.5202 30.22 82.8802 30.33 83.1802 30.54C83.4802 30.75 83.7102 31.06 83.8702 31.46C84.0302 31.86 84.1102 32.34 84.1102 32.9V33.23H80.6902V32.43H83.1602C83.1302 32.02 83.0202 31.7 82.8402 31.47C82.6602 31.24 82.4102 31.13 82.1002 31.13C81.7202 31.13 81.4302 31.25 81.2202 31.5C81.0102 31.75 80.9102 32.1 80.9102 32.55V33.19C80.9102 33.61 81.0202 33.93 81.2402 34.16C81.4602 34.38 81.7802 34.5 82.1802 34.5C82.3802 34.5 82.5802 34.46 82.7802 34.38C82.9802 34.3 83.1602 34.18 83.3102 34.04L83.9602 34.69C83.7102 34.93 83.4302 35.12 83.1102 35.25C82.8002 35.38 82.4802 35.45 82.1702 35.45C81.7202 35.42 81.3202 35.33 80.9902 35.16Z" fill="white"/>
<path d="M86.3401 35.1601C86.0101 34.9901 85.7601 34.7401 85.5901 34.4101C85.4201 34.0801 85.3301 33.6801 85.3301 33.2201V32.3801C85.3301 31.9201 85.4201 31.5301 85.5901 31.2001C85.7601 30.8701 86.0101 30.6301 86.3401 30.4501C86.6701 30.2801 87.0601 30.1901 87.5201 30.1901C87.7801 30.1901 88.0301 30.2201 88.2701 30.2901C88.5001 30.3501 88.7101 30.4501 88.9001 30.5701C89.0901 30.6901 89.2401 30.8401 89.3601 31.0101L88.6401 31.6501C88.5001 31.4901 88.3301 31.3601 88.1401 31.2701C87.9501 31.1801 87.7501 31.1401 87.5401 31.1401C87.1601 31.1401 86.8601 31.2501 86.6501 31.4601C86.4401 31.6701 86.3301 31.9801 86.3301 32.3701V33.2101C86.3301 33.6101 86.4401 33.9201 86.6501 34.1401C86.8601 34.3601 87.1601 34.4701 87.5501 34.4701C87.7601 34.4701 87.9601 34.4201 88.1601 34.3301C88.3501 34.2401 88.5201 34.1001 88.6601 33.9301L89.3801 34.6201C89.2501 34.7901 89.1001 34.9301 88.9101 35.0501C88.7201 35.1701 88.5101 35.2601 88.2801 35.3201C88.0501 35.3801 87.8001 35.4101 87.5401 35.4101C87.0601 35.4201 86.6701 35.3301 86.3401 35.1601Z" fill="white"/>
<path d="M91.3201 35.1601C90.9901 34.9901 90.7401 34.7401 90.5701 34.4101C90.4001 34.0801 90.3101 33.6801 90.3101 33.2201V32.3801C90.3101 31.9201 90.4001 31.5301 90.5701 31.2001C90.7401 30.8701 90.9901 30.6301 91.3201 30.4501C91.6501 30.2801 92.0401 30.1901 92.5001 30.1901C92.7601 30.1901 93.0101 30.2201 93.2501 30.2901C93.4801 30.3501 93.6901 30.4501 93.8801 30.5701C94.0701 30.6901 94.2201 30.8401 94.3401 31.0101L93.6201 31.6501C93.4801 31.4901 93.3101 31.3601 93.1201 31.2701C92.9301 31.1801 92.7301 31.1401 92.5201 31.1401C92.1401 31.1401 91.8401 31.2501 91.6301 31.4601C91.4201 31.6701 91.3101 31.9801 91.3101 32.3701V33.2101C91.3101 33.6101 91.4201 33.9201 91.6301 34.1401C91.8401 34.3601 92.1401 34.4701 92.5301 34.4701C92.7401 34.4701 92.9401 34.4201 93.1401 34.3301C93.3301 34.2401 93.5001 34.1001 93.6401 33.9301L94.3601 34.6201C94.2301 34.7901 94.0801 34.9301 93.8901 35.0501C93.7001 35.1701 93.4901 35.2601 93.2601 35.3201C93.0301 35.3801 92.7801 35.4101 92.5201 35.4101C92.0501 35.4201 91.6501 35.3301 91.3201 35.1601Z" fill="white"/>
<path d="M98.6302 35.3401V31.7401L98.7502 31.8701L96.3102 35.3401H95.4502V30.2701H96.4402V33.9501L96.3202 33.8201L98.7702 30.2601H99.6202V35.3301H98.6302V35.3401Z" fill="white"/>
<path d="M102 35.1601C101.69 34.9901 101.45 34.7401 101.28 34.4101C101.12 34.0801 101.03 33.6801 101.03 33.2201V32.3901C101.03 31.9301 101.11 31.5401 101.28 31.2101C101.44 30.8801 101.68 30.6301 102 30.4601C102.31 30.2901 102.69 30.2001 103.13 30.2001C103.57 30.2001 103.95 30.2901 104.26 30.4601C104.57 30.6301 104.81 30.8801 104.98 31.2101C105.14 31.5401 105.23 31.9301 105.23 32.3901V33.2301C105.23 33.6901 105.15 34.0901 104.98 34.4101C104.82 34.7401 104.58 34.9901 104.26 35.1601C103.95 35.3301 103.57 35.4201 103.13 35.4201C102.68 35.4201 102.31 35.3301 102 35.1601ZM103.93 34.1401C104.12 33.9201 104.22 33.6201 104.22 33.2201V32.3801C104.22 31.9901 104.12 31.6801 103.93 31.4701C103.74 31.2501 103.47 31.1501 103.12 31.1501C102.77 31.1501 102.5 31.2601 102.31 31.4701C102.12 31.6801 102.02 31.9901 102.02 32.3801V33.2201C102.02 33.6101 102.12 33.9201 102.31 34.1401C102.5 34.3601 102.77 34.4701 103.12 34.4701C103.47 34.4701 103.74 34.3601 103.93 34.1401Z" fill="white"/>
<path d="M106.63 30.28H107.63V35.35H106.63V30.28ZM107.25 32.41H110.36V33.31H107.25V32.41ZM109.84 30.28H110.84V35.35H109.84V30.28Z" fill="white"/>
<path d="M112.62 35.0301C112.31 34.7701 112.16 34.3801 112.16 33.8501C112.16 33.3501 112.3 32.9701 112.59 32.7201C112.87 32.4701 113.3 32.3401 113.87 32.3401H115.31L115.38 33.1401H113.88C113.62 33.1401 113.43 33.2001 113.3 33.3101C113.17 33.4301 113.11 33.6001 113.11 33.8401C113.11 34.1001 113.2 34.2901 113.37 34.4101C113.54 34.5301 113.8 34.6001 114.15 34.6001C114.53 34.6001 114.82 34.5601 115 34.4801C115.19 34.4001 115.28 34.2701 115.28 34.1001L115.38 34.8101C115.29 34.9501 115.18 35.0601 115.05 35.1501C114.92 35.2401 114.77 35.3001 114.6 35.3501C114.43 35.3901 114.24 35.4201 114.03 35.4201C113.39 35.4201 112.92 35.2901 112.62 35.0301ZM115.26 32.1301C115.26 31.8001 115.17 31.5401 114.99 31.3601C114.81 31.1801 114.56 31.0801 114.24 31.0801C114.04 31.0801 113.84 31.1101 113.65 31.1701C113.46 31.2301 113.28 31.3201 113.13 31.4301L112.4 30.9301C112.59 30.7001 112.85 30.5201 113.16 30.3901C113.47 30.2601 113.82 30.2001 114.21 30.2001C114.63 30.2001 114.99 30.2701 115.29 30.4201C115.59 30.5701 115.82 30.7801 115.97 31.0601C116.13 31.3401 116.2 31.6801 116.2 32.0801V35.3401H115.25V32.1301H115.26Z" fill="white"/>
<path d="M117.38 34.4401C117.64 34.4401 117.84 34.3201 117.99 34.0801C118.13 33.8401 118.21 33.5101 118.21 33.0701V30.2701H119.21V33.2101C119.21 33.6701 119.14 34.0601 119.01 34.3901C118.87 34.7201 118.68 34.9601 118.42 35.1301C118.16 35.3001 117.85 35.3801 117.49 35.3801H117.39V34.4401H117.38ZM118.82 30.2801H121.31V31.2301H118.82V30.2801ZM120.78 30.2801H121.78V35.3501H120.78V30.2801Z" fill="white"/>
<path d="M123.34 30.28H124.34V35.35H123.34V30.28ZM123.83 34.4H125.62C125.82 34.4 125.98 34.34 126.11 34.21C126.23 34.08 126.29 33.92 126.29 33.71C126.29 33.57 126.26 33.45 126.21 33.34C126.15 33.24 126.08 33.15 125.98 33.1C125.88 33.04 125.76 33.01 125.63 33.01H123.84V32.06H125.59C125.94 32.06 126.25 32.13 126.51 32.27C126.78 32.41 126.98 32.6 127.13 32.85C127.28 33.1 127.35 33.39 127.35 33.71C127.35 34.04 127.28 34.32 127.13 34.57C126.98 34.82 126.78 35.01 126.51 35.15C126.24 35.29 125.93 35.36 125.58 35.36H123.83V34.4Z" fill="white"/>
<path d="M128.64 30.28H129.64V35.35H128.64V30.28ZM129.26 32.41H132.37V33.31H129.26V32.41ZM131.84 30.28H132.84V35.35H131.84V30.28Z" fill="white"/>
<path d="M134.4 30.28H135.4V35.35H134.4V30.28ZM134.89 34.4H136.43C136.63 34.4 136.79 34.34 136.92 34.21C137.04 34.08 137.1 33.92 137.1 33.71C137.1 33.57 137.07 33.45 137.02 33.34C136.96 33.24 136.89 33.15 136.79 33.1C136.69 33.04 136.57 33.01 136.44 33.01H134.9V32.06H136.4C136.75 32.06 137.06 32.13 137.32 32.27C137.58 32.41 137.79 32.6 137.94 32.85C138.09 33.1 138.16 33.39 138.16 33.71C138.16 34.04 138.09 34.32 137.94 34.57C137.79 34.82 137.59 35.01 137.32 35.15C137.05 35.29 136.74 35.36 136.39 35.36H134.89V34.4ZM138.9 30.28H139.9V35.35H138.9V30.28Z" fill="white"/>
<path d="M142.28 35.16C141.95 34.98 141.69 34.73 141.52 34.39C141.35 34.05 141.26 33.64 141.26 33.16V32.59C141.26 32.09 141.34 31.66 141.51 31.31C141.68 30.96 141.92 30.68 142.24 30.5C142.56 30.31 142.94 30.22 143.39 30.22C143.81 30.22 144.17 30.33 144.47 30.54C144.77 30.75 145 31.06 145.16 31.46C145.32 31.86 145.4 32.34 145.4 32.9V33.23H141.98V32.43H144.45C144.42 32.02 144.31 31.7 144.13 31.47C143.95 31.24 143.7 31.13 143.39 31.13C143.01 31.13 142.72 31.25 142.51 31.5C142.3 31.75 142.2 32.1 142.2 32.55V33.19C142.2 33.61 142.31 33.93 142.53 34.16C142.75 34.38 143.07 34.5 143.47 34.5C143.67 34.5 143.87 34.46 144.07 34.38C144.27 34.3 144.45 34.18 144.6 34.04L145.25 34.69C145 34.93 144.72 35.12 144.4 35.25C144.09 35.38 143.77 35.45 143.46 35.45C143.01 35.42 142.61 35.33 142.28 35.16Z" fill="white"/>
<path d="M149.46 30.28H150.46V35.35H149.46V30.28ZM150.08 30.28H153.19V31.23H150.08V30.28ZM152.66 30.28H153.66V35.35H152.66V30.28Z" fill="white"/>
<path d="M156.1 35.16C155.77 34.98 155.51 34.73 155.34 34.39C155.17 34.05 155.08 33.64 155.08 33.16V32.59C155.08 32.09 155.16 31.66 155.33 31.31C155.5 30.96 155.74 30.68 156.06 30.5C156.38 30.31 156.76 30.22 157.21 30.22C157.63 30.22 157.99 30.33 158.29 30.54C158.59 30.75 158.82 31.06 158.98 31.46C159.14 31.86 159.22 32.34 159.22 32.9V33.23H155.8V32.43H158.27C158.24 32.02 158.13 31.7 157.95 31.47C157.77 31.24 157.52 31.13 157.21 31.13C156.83 31.13 156.54 31.25 156.33 31.5C156.12 31.75 156.02 32.1 156.02 32.55V33.19C156.02 33.61 156.13 33.93 156.35 34.16C156.57 34.38 156.89 34.5 157.29 34.5C157.49 34.5 157.69 34.46 157.89 34.38C158.09 34.3 158.27 34.18 158.42 34.04L159.07 34.69C158.82 34.93 158.54 35.12 158.22 35.25C157.91 35.38 157.59 35.45 157.28 35.45C156.83 35.42 156.43 35.33 156.1 35.16Z" fill="white"/>
<path d="M160.59 30.2801H161.59V37.4101H160.59V30.2801ZM162.03 35.1901C161.8 35.0401 161.62 34.8201 161.51 34.5501L161.58 33.4901C161.58 33.7101 161.62 33.8901 161.7 34.0501C161.78 34.2001 161.89 34.3201 162.04 34.4001C162.19 34.4801 162.37 34.5201 162.58 34.5201C162.91 34.5201 163.16 34.4201 163.35 34.2201C163.53 34.0201 163.62 33.7401 163.62 33.3701V32.2701C163.62 31.9001 163.53 31.6101 163.35 31.4101C163.17 31.2001 162.91 31.1001 162.58 31.1001C162.37 31.1001 162.19 31.1401 162.04 31.2201C161.89 31.3001 161.78 31.4101 161.7 31.5601C161.62 31.7101 161.58 31.8901 161.58 32.1001L161.48 31.1201C161.63 30.8201 161.83 30.5901 162.08 30.4301C162.33 30.2701 162.6 30.1901 162.91 30.1901C163.27 30.1901 163.57 30.2701 163.83 30.4301C164.09 30.5901 164.28 30.8301 164.41 31.1401C164.54 31.4501 164.61 31.8201 164.61 32.2601V33.3601C164.61 33.7901 164.54 34.1601 164.4 34.4601C164.26 34.7701 164.06 35.0001 163.8 35.1601C163.54 35.3201 163.22 35.4001 162.85 35.4001C162.54 35.4201 162.27 35.3401 162.03 35.1901Z" fill="white"/>
<path d="M166.9 35.16C166.57 34.98 166.31 34.73 166.14 34.39C165.97 34.05 165.88 33.64 165.88 33.16V32.59C165.88 32.09 165.96 31.66 166.13 31.31C166.3 30.96 166.54 30.68 166.86 30.5C167.18 30.31 167.56 30.22 168.01 30.22C168.43 30.22 168.79 30.33 169.09 30.54C169.39 30.75 169.62 31.06 169.78 31.46C169.94 31.86 170.02 32.34 170.02 32.9V33.23H166.6V32.43H169.07C169.04 32.02 168.93 31.7 168.75 31.47C168.57 31.24 168.32 31.13 168.01 31.13C167.63 31.13 167.34 31.25 167.13 31.5C166.92 31.75 166.82 32.1 166.82 32.55V33.19C166.82 33.61 166.93 33.93 167.15 34.16C167.37 34.38 167.69 34.5 168.09 34.5C168.29 34.5 168.49 34.46 168.69 34.38C168.89 34.3 169.07 34.18 169.22 34.04L169.87 34.69C169.62 34.93 169.34 35.12 169.02 35.25C168.71 35.38 168.39 35.45 168.08 35.45C167.63 35.42 167.23 35.33 166.9 35.16Z" fill="white"/>
<path d="M171.39 30.2801H172.38V35.3501H171.39V30.2801ZM171.98 34.4501H173.86C174.06 34.4501 174.21 34.3901 174.32 34.2801C174.43 34.1701 174.48 34.0101 174.48 33.8101V33.8001C174.48 33.5901 174.43 33.4201 174.32 33.3101C174.21 33.1901 174.06 33.1301 173.86 33.1301H171.98V32.2301H173.86C174.03 32.2301 174.16 32.1901 174.25 32.1001C174.34 32.0201 174.39 31.8901 174.39 31.7401C174.39 31.5601 174.34 31.4201 174.25 31.3201C174.16 31.2201 174.03 31.1701 173.87 31.1701H171.98V30.2701H173.9C174.37 30.2701 174.74 30.3801 175 30.6001C175.26 30.8201 175.39 31.1301 175.39 31.5301C175.39 31.8401 175.29 32.0901 175.1 32.2901C174.91 32.4901 174.64 32.6201 174.29 32.6701C174.67 32.7401 174.96 32.8901 175.17 33.1301C175.38 33.3701 175.48 33.6601 175.48 34.0201V34.0301C175.48 34.4401 175.34 34.7601 175.06 34.9901C174.78 35.2201 174.39 35.3301 173.88 35.3301H171.98V34.4501Z" fill="white"/>
<path d="M177.61 35.1601C177.3 34.9901 177.06 34.7401 176.89 34.4101C176.73 34.0801 176.64 33.6801 176.64 33.2201V32.3901C176.64 31.9301 176.72 31.5401 176.89 31.2101C177.05 30.8801 177.29 30.6301 177.61 30.4601C177.92 30.2901 178.3 30.2001 178.74 30.2001C179.18 30.2001 179.56 30.2901 179.87 30.4601C180.18 30.6301 180.42 30.8801 180.59 31.2101C180.75 31.5401 180.84 31.9301 180.84 32.3901V33.2301C180.84 33.6901 180.76 34.0901 180.59 34.4101C180.43 34.7401 180.19 34.9901 179.87 35.1601C179.56 35.3301 179.18 35.4201 178.74 35.4201C178.3 35.4201 177.93 35.3301 177.61 35.1601ZM179.55 34.1401C179.74 33.9201 179.84 33.6201 179.84 33.2201V32.3801C179.84 31.9901 179.74 31.6801 179.55 31.4701C179.36 31.2501 179.09 31.1501 178.74 31.1501C178.39 31.1501 178.12 31.2601 177.93 31.4701C177.74 31.6801 177.64 31.9901 177.64 32.3801V33.2201C177.64 33.6101 177.74 33.9201 177.93 34.1401C178.12 34.3601 178.39 34.4701 178.74 34.4701C179.09 34.4701 179.36 34.3601 179.55 34.1401Z" fill="white"/>
<path d="M181.66 34.4501H186.54V35.3501H181.66V34.4501ZM181.66 34.4501H182.66V36.6201H181.66V34.4501ZM181.84 34.4501H181.96C182.16 34.4501 182.31 34.3901 182.42 34.2801C182.52 34.1701 182.6 34.0001 182.63 33.7701C182.67 33.5401 182.69 33.2301 182.69 32.8301V30.2701H183.69V33.1701C183.69 33.7601 183.57 34.2001 183.33 34.5001C183.09 34.8001 182.75 34.9501 182.31 34.9501H182.19L181.84 34.4501ZM183.31 30.2801H185.57V31.1801H183.31V30.2801ZM185.23 30.2801H186.23V35.3501H185.23V30.2801ZM186.14 34.4501H187.14V36.6201H186.14V34.4501Z" fill="white"/>
<path d="M189.11 33.5201C188.83 33.3601 188.62 33.1301 188.48 32.8301C188.34 32.5301 188.26 32.1701 188.26 31.7501V30.2701H189.26V31.7801C189.26 32.1001 189.34 32.3401 189.5 32.5101C189.66 32.6801 189.88 32.7701 190.17 32.7701C190.55 32.7701 190.85 32.6801 191.06 32.4901C191.27 32.3001 191.38 32.0301 191.38 31.6801V31.1701H191.69V31.6501C191.69 32.3201 191.55 32.8401 191.28 33.2101C191.01 33.5801 190.62 33.7601 190.12 33.7601C189.72 33.7601 189.39 33.6801 189.11 33.5201ZM191.37 30.2801H192.37V35.3501H191.37V30.2801Z" fill="white"/>
<path d="M194.81 35.16C194.48 34.98 194.22 34.73 194.05 34.39C193.88 34.05 193.79 33.64 193.79 33.16V32.59C193.79 32.09 193.87 31.66 194.04 31.31C194.21 30.96 194.45 30.68 194.77 30.5C195.09 30.31 195.47 30.22 195.92 30.22C196.34 30.22 196.7 30.33 197 30.54C197.3 30.75 197.53 31.06 197.69 31.46C197.85 31.86 197.93 32.34 197.93 32.9V33.23H194.51V32.43H196.98C196.95 32.02 196.84 31.7 196.66 31.47C196.48 31.24 196.23 31.13 195.92 31.13C195.54 31.13 195.25 31.25 195.04 31.5C194.83 31.75 194.73 32.1 194.73 32.55V33.19C194.73 33.61 194.84 33.93 195.06 34.16C195.28 34.38 195.6 34.5 196 34.5C196.2 34.5 196.4 34.46 196.6 34.38C196.8 34.3 196.98 34.18 197.13 34.04L197.78 34.69C197.53 34.93 197.25 35.12 196.93 35.25C196.62 35.38 196.3 35.45 195.99 35.45C195.54 35.42 195.14 35.33 194.81 35.16Z" fill="white"/>
<path d="M200.16 35.1601C199.83 34.9901 199.58 34.7401 199.41 34.4101C199.24 34.0801 199.15 33.6801 199.15 33.2201V32.3801C199.15 31.9201 199.24 31.5301 199.41 31.2001C199.58 30.8701 199.83 30.6301 200.16 30.4501C200.49 30.2801 200.88 30.1901 201.34 30.1901C201.6 30.1901 201.85 30.2201 202.09 30.2901C202.32 30.3501 202.53 30.4501 202.72 30.5701C202.91 30.6901 203.06 30.8401 203.18 31.0101L202.46 31.6501C202.32 31.4901 202.15 31.3601 201.96 31.2701C201.77 31.1801 201.57 31.1401 201.36 31.1401C200.98 31.1401 200.68 31.2501 200.47 31.4601C200.26 31.6701 200.15 31.9801 200.15 32.3701V33.2101C200.15 33.6101 200.26 33.9201 200.47 34.1401C200.68 34.3601 200.98 34.4701 201.37 34.4701C201.58 34.4701 201.78 34.4201 201.98 34.3301C202.17 34.2401 202.34 34.1001 202.48 33.9301L203.2 34.6201C203.07 34.7901 202.92 34.9301 202.73 35.0501C202.54 35.1701 202.33 35.2601 202.1 35.3201C201.87 35.3801 201.62 35.4101 201.36 35.4101C200.88 35.4201 200.49 35.3301 200.16 35.1601Z" fill="white"/>
<path d="M204.28 30.2801H205.28V35.3501H204.28V30.2801ZM204.76 32.3301H206.59V33.2801H204.76V32.3301ZM205.77 32.4301L207.15 30.2701H208.35L206.23 33.3001L205.77 32.4301ZM205.81 33.2101L206.59 32.7001L208.65 35.3501H207.32L205.81 33.2101Z" fill="white"/>
<path d="M212.61 35.3401V31.7401L212.73 31.8701L210.29 35.3401H209.43V30.2701H210.42V33.9501L210.3 33.8201L212.75 30.2601H213.6V35.3301H212.61V35.3401Z" fill="white"/>
<path d="M216.04 35.16C215.71 34.98 215.45 34.73 215.28 34.39C215.11 34.05 215.02 33.64 215.02 33.16V32.59C215.02 32.09 215.1 31.66 215.27 31.31C215.44 30.96 215.68 30.68 216 30.5C216.32 30.31 216.7 30.22 217.15 30.22C217.57 30.22 217.93 30.33 218.23 30.54C218.53 30.75 218.76 31.06 218.92 31.46C219.08 31.86 219.16 32.34 219.16 32.9V33.23H215.74V32.43H218.21C218.18 32.02 218.07 31.7 217.89 31.47C217.71 31.24 217.46 31.13 217.15 31.13C216.77 31.13 216.48 31.25 216.27 31.5C216.06 31.75 215.96 32.1 215.96 32.55V33.19C215.96 33.61 216.07 33.93 216.29 34.16C216.51 34.38 216.83 34.5 217.23 34.5C217.43 34.5 217.63 34.46 217.83 34.38C218.03 34.3 218.21 34.18 218.36 34.04L219.01 34.69C218.76 34.93 218.48 35.12 218.16 35.25C217.85 35.38 217.53 35.45 217.22 35.45C216.77 35.42 216.37 35.33 216.04 35.16Z" fill="white"/>
<path d="M222.68 30.2801H223.7L225.26 34.6901L224.71 35.7701L222.68 30.2801ZM227.17 30.2801L225.01 36.5401C224.93 36.7701 224.83 36.9501 224.7 37.0901C224.57 37.2201 224.42 37.3201 224.23 37.3801C224.04 37.4401 223.82 37.4701 223.55 37.4701H223.35V36.5001H223.55C223.74 36.5001 223.88 36.4601 223.99 36.3901C224.1 36.3101 224.19 36.1901 224.28 36.0001L226.16 30.2701H227.17V30.2801Z" fill="white"/>
<path d="M228.81 35.1601C228.48 34.9901 228.23 34.7401 228.06 34.4101C227.89 34.0801 227.8 33.6801 227.8 33.2201V32.3801C227.8 31.9201 227.89 31.5301 228.06 31.2001C228.23 30.8701 228.48 30.6301 228.81 30.4501C229.14 30.2801 229.53 30.1901 229.99 30.1901C230.25 30.1901 230.5 30.2201 230.74 30.2901C230.97 30.3501 231.18 30.4501 231.37 30.5701C231.56 30.6901 231.71 30.8401 231.83 31.0101L231.11 31.6501C230.97 31.4901 230.8 31.3601 230.61 31.2701C230.42 31.1801 230.22 31.1401 230.01 31.1401C229.63 31.1401 229.33 31.2501 229.12 31.4601C228.91 31.6701 228.8 31.9801 228.8 32.3701V33.2101C228.8 33.6101 228.91 33.9201 229.12 34.1401C229.33 34.3601 229.63 34.4701 230.02 34.4701C230.23 34.4701 230.43 34.4201 230.63 34.3301C230.82 34.2401 230.99 34.1001 231.13 33.9301L231.85 34.6201C231.72 34.7901 231.57 34.9301 231.38 35.0501C231.19 35.1701 230.98 35.2601 230.75 35.3201C230.52 35.3801 230.27 35.4101 230.01 35.4101C229.53 35.4201 229.14 35.3301 228.81 35.1601Z" fill="white"/>
<path d="M232.34 34.4401C232.6 34.4401 232.8 34.3201 232.95 34.0801C233.09 33.8401 233.17 33.5101 233.17 33.0701V30.2701H234.17V33.2101C234.17 33.6701 234.1 34.0601 233.97 34.3901C233.83 34.7201 233.64 34.9601 233.38 35.1301C233.12 35.3001 232.81 35.3801 232.45 35.3801H232.35V34.4401H232.34ZM233.79 30.2801H236.28V31.2301H233.79V30.2801ZM235.75 30.2801H236.75V35.3501H235.75V30.2801Z" fill="white"/>
<path d="M237.62 30.2801H238.64L240.2 34.6901L239.65 35.7701L237.62 30.2801ZM242.11 30.2801L239.95 36.5401C239.87 36.7701 239.77 36.9501 239.64 37.0901C239.51 37.2201 239.36 37.3201 239.17 37.3801C238.98 37.4401 238.76 37.4701 238.49 37.4701H238.29V36.5001H238.49C238.68 36.5001 238.82 36.4601 238.93 36.3901C239.04 36.3101 239.13 36.1901 239.22 36.0001L241.1 30.2701H242.11V30.2801Z" fill="white"/>
<path d="M242.99 30.28H243.99V35.35H242.99V30.28ZM243.48 30.28H246.24V31.23H243.48V30.28Z" fill="white"/>
<path d="M250.45 35.3401V31.7401L250.57 31.8701L248.13 35.3401H247.27V30.2701H248.26V33.9501L248.14 33.8201L250.59 30.2601H251.44V35.3301H250.45V35.3401Z" fill="white"/>
<defs>
<radialGradient id="paint0_radial_2042_842" cx="0" cy="0" r="1" gradientUnits="userSpaceOnUse" gradientTransform="translate(41.5016 36.3837) rotate(-45) scale(40.6118)">
<stop stop-color="white"/>
<stop offset="0.0337" stop-color="#FFFFFC"/>
<stop offset="0.073" stop-color="#FFFEF2"/>
<stop offset="0.115" stop-color="#FFFCE2"/>
<stop offset="0.159" stop-color="#FFF9C9"/>
<stop offset="0.2045" stop-color="#FFF6A5"/>
<stop offset="0.2513" stop-color="#FFF270"/>
<stop offset="0.2983" stop-color="#FFEE06"/>
<stop offset="0.3174" stop-color="#FFED00"/>
<stop offset="0.7844" stop-color="#EF7900"/>
<stop offset="1" stop-color="#FFDA00"/>
</radialGradient>
<radialGradient id="paint1_radial_2042_842" cx="0" cy="0" r="1" gradientUnits="userSpaceOnUse" gradientTransform="translate(25.305 12.0511) scale(29.0356 29.0356)">
<stop stop-color="white"/>
<stop offset="1" stop-color="#FFED00"/>
</radialGradient>
<linearGradient id="paint2_linear_2042_842" x1="28.0767" y1="22.9594" x2="12.8765" y2="7.7592" gradientUnits="userSpaceOnUse">
<stop stop-color="white" stop-opacity="0"/>
<stop offset="1" stop-color="white" stop-opacity="0.78"/>
</linearGradient>
</defs>
</svg>
